SplineFontDB: 3.2
FontName: GoboCaps-Regular
FullName: Gobo Caps Regular
FamilyName: Gobo Caps
Weight: Regular
Copyright: Copyright (c) 2025 Terhi Makinen (terhimakin@gmail.com), with Reserved Font Name "Gobo Caps"
UComments: "2025-3-3: Created with FontForge (http://fontforge.org)"
Version: 001.000
ItalicAngle: 0
UnderlinePosition: -99
UnderlineWidth: 49
Ascent: 800
Descent: 200
InvalidEm: 0
LayerCount: 2
Layer: 0 0 "Back" 1
Layer: 1 0 "Fore" 0
XUID: [1021 323 1339255553 4316801]
StyleMap: 0x0040
FSType: 0
OS2Version: 0
OS2_WeightWidthSlopeOnly: 0
OS2_UseTypoMetrics: 1
CreationTime: 1740994415
ModificationTime: 1743163012
PfmFamily: 33
TTFWeight: 400
TTFWidth: 5
LineGap: 90
VLineGap: 0
OS2TypoAscent: 0
OS2TypoAOffset: 1
OS2TypoDescent: 0
OS2TypoDOffset: 1
OS2TypoLinegap: 90
OS2WinAscent: 0
OS2WinAOffset: 1
OS2WinDescent: 0
OS2WinDOffset: 1
HheadAscent: 0
HheadAOffset: 1
HheadDescent: 0
HheadDOffset: 1
OS2FamilyClass: 2565
OS2Vendor: '    '
Lookup: 6 0 0 "'calt' medial i" { "'calt' medial i-1"  } ['calt' ('DFLT' <'dflt' > 'cyrl' <'dflt' > 'grek' <'dflt' > 'latn' <'dflt' > ) ]
Lookup: 1 0 0 "'xxxx' i to i.medial" { "'xxxx' i to i.medial-1"  } []
Lookup: 4 0 0 "'liga' Standard Ligatures in Latin lookup 0" { "'liga' Standard Ligatures in Latin lookup 0-1"  } ['liga' ('DFLT' <'dflt' > 'latn' <'dflt' > ) ]
Lookup: 258 0 0 "'kern' Horizontal Kerning in Latin lookup 0" { "'kern' Horizontal Kerning in Latin lookup 0-1" [120,0,2] } ['kern' ('DFLT' <'dflt' > 'latn' <'dflt' > ) ]
MarkAttachClasses: 1
DEI: 91125
KernClass2: 26 13 "'kern' Horizontal Kerning in Latin lookup 0-1"
 112 a agrave aacute acircumflex atilde adieresis aring amacron abreve aogonek alphatonos alpha delta lambda cy.a a_a
 31 b germandbls beta cy.v cy.z b_b
 5 q q_q
 56 c ccedilla cacute ccircumflex cdotaccent ccaron cy.c c_c
 177 g o ograve oacute ocircumflex otilde odieresis oslash gcircumflex gbreve gdotaccent uni0123 omacron obreve ohungarumlaut theta omicron phi omicrontonos cy.o cy.phi cy.yu g_g o_o

StartChar: a
Encoding: 97 97 0
Width: 471
Flags: W
VStem: 355 105<81.5293 142.567>
LayerCount: 2
Fore
SplineSet
35 -31 m 0
 24 -31 12 -15 12 15 c 0
 12 19 13 23 13 26 c 0
 13 31 108 275 205 463 c 0
 211 475 231 484 250 484 c 0
 260 484 269 482 273 476 c 0
 350 349 376 291 403 229 c 1
 406 229 408 230 411 230 c 0
 424 230 433 225 433 212 c 0
 433 205 430 195 423 181 c 0
 423 180 460 90 460 78 c 0
 460 55 434 12 413 12 c 0
 407 12 402 16 397 24 c 0
 394 26 374 92 355 145 c 1
 230 136 171 105 96 66 c 1
 74 0 70 -9 53 -22 c 0
 45 -28 40 -31 35 -31 c 0
127 158 m 1
 165 174 222 196 327 217 c 1
 300 280 274 322 233 382 c 1
 177 284 150 223 127 158 c 1
EndSplineSet
Validated: 1
EndChar

StartChar: b
Encoding: 98 98 1
Width: 391
Flags: W
HStem: -16 82<91 228.932> 417 70<99.444 252.466>
VStem: 31 65<68.9767 236.36 309 402.731> 261 62<347.329 406.041> 317 62<107.579 219.342>
LayerCount: 2
Fore
SplineSet
19 31 m 0xe8
 19 33 31 167 31 245 c 2
 31 254 l 2
 31 315 31 348 30 389 c 1
 18 399 15 418 15 432 c 0
 15 445 15 461 57 467 c 0
 119 476 174 487 218 487 c 0
 283 487 323 467 323 403 c 0xf0
 323 366 313 338 293 316 c 1
 348 301 379 264 379 190 c 0
 379 48 286 -11 44 -16 c 0
 35 -16 19 -3 19 31 c 0xe8
261 375 m 0
 261 381 258 417 187 417 c 0
 161 417 130 413 98 404 c 1
 96 377 94 345 94 309 c 1
 202 327 261 344 261 375 c 0
95 232 m 1
 95 215 96 202 96 187 c 0
 96 162 95 130 91 66 c 1
 109 66 l 2
 214 66 317 76 317 158 c 0xe8
 317 238 253 247 209 247 c 0
 176 247 137 241 95 232 c 1
EndSplineSet
Validated: 1
EndChar

StartChar: c
Encoding: 99 99 2
Width: 419
Flags: W
HStem: -3 73<126.939 285.273> 418 72<183.759 302.324>
VStem: 11 63<122.846 277.64>
LayerCount: 2
Fore
SplineSet
11 173 m 0
 11 288 113 490 265 490 c 0
 352 490 396 423 396 399 c 0
 396 377 372 334 350 334 c 0
 322 334 326 418 247 418 c 0
 165 418 79 315 74 197 c 1
 74 192 l 2
 74 128 125 70 187 70 c 2
 194 70 l 1
 261 75 305 96 339 123 c 0
 346 129 358 136 380 137 c 1
 383 137 l 2
 399 137 405 129 405 119 c 0
 405 101 389 76 380 68 c 0
 353 40 316 10 203 -2 c 0
 196 -3 189 -3 182 -3 c 0
 87 -3 11 67 11 173 c 0
EndSplineSet
Validated: 1
EndChar

StartChar: d
Encoding: 100 100 3
Width: 433
Flags: W
HStem: 406 76<100.174 279.442>
VStem: 27 68<66.1789 396.631> 34 71<66 269.682 277.772 278.484> 357 62<171.574 333.729>
LayerCount: 2
Fore
SplineSet
34 33 m 0xb0
 29 169 27 232 27 276 c 0xd0
 27 314 29 339 31 385 c 1
 19 394 16 414 16 428 c 0
 16 441 16 456 47 462 c 0
 103 476 153 482 198 482 c 0
 337 481 419 411 419 281 c 0
 419 -13 65 -17 60 -17 c 2
 57 -17 l 1
 42 -15 35 12 35 17 c 0
 35 18 34 25 34 33 c 0xb0
95 283 m 0
 95 187 105 68 105 66 c 1xb0
 221 76 357 110 357 254 c 0
 357 293 343 406 173 406 c 0
 148 406 123 403 99 398 c 1
 96 369 95 327 95 283 c 0
EndSplineSet
Validated: 1
EndChar

StartChar: exclam
Encoding: 33 33 5
Width: 156
Flags: W
HStem: 1 82<66.7259 115.83>
VStem: 58 63<139.824 532.293> 63 71<18.5719 78.6238 330.035 579.922> 69 57<143.088 292.945>
LayerCount: 2
Fore
SplineSet
108 584 m 1xa0
 112 584 l 2
 126 584 134 579 133 565 c 1
 133 564 l 2
 133 553 121 440 121 305 c 2
 121 290 l 2xc0
 121 242 126 205 126 187 c 0
 126 155 98 133 80 133 c 0
 75 133 71 135 69 139 c 0x90
 60 155 58 273 58 294 c 0xc0
 58 314 59 534 63 560 c 0
 65 575 85 583 108 584 c 1xa0
86 1 m 0
 75 1 63 19 63 48 c 0
 63 52 64 56 64 59 c 0
 66 74 86 82 109 83 c 1
 112 83 l 2
 128 83 134 75 134 65 c 0xa0
 134 40 104 1 86 1 c 0
EndSplineSet
Validated: 1
EndChar

StartChar: quotedbl
Encoding: 34 34 6
Width: 242
Flags: W
HStem: 386 151<48 75.8125 152 179.812>
VStem: 26 92<446.933 514.665> 130 92<446.933 514.665>
LayerCount: 2
Fore
SplineSet
42 386 m 0
 26 386 26 411 26 411 c 1
 26 437 43 474 47 508 c 0
 47 515 49 535 93 537 c 1
 97 537 l 2
 111 537 118 533 118 522 c 0
 118 520 94 386 42 386 c 0
146 386 m 0
 130 386 130 410 130 412 c 0
 130 439 147 475 151 508 c 0
 151 515 153 535 197 537 c 1
 201 537 l 2
 215 537 222 533 222 522 c 0
 222 520 198 386 146 386 c 0
EndSplineSet
Validated: 1
EndChar

StartChar: quotesingle
Encoding: 39 39 7
Width: 142
Flags: W
HStem: 386 151<48 75.8125>
VStem: 26 92<446.933 514.665>
LayerCount: 2
Fore
SplineSet
42 386 m 0
 26 386 26 410 26 412 c 0
 26 439 43 475 47 508 c 0
 47 515 49 535 93 537 c 1
 97 537 l 2
 111 537 118 533 118 522 c 0
 118 520 94 386 42 386 c 0
EndSplineSet
Validated: 1
EndChar

StartChar: comma
Encoding: 44 44 8
Width: 182
Flags: W
HStem: -83 183<70.3984 92.7168>
VStem: 70 70<-9.62506 95.9219>
LayerCount: 2
Fore
SplineSet
140 82 m 0
 140 78 116 -83 61 -83 c 0
 48 -83 44 -69 44 -56 c 0
 44 -49 45 -41 47 -36 c 0
 58 2 59 2 70 76 c 0
 72 91 92 99 115 100 c 1
 118 100 l 2
 136 100 140 92 140 82 c 0
EndSplineSet
Validated: 1
EndChar

StartChar: hyphen
Encoding: 45 45 9
Width: 314
Flags: W
HStem: 172 81<36.22 172.944> 197 81<100.366 270.306>
VStem: 32 257<214.873 248.61>
LayerCount: 2
Fore
SplineSet
261 278 m 2x60
 266 278 l 2
 283 278 289 271 289 260 c 0
 289 236 258 197 240 197 c 2
 230 197 l 2x60
 142 197 60 172 58 172 c 2
 56 172 l 2
 42 172 32 196 32 219 c 0
 32 231 32 248 75 253 c 0xa0
 93 255 98 256 138 261 c 0
 139 261 254 278 261 278 c 2x60
EndSplineSet
Validated: 1
EndChar

StartChar: period
Encoding: 46 46 10
Width: 174
Flags: W
HStem: 1 82<74.3211 123.24>
VStem: 70 71<17.3882 78.6238>
LayerCount: 2
Fore
SplineSet
94 1 m 0
 82 1 70 22 70 49 c 0
 70 52 71 56 71 59 c 0
 73 74 93 82 116 83 c 1
 119 83 l 2
 135 83 141 76 141 65 c 0
 141 41 113 1 94 1 c 0
EndSplineSet
Validated: 1
EndChar

StartChar: question
Encoding: 63 63 11
Width: 368
Flags: W
HStem: 1 82<115.726 164.83> 514 75<140.209 261.914>
VStem: 98 64<163.528 236.694> 112 71<18.5719 78.6238> 286 62<391.597 489.8>
LayerCount: 2
Fore
SplineSet
60 421 m 0xe8
 51 421 36 431 36 467 c 0
 36 472 36 477 37 480 c 1
 37 484 l 1
 66 538 157 589 233 589 c 0
 295 589 348 555 348 461 c 0
 348 377 279 318 201 251 c 0
 171 226 162 221 162 216 c 0
 162 210 173 204 173 188 c 0
 173 159 145 135 128 135 c 0
 110 135 98 176 98 195 c 0
 98 231 124 265 178 308 c 0
 240 357 286 402 286 444 c 0
 286 473 258 514 204 514 c 0
 166 514 125 494 100 459 c 1
 94 445 76 421 60 421 c 0xe8
135 1 m 0
 124 1 112 19 112 48 c 0
 112 52 113 56 113 59 c 0
 115 74 135 82 158 83 c 1
 161 83 l 2
 177 83 183 75 183 65 c 0xd8
 183 40 153 1 135 1 c 0
EndSplineSet
Validated: 1
EndChar

StartChar: A
Encoding: 65 65 12
Width: 558
Flags: W
VStem: 19 64<-100.985 -5.56763> 475 66<-40.3445 30.1588>
LayerCount: 2
Fore
SplineSet
42 -110 m 0
 27 -110 19 -93 19 -65 c 0
 19 -57 20 -51 21 -48 c 0
 200 424 228 493 249 560 c 0
 254 575 276 585 295 585 c 0
 306 585 315 582 318 575 c 0
 334 547 395 414 429 333 c 0
 467 244 541 21 541 12 c 2
 541 8 l 2
 541 -15 515 -56 494 -56 c 0
 486 -56 480 -51 475 -38 c 0
 467 -18 448 53 424 129 c 1
 385 122 259 97 123 50 c 1
 102 -12 84 -71 83 -72 c 0
 76 -88 58 -110 42 -110 c 0
279 470 m 1
 269 446 159 152 152 132 c 1
 186 140 186 140 401 201 c 1
 377 271 360 315 279 470 c 1
EndSplineSet
Validated: 1
EndChar

StartChar: B
Encoding: 66 66 13
Width: 508
Flags: W
HStem: -104 81<34.028 78 149 239.562> 261 77<135 266.032> 512 76<144.811 342.498>
VStem: 71 63<33.7416 265.453 338 484.292> 78 71<-21 216.359> 379 61<398.409 477.794> 428 63<68.1839 218.642>
LayerCount: 2
Fore
SplineSet
31 -60 m 0xe2
 31 -46 31 -26 76 -23 c 1
 78 -23 l 1xea
 77 30 72 192 71 259 c 0
 71 322 72 436 74 486 c 1
 64 484 54 481 45 479 c 0
 44 479 42 478 41 478 c 0
 27 478 17 502 17 525 c 0
 17 535 17 553 56 560 c 0
 127 572 203 588 268 588 c 0
 363 588 436 559 440 465 c 1
 440 457 l 2xf4
 440 398 418 364 380 340 c 1
 425 327 491 295 491 157 c 0
 491 -15 330 -93 56 -104 c 1
 54 -104 l 2
 40 -104 31 -83 31 -60 c 0xe2
379 435 m 0xe4
 379 436 379 512 252 512 c 0
 217 512 180 507 144 500 c 1
 140 477 136 408 135 338 c 1
 153 341 170 342 186 344 c 0
 294 360 379 387 379 435 c 0xe4
428 135 m 0xea
 428 195 404 278 270 278 c 0
 228 278 180 271 134 261 c 1xf2
 135 194 149 -5 149 -20 c 2
 149 -21 l 1
 291 -14 428 19 428 135 c 0xea
EndSplineSet
Validated: 1
EndChar

StartChar: C
Encoding: 67 67 14
Width: 500
Flags: W
HStem: -88 72<159.345 324.496> 511 77<230.874 352.074>
VStem: 14 64<74.2511 278.248> 400 68<418.669 465.248>
LayerCount: 2
Fore
SplineSet
14 152 m 0
 14 288 131 588 312 588 c 0
 425 588 468 485 468 468 c 0
 468 445 442 403 421 403 c 0
 418 403 410 403 400 423 c 0
 382 481 335 511 288 511 c 0
 259 511 231 500 208 478 c 0
 132 404 78 284 78 176 c 0
 78 72 136 -9 219 -15 c 0
 224 -15 229 -16 234 -16 c 0
 317 -16 383 39 413 69 c 0
 416 72 427 81 452 82 c 1
 454 82 l 2
 471 82 477 74 477 64 c 0
 477 46 460 21 455 15 c 0
 438 -3 398 -66 244 -86 c 0
 235 -87 226 -88 217 -88 c 0
 99 -88 14 15 14 152 c 0
EndSplineSet
Validated: 1
EndChar

StartChar: D
Encoding: 68 68 15
Width: 548
Flags: W
HStem: -109 82<34.9358 78 149 219.737> 468 78<25.1411 79.0237> 508 76<152.685 354.74>
VStem: 73 68<12.7714 476.051> 78 71<-23 236.572 289.603 478> 468 62<167.4 384.793>
LayerCount: 2
Fore
SplineSet
43 468 m 0xd4
 33 468 22 486 22 514 c 0
 22 518 23 522 23 525 c 0
 24 536 36 542 50 546 c 0xd4
 130 570 197 583 254 584 c 1
 265 584 l 2
 461 584 530 457 530 300 c 0
 530 210 498 -97 57 -109 c 1
 55 -109 l 2
 41 -109 31 -86 31 -63 c 0
 31 -52 31 -29 78 -27 c 1xac
 77 30 74 184 73 250 c 0
 73 316 77 432 80 477 c 1
 80 478 l 1
 59 471 49 468 43 468 c 0xd4
141 284 m 0
 141 252 149 2 149 -1 c 2
 149 -23 l 1
 380 3 468 126 468 270 c 0
 468 314 463 508 248 508 c 0xac
 219 508 187 505 151 497 c 0
 151 494 141 404 141 284 c 0
EndSplineSet
Validated: 1
EndChar

StartChar: E
Encoding: 69 69 16
Width: 520
Flags: W
HStem: -97 76<119.463 286.963> 255 82<229.806 449.83> 473 21G<31 41> 516 81<225.133 481.785>
VStem: 57 62<-43.5 92.0546> 71 70<303.361 480> 85 61<33.1621 229.518 300 431.959>
LayerCount: 2
Fore
SplineSet
57 -23 m 0xf8
 57 28 84 67 85 167 c 1
 85 207 l 2xf2
 85 354 71 464 71 467 c 0
 70 471 70 476 70 480 c 1
 42 473 41 473 41 473 c 1
 38 473 l 2
 24 473 15 496 15 519 c 0
 15 530 15 547 54 554 c 0
 232 585 348 595 472 597 c 1
 478 597 l 2
 495 597 501 590 501 579 c 0
 501 555 469 516 452 516 c 0
 451 516 427 518 390 518 c 0
 267 518 142 500 141 495 c 0xf4
 143 462 146 384 146 300 c 1
 273 329 442 337 445 337 c 2
 446 337 l 2
 462 337 468 329 468 318 c 0
 468 294 438 255 420 255 c 2
 413 255 l 2
 329 255 224 249 146 224 c 1xf2
 143 65 119 33 119 0 c 0
 119 -19 147 -21 159 -21 c 0
 202 -21 268 5 465 21 c 0
 469 22 473 22 476 22 c 0
 493 22 500 14 500 3 c 0
 500 -21 469 -59 453 -60 c 0
 437 -61 276 -72 174 -93 c 0
 159 -96 147 -97 135 -97 c 0
 78 -97 57 -64 57 -23 c 0xf8
EndSplineSet
Validated: 1
EndChar

StartChar: F
Encoding: 70 70 17
Width: 498
Flags: W
HStem: 247 81<222.871 432.83> 513 82<202.448 460.483>
VStem: 83 76<-53.1168 193.404 298.706 486> 96 63<-27.3457 224.723 293 428.551>
LayerCount: 2
Fore
SplineSet
107 -100 m 0xe0
 91 -100 83 -78 83 -55 c 2
 83 -49 l 1xe0
 84 -3 96 145 96 202 c 0xd0
 96 313 85 483 85 486 c 1
 56 481 48 479 48 479 c 1
 44 479 l 2
 30 479 21 501 21 524 c 0
 21 537 21 554 61 559 c 0
 109 566 244 588 450 595 c 1
 455 595 l 2
 473 595 479 587 479 576 c 0
 479 552 448 513 432 513 c 2
 431 513 l 2
 430 513 412 514 380 514 c 0
 332 514 254 511 155 497 c 1
 155 457 156 373 157 293 c 1
 231 311 319 322 426 328 c 1
 429 328 l 2
 445 328 451 321 451 310 c 0
 451 286 421 247 403 247 c 2
 381 247 l 2
 338 247 237 244 158 218 c 1
 158 187 159 156 159 128 c 0
 159 36 156 -36 150 -54 c 0
 144 -74 124 -100 107 -100 c 0xe0
EndSplineSet
Validated: 1
EndChar

StartChar: G
Encoding: 71 71 18
Width: 548
Flags: W
HStem: -85 75<183.121 336.015> 152 80<271.625 384.615> 176 78<301.705 445> 513 75<232.43 388.061>
VStem: 17 62<100.814 310.329> 453 66<404.614 450.763>
LayerCount: 2
Fore
SplineSet
17 177 m 0xbc
 17 319 108 588 337 588 c 0
 448 588 494 532 518 460 c 0
 518 458 519 456 519 454 c 0
 519 430 493 389 472 389 c 0
 462 389 458 396 453 406 c 0
 428 485 365 513 307 513 c 0
 151 513 79 318 79 198 c 0
 79 74 163 -10 270 -10 c 2
 277 -10 l 1
 373 -7 421 85 445 175 c 1
 436 175 428 176 420 176 c 0xbc
 354 176 303 152 291 152 c 0
 277 152 268 175 268 198 c 0
 268 207 268 227 297 232 c 0xdc
 385 248 386 248 502 254 c 1
 504 254 l 2
 514 254 528 251 528 236 c 0
 528 233 527 230 526 226 c 0
 492 114 431 -85 243 -85 c 0
 108 -85 17 24 17 177 c 0xbc
EndSplineSet
Validated: 1
EndChar

StartChar: H
Encoding: 72 72 19
Width: 470
Flags: W
HStem: -105 21G<46 66> 576 20G<389.5 424.5>
VStem: 26 63<161 517.857> 28 71<-92.0832 80.9238 317.211 564.81> 364 71<346.185 591.781> 378 72<-16.4214 166 238.487 301.5>
LayerCount: 2
Fore
SplineSet
55 -105 m 0xc4
 37 -105 31 -80 31 -59 c 0
 28 28 26 210 26 356 c 0xe4
 26 429 27 493 28 531 c 1
 28 533 l 2
 28 546 29 567 74 569 c 1
 78 569 l 2
 95 569 99 561 99 551 c 0xd0
 99 541 89 433 89 291 c 0
 89 250 90 206 92 161 c 1
 140 179 255 220 381 243 c 1
 379 274 364 557 364 559 c 2
 364 560 l 2
 364 570 365 596 414 596 c 0
 435 596 435 584 435 579 c 0xe8
 438 514 450 74 450 69 c 0
 450 29 449 -5 445 -17 c 0
 439 -37 419 -63 402 -63 c 0
 388 -63 378 -45 378 -20 c 2
 378 -14 l 2
 378 18 383 87 383 166 c 1
 337 163 231 148 96 86 c 1
 102 -24 102 -24 102 -39 c 0
 102 -61 77 -105 55 -105 c 0xc4
EndSplineSet
Validated: 1
EndChar

StartChar: I
Encoding: 73 73 20
Width: 330
Flags: W
HStem: -97 92<33.048 130.925> -70 81<203.754 293 294 301.19> 488 21G<33 41.5> 488 21G<33 41.5> 509 82<198.135 294.906>
VStem: 125 64<11.8801 500> 131 71<3 237.225 268.5 500>
LayerCount: 2
Fore
SplineSet
23 -52 m 0x82
 23 -27 23 -19 131 -5 c 1x82
 129 57 125 215 125 279 c 2
 125 399 l 2
 125 441 125 479 126 500 c 1
 92 496 61 492 44 489 c 0
 43 489 42 488 41 488 c 2
 40 488 l 2xa4
 26 488 16 513 16 536 c 0
 16 539 17 543 17 546 c 0
 19 557 30 563 45 567 c 1
 46 568 l 1
 90 578 240 591 291 591 c 2
 295 591 l 1
 308 590 313 583 313 573 c 0
 313 550 287 514 267 509 c 1
 256 509 l 2
 243 509 221 508 196 506 c 1
 193 465 189 359 189 281 c 2
 189 241 l 1x0c
 191 161 200 46 202 3 c 1
 239 7 274 12 293 12 c 1
 294 11 l 1
 296 11 l 2
 313 11 319 3 319 -8 c 0
 319 -31 292 -66 273 -70 c 1
 270 -70 l 2x4a
 237 -70 87 -88 48 -97 c 1
 47 -97 l 2
 33 -97 23 -75 23 -52 c 0x82
EndSplineSet
Validated: 1
EndChar

StartChar: J
Encoding: 74 74 21
Width: 458
Flags: W
HStem: -88 74<146.461 311.252> 474 81<63.6049 155.135> 515 82<200.1 327.722>
VStem: 13 72<43.8153 153.969> 363 59<30.6534 347.343>
LayerCount: 2
Fore
SplineSet
412 597 m 1xb8
 416 597 l 2
 433 597 439 589 439 578 c 0
 439 557 415 524 397 517 c 1
 412 336 422 228 422 154 c 0
 422 -36 338 -72 230 -86 c 0
 221 -87 211 -88 202 -88 c 0
 102 -88 13 -17 13 92 c 0
 13 112 16 133 22 155 c 0
 24 162 34 175 67 177 c 1
 71 177 l 2
 85 177 92 171 92 159 c 0
 92 152 89 146 89 144 c 0
 86 133 85 122 85 112 c 0
 85 39 146 -14 223 -14 c 0
 238 -14 254 -12 270 -8 c 0
 348 13 363 46 363 98 c 0
 363 121 360 147 358 178 c 0
 351 308 345 365 325 515 c 1xb8
 141 506 87 474 84 474 c 2
 83 474 l 2
 69 474 60 497 60 520 c 0
 60 531 60 547 95 555 c 0xd8
 120 560 218 586 412 597 c 1xb8
EndSplineSet
Validated: 1
EndChar

StartChar: K
Encoding: 75 75 22
Width: 492
Flags: W
HStem: -105 21G<43.5 65>
VStem: 24 63<258 487.427> 28 70<-65 117.115 311.343 379.408 391.551 564.238>
LayerCount: 2
Fore
SplineSet
54 -105 m 0xc0
 33 -105 30 -65 30 -65 c 1
 30 -61 24 206 24 388 c 0xc0
 24 464 25 524 28 545 c 0
 30 560 50 567 73 568 c 1
 77 568 l 2
 91 568 98 563 98 552 c 0xa0
 98 550 97 548 97 546 c 0
 93 512 87 352 87 258 c 1
 135 321 346 503 406 584 c 0
 409 587 419 597 447 599 c 1
 451 599 l 2
 468 599 473 592 473 582 c 0
 473 564 454 536 447 530 c 0
 400 481 283 372 216 308 c 0
 163 256 125 224 125 205 c 0
 125 199 128 195 135 191 c 0
 138 189 458 22 465 18 c 0
 470 15 473 10 473 3 c 0
 473 -21 443 -62 425 -62 c 0
 423 -62 171 72 92 124 c 1
 101 -25 101 -38 101 -40 c 0
 101 -62 76 -105 54 -105 c 0xc0
EndSplineSet
Validated: 1
EndChar

StartChar: L
Encoding: 76 76 23
Width: 492
Flags: W
HStem: -105 21G<51 95.5> -61 81<222.671 451.83>
VStem: 27 62<-1.21481 497.46> 34 70<-18 216.449 317.936 325.181 337.374 567.595>
LayerCount: 2
Fore
SplineSet
59 -105 m 1xd0
 57 -105 l 2
 45 -105 34 -86 34 -60 c 2
 34 -56 l 2xd0
 34 -52 27 146 27 334 c 0
 27 406 28 477 31 535 c 0
 31 544 31 571 81 571 c 0
 96 571 103 565 102 551 c 0
 102 548 89 393 89 271 c 0xe0
 89 256 90 241 90 227 c 0
 92 154 101 36 104 -18 c 1
 160 -9 329 13 444 20 c 1
 447 20 l 2
 463 20 470 12 470 1 c 0
 470 -23 440 -61 422 -61 c 2
 401 -61 l 2
 305 -61 132 -85 59 -105 c 1xd0
EndSplineSet
Validated: 1
EndChar

StartChar: M
Encoding: 77 77 24
Width: 654
Flags: W
VStem: 566 70<-36.5508 128.628>
LayerCount: 2
Fore
SplineSet
44 -117 m 0
 40 -117 20 -115 20 -71 c 0
 20 -66 20 -61 21 -58 c 0
 31 -18 73 207 92 270 c 0
 110 331 160 511 175 551 c 1
 177 564 201 575 221 575 c 0
 233 575 243 571 246 561 c 0
 247 557 320 251 330 196 c 1
 344 239 358 281 370 309 c 0
 398 375 451 550 466 580 c 0
 471 590 493 598 511 598 c 0
 523 598 533 595 535 586 c 0
 550 531 565 418 580 328 c 0
 581 325 636 19 636 14 c 2
 636 13 l 2
 636 -9 612 -51 590 -51 c 0
 576 -51 568 -34 566 -17 c 0
 565 -12 546 155 485 454 c 1
 462 394 435 321 417 275 c 0
 369 153 370 38 328 7 c 0
 324 4 317 -1 310 -1 c 0
 302 -1 294 4 289 23 c 0
 273 78 281 138 203 431 c 1
 182 367 158 289 144 242 c 0
 121 165 92 -58 87 -71 c 0
 81 -91 61 -117 44 -117 c 0
EndSplineSet
Validated: 1
EndChar

StartChar: N
Encoding: 78 78 25
Width: 502
Flags: W
HStem: -105 21G<50.5 72.5>
VStem: 27 63<17.4846 423> 37 70<-68 166.114> 400 72<331.117 595.798> 414 64<106.409 518.17>
LayerCount: 2
Fore
SplineSet
400 566 m 0x90
 400 598 437 600 446 600 c 0
 459 600 471 596 472 585 c 0x90
 474 562 478 428 478 328 c 0x88
 478 305 477 284 477 266 c 0
 472 -4 468 -31 436 -54 c 0
 431 -58 424 -63 417 -63 c 0
 411 -63 405 -59 400 -48 c 0
 397 -44 313 116 93 423 c 1
 91 366 90 302 90 254 c 2
 90 212 l 1xd0
 93 130 107 -1 107 -37 c 0
 107 -58 84 -105 61 -105 c 0
 40 -105 37 -68 37 -68 c 1xa0
 36 -31 27 174 27 246 c 0
 27 249 27 537 31 545 c 0
 33 560 57 569 76 569 c 0
 87 569 96 566 99 561 c 0
 129 520 402 108 405 103 c 1
 411 176 414 232 414 288 c 0xc8
 414 397 400 563 400 566 c 0x90
EndSplineSet
Validated: 1
EndChar

StartChar: O
Encoding: 79 79 26
Width: 638
Flags: W
HStem: -87 76<198.737 397.953> 516 71<259.186 431.031>
VStem: 18 61<92.8483 309.949> 557 61<133.768 342.513>
LayerCount: 2
Fore
SplineSet
18 178 m 0
 18 409 183 587 368 587 c 0
 523 587 610 446 618 271 c 1
 618 254 l 2
 618 69 483 -87 270 -87 c 0
 106 -87 18 17 18 178 c 0
557 230 m 1
 549 371 479 516 354 516 c 0
 286 516 102 468 80 213 c 0
 79 203 79 194 79 185 c 0
 79 35 196 -5 304 -11 c 1
 314 -11 l 2
 423 -11 557 79 557 217 c 2
 557 230 l 1
EndSplineSet
Validated: 1
EndChar

StartChar: P
Encoding: 80 80 27
Width: 518
Flags: W
HStem: 142 78<158 260.295> 509 75<147.83 377.355>
VStem: 439 61<316.68 454.597>
LayerCount: 2
Fore
SplineSet
102 -102 m 0
 84 -102 79 -75 78 -61 c 1
 78 -52 l 2
 78 -2 96 159 96 215 c 0
 96 270 86 421 78 484 c 1
 41 475 41 475 40 475 c 0
 27 477 19 498 19 519 c 0
 19 532 19 549 55 555 c 0
 140 572 219 584 287 584 c 0
 412 584 497 544 500 429 c 1
 500 419 l 2
 500 255 373 171 157 142 c 1
 156 111 153 -33 145 -56 c 0
 139 -76 119 -102 102 -102 c 0
146 498 m 1
 146 495 157 262 158 220 c 1
 270 230 439 255 439 391 c 0
 439 443 410 509 263 509 c 2
 253 509 l 1
 218 508 182 504 146 498 c 1
EndSplineSet
Validated: 1
EndChar

StartChar: Q
Encoding: 81 81 28
Width: 642
Flags: W
HStem: -88 77<198.47 394.306> 516 71<259.186 431.031>
VStem: 18 61<90.5858 309.949> 557 61<130.775 342.513>
LayerCount: 2
Fore
SplineSet
18 178 m 0
 18 409 183 587 368 587 c 0
 523 587 610 446 618 271 c 1
 618 253 l 2
 618 176 595 106 553 49 c 1
 601 -7 612 -19 612 -28 c 0
 612 -51 585 -92 564 -92 c 0
 559 -92 554 -89 550 -83 c 0
 540 -67 520 -41 496 -11 c 1
 437 -59 352 -88 270 -88 c 0
 140 -88 18 -14 18 178 c 0
557 230 m 1
 549 371 479 516 354 516 c 0
 286 516 102 468 80 213 c 0
 79 203 79 194 79 185 c 0
 79 35 196 -5 304 -11 c 1
 315 -11 l 2
 362 -11 414 5 457 36 c 1
 411 89 373 125 372 126 c 0
 366 135 363 149 363 162 c 0
 363 166 364 170 364 173 c 0
 366 188 390 197 410 197 c 0
 420 197 428 195 432 190 c 0
 448 170 482 132 515 93 c 1
 541 128 557 170 557 218 c 2
 557 230 l 1
EndSplineSet
Validated: 1
EndChar

StartChar: R
Encoding: 82 82 29
Width: 524
Flags: W
HStem: -59 80<458.559 485.126> 146 79<150 207.28> 505 77<143.045 361.785>
VStem: 432 62<303.873 441.714>
LayerCount: 2
Fore
SplineSet
97 -102 m 0
 96 -102 74 -101 74 -50 c 0
 74 4 87 152 87 206 c 0
 87 262 82 418 74 481 c 1
 65 479 47 473 47 473 c 2
 45 472 44 472 42 472 c 0
 27 472 18 496 18 519 c 0
 18 530 18 546 50 552 c 0
 100 564 184 582 266 582 c 0
 382 582 494 545 494 405 c 0
 494 254 396 200 290 172 c 1
 369 121 440 48 493 21 c 0
 499 18 502 11 502 4 c 0
 502 -20 475 -59 455 -59 c 0
 423 -59 231 146 151 146 c 2
 150 146 l 1
 150 -33 149 -69 116 -93 c 0
 108 -99 102 -102 97 -102 c 0
432 383 m 1
 426 474 343 505 244 505 c 0
 211 505 176 502 142 496 c 1
 143 429 148 304 149 225 c 1
 268 242 432 240 432 371 c 2
 432 383 l 1
EndSplineSet
Validated: 1
EndChar

StartChar: S
Encoding: 83 83 30
Width: 468
Flags: W
HStem: -84 74<147.327 328.744> 512 73<167.483 326.29>
VStem: 22 63<322.042 436.159> 26 69<35.0361 68.8036> 367 69<418.05 473.715> 388 62<33.4939 140.047>
LayerCount: 2
Fore
SplineSet
22 345 m 0xe4
 22 460 127 585 262 585 c 0
 377 585 435 488 435 473 c 1
 436 471 436 468 436 466 c 0xe8
 436 442 409 402 388 402 c 0xc4
 379 402 371 409 367 428 c 0
 367 429 366 430 366 431 c 0
 357 485 306 512 250 512 c 0
 150 512 85 434 85 376 c 0xe8
 85 303 179 258 264 258 c 2
 277 258 l 2
 334 258 450 248 450 108 c 0
 450 14 372 -84 215 -84 c 0
 147 -84 85 -62 37 -2 c 0
 28 7 25 25 25 39 c 0
 25 43 26 47 26 50 c 0
 28 65 53 73 73 73 c 0
 84 73 93 71 95 66 c 0xd4
 123 7 183 -10 243 -10 c 2
 248 -10 l 1
 304 -9 388 18 388 83 c 0
 388 90 387 97 385 105 c 0
 364 186 286 175 198 185 c 0
 117 194 22 246 22 345 c 0xe4
EndSplineSet
Validated: 1
EndChar

StartChar: T
Encoding: 84 84 31
Width: 422
Flags: W
HStem: 514 80<298.149 491.25>
VStem: 224 76<-37.013 209.404 268.438 506> 237 63<-11.3457 444.291>
LayerCount: 2
Fore
SplineSet
248 -84 m 0xc0
 232 -84 224 -62 224 -39 c 2
 224 -33 l 1xc0
 225 13 237 161 237 218 c 0xa0
 237 351 226 503 226 506 c 1
 144 496 54 470 49 470 c 2
 46 470 l 2
 32 470 23 493 23 516 c 0
 23 527 23 544 62 551 c 0
 240 582 357 592 482 594 c 1
 486 594 l 2
 503 594 509 586 509 575 c 0
 509 551 478 513 460 513 c 0
 459 513 453 514 421 514 c 0
 388 514 340 513 296 511 c 1
 296 455 298 311 299 223 c 0
 299 204 300 175 300 143 c 0
 300 70 298 -18 291 -38 c 0
 285 -58 265 -84 248 -84 c 0xc0
EndSplineSet
Validated: 1
EndChar

StartChar: U
Encoding: 85 85 32
Width: 496
Flags: W
HStem: -86 73<156.913 321.565>
VStem: 24 62<59.2241 362.18> 27 71<314.958 537.996 538 559.763> 27 1<545 546.727> 398 71<331.321 594.363> 411 61<51.8059 365.932>
LayerCount: 2
Fore
SplineSet
411 144 m 2xc4
 411 307 398 564 398 568 c 0
 399 589 423 599 443 599 c 0
 456 599 468 595 469 585 c 0x88
 471 509 472 393 472 292 c 0
 472 221 472 157 471 119 c 0
 469 14 351 -86 213 -86 c 0
 101 -86 24 -11 24 106 c 0xc4
 24 110 28 384 28 493 c 0x90
 28 533 27 538 27 538 c 1
 27 540 l 1xa0
 33 685 35 734 35 734 c 1
 35 734 28 556 28 545 c 1x90
 29 545 29 567 73 569 c 1
 77 569 l 2
 93 569 98 563 98 548 c 0xa0
 95 457 86 196 86 138 c 0
 86 45 154 -13 235 -13 c 0
 252 -13 269 -10 286 -5 c 0
 388 25 409 59 411 121 c 1
 411 144 l 2xc4
EndSplineSet
Validated: 1
EndChar

StartChar: V
Encoding: 86 86 33
Width: 566
Flags: W
VStem: 477 70<512.773 597.922>
LayerCount: 2
Fore
SplineSet
522 602 m 1
 525 602 l 2
 533 602 547 601 547 585 c 0
 547 582 476 337 449 260 c 0
 448 256 331 -45 289 -76 c 0
 281 -82 274 -84 269 -84 c 0
 259 -84 255 -76 253 -69 c 0
 246 -48 128 276 28 497 c 0
 24 506 21 518 21 529 c 0
 21 534 21 538 22 542 c 0
 24 557 48 567 68 567 c 0
 79 567 89 564 92 556 c 0
 97 545 289 58 291 53 c 1
 330 129 379 232 398 283 c 0
 432 376 477 575 477 578 c 0
 479 593 499 601 522 602 c 1
EndSplineSet
Validated: 1
EndChar

StartChar: W
Encoding: 87 87 34
Width: 674
Flags: W
VStem: 20 71<442.535 557.689> 300 70<410.792 502.796> 584 71<447.514 601.862>
LayerCount: 2
Fore
SplineSet
630 606 m 1
 634 606 l 2
 649 606 656 601 655 589 c 0
 655 583 604 184 524 -19 c 0
 516 -43 496 -66 480 -66 c 0
 471 -66 463 -59 459 -43 c 0
 439 22 343 315 342 319 c 1
 320 194 286 57 238 -61 c 0
 228 -83 211 -100 197 -100 c 0
 189 -100 182 -94 178 -82 c 0
 104 147 20 513 20 527 c 0
 20 549 33 560 66 562 c 0
 78 563 89 560 91 550 c 0
 134 335 151 261 215 59 c 1
 237 121 258 190 267 233 c 0
 283 312 299 481 300 484 c 0
 303 498 326 507 345 507 c 0
 357 507 368 503 370 494 c 0
 388 415 403 358 495 94 c 1
 518 167 541 253 550 299 c 0
 563 368 581 522 584 574 c 0
 584 583 585 604 630 606 c 1
EndSplineSet
Validated: 1
EndChar

StartChar: X
Encoding: 88 88 35
Width: 504
Flags: W
LayerCount: 2
Fore
SplineSet
54 -108 m 0
 39 -108 30 -85 30 -62 c 0
 30 -54 31 -46 33 -44 c 0
 51 -14 165 194 210 271 c 1
 144 358 32 497 32 497 c 2
 26 506 23 520 23 533 c 0
 23 537 24 541 24 544 c 0
 26 559 50 568 70 568 c 0
 81 568 89 566 93 560 c 0
 114 529 195 424 255 344 c 1
 257 346 400 572 410 583 c 0
 417 593 434 598 452 599 c 1
 455 599 l 2
 472 599 478 591 478 581 c 0
 478 562 459 536 459 536 c 1
 441 514 349 382 292 295 c 1
 352 214 458 47 477 15 c 1
 480 12 481 8 481 3 c 0
 481 -20 454 -62 433 -62 c 0
 427 -62 422 -58 417 -50 c 0
 401 -21 289 158 246 221 c 1
 197 136 111 -37 93 -70 c 0
 87 -83 70 -108 54 -108 c 0
EndSplineSet
Validated: 1
EndChar

StartChar: Y
Encoding: 89 89 36
Width: 504
Flags: W
VStem: 20 69<532.188 563.745> 216 61<-28.4193 266.894> 223 71<-67.7287 144.622> 417 68<547.281 582>
LayerCount: 2
Fore
SplineSet
294 -13 m 2xb0
 294 -19 l 2
 294 -42 268 -83 247 -83 c 0
 224 -83 223 -42 223 -35 c 0xb0
 222 0 216 76 216 148 c 0xd0
 216 188 218 226 223 255 c 1xb0
 166 306 50 439 25 501 c 0
 21 510 19 522 19 532 c 0
 19 536 19 540 20 544 c 0
 22 559 46 568 65 568 c 0
 77 568 87 565 89 557 c 0
 112 476 203 379 259 332 c 1
 310 414 406 557 417 582 c 1
 417 582 425 597 460 599 c 1
 464 599 l 2
 479 599 485 593 485 582 c 0
 485 574 482 562 475 549 c 0
 456 513 310 325 286 268 c 0
 280 253 277 229 277 203 c 0xd0
 277 133 294 36 294 -13 c 2xb0
EndSplineSet
Validated: 1
EndChar

StartChar: Z
Encoding: 90 90 37
Width: 528
Flags: W
HStem: -59 82<305.603 487.967> 479 82<23.5859 175.763> 516 82<233.188 390>
LayerCount: 2
Fore
SplineSet
458 -59 m 2xa0
 330 -59 46 -109 42 -109 c 2
 41 -109 l 2
 26 -109 19 -84 19 -64 c 0
 19 -55 20 -47 23 -43 c 0
 44 -3 159 187 209 258 c 0
 249 314 336 439 390 516 c 1xa0
 336 514 263 511 228 507 c 0
 133 497 45 479 43 479 c 0
 29 479 20 502 20 525 c 0
 20 537 20 557 61 561 c 0xc0
 82 564 190 581 479 598 c 1
 483 598 l 2
 499 598 504 591 504 581 c 0
 504 564 487 539 485 536 c 0
 461 506 318 318 264 240 c 0
 224 183 152 54 110 -21 c 1
 166 -14 241 -6 285 -1 c 0
 302 1 476 23 480 23 c 2
 483 23 l 2
 500 23 506 15 506 4 c 0
 506 -20 476 -59 459 -59 c 2
 458 -59 l 2xa0
EndSplineSet
Validated: 1
EndChar

StartChar: e
Encoding: 101 101 38
Width: 422
Flags: W
HStem: -15 76<84.1383 238.87> 18 81<222.377 390.92> 231 82<160.344 364.83> 415 81<148.254 392>
VStem: 21 62<37.5 174.624> 49 63<280 379>
LayerCount: 2
Fore
SplineSet
21 58 m 0xb8
 21 109 48 149 49 249 c 1
 49 259 l 2
 49 329 39 379 38 379 c 2
 36 379 l 2
 22 379 12 402 12 425 c 0
 12 436 12 454 54 460 c 0
 112 469 249 493 383 496 c 1
 387 496 l 2
 404 496 410 488 410 477 c 0
 410 453 378 414 362 414 c 0
 361 414 341 415 311 415 c 0
 258 415 187 411 110 395 c 1
 111 372 112 344 112 314 c 2
 112 280 l 1xb4
 181 297 209 304 358 313 c 1
 361 313 l 2
 377 313 383 305 383 294 c 0
 383 270 353 231 335 231 c 2
 333 231 l 1
 324 232 310 233 290 233 c 0
 247 233 181 228 106 203 c 1
 102 167 83 96 83 81 c 0
 83 70 92 61 121 61 c 0xb8
 144 61 321 99 386 99 c 0
 403 99 410 92 410 81 c 0
 410 57 378 18 361 18 c 2
 360 18 l 1x78
 343 17 232 10 135 -10 c 0
 120 -13 107 -15 95 -15 c 0
 41 -15 21 17 21 58 c 0xb8
EndSplineSet
Validated: 1
EndChar

StartChar: f
Encoding: 102 102 39
Width: 401
Flags: W
HStem: 232 81<156.002 348.83> 414 81<121.735 369.057>
VStem: 46 74<-0.0676422 214.441 284.412 387> 58 62<33.8666 215.937 284 384.875>
LayerCount: 2
Fore
SplineSet
356 495 m 1xd0
 363 495 l 2
 381 495 388 487 388 476 c 0
 388 452 356 414 340 414 c 2
 339 414 l 1
 333 415 318 416 295 416 c 0
 258 416 198 413 118 400 c 1
 118 367 119 331 120 284 c 1xd0
 136 288 154 291 191 297 c 0
 193 297 310 311 341 313 c 1
 344 313 l 2
 360 313 367 305 367 294 c 0
 367 270 337 232 319 232 c 2
 295 232 l 2
 258 232 182 230 120 210 c 1
 120 154 l 2
 120 35 113 8 87 -11 c 0
 79 -17 73 -19 68 -19 c 0
 50 -19 47 10 46 20 c 0xe0
 46 23 45 27 45 32 c 0
 45 71 58 163 58 217 c 0
 58 275 57 342 49 387 c 1
 36 384 33 384 26 392 c 0
 18 401 15 418 15 432 c 0
 15 436 16 440 16 443 c 0
 19 463 35 467 188 483 c 0
 252 490 326 494 356 495 c 1xd0
EndSplineSet
Validated: 1
EndChar

StartChar: g
Encoding: 103 103 40
Width: 476
Flags: W
HStem: -4 75<146.172 295.77> 176 78<249.18 365> 414 72<175.211 332.691>
VStem: 11 65<142.39 301.695> 366 67<344.882 382.084>
LayerCount: 2
Fore
SplineSet
260 414 m 0
 170 414 85 353 76 224 c 1
 76 216 l 2
 76 135 146 71 210 71 c 0
 272 71 328 88 365 176 c 1
 357 176 l 2
 298 176 245 156 245 156 c 1
 244 156 l 2
 230 156 220 179 220 202 c 0
 220 217 222 226 248 235 c 0
 271 243 435 254 439 254 c 0
 456 254 461 246 461 236 c 0
 461 219 446 196 441 190 c 1
 441 190 438 179 434 171 c 0
 399 99 364 16 219 -2 c 0
 210 -3 201 -4 193 -4 c 0
 78 -4 11 97 11 199 c 0
 11 294 88 486 276 486 c 0
 389 486 433 424 433 394 c 0
 433 371 407 329 386 329 c 0
 378 329 371 334 366 348 c 0
 348 397 304 414 260 414 c 0
EndSplineSet
Validated: 1
EndChar

StartChar: h
Encoding: 104 104 41
Width: 405
Flags: W
HStem: 453 20G<52.5 83>
VStem: 23 63<107.889 450.415> 30 70<-9.99176 111.003 268.953 306.38 312.339 469.785> 288 70<461.141 490.351> 320 65<30.8866 172 246.227 384.444>
LayerCount: 2
Fore
SplineSet
97 457 m 0xc0
 97 455 86 370 86 264 c 0
 86 239 86 213 88 187 c 1
 103 193 209 231 319 250 c 1
 312 365 287 424 287 461 c 0
 287 464 288 467 288 470 c 0
 290 485 315 495 334 495 c 0
 346 495 356 491 358 481 c 0xd0
 373 400 385 255 385 155 c 0
 385 110 383 74 377 57 c 0
 371 37 351 11 334 11 c 0
 318 11 310 33 310 56 c 2
 310 62 l 2
 310 89 318 115 320 172 c 1
 262 168 185 154 94 113 c 1
 98 70 100 52 100 41 c 0
 100 11 73 -25 53 -25 c 0
 33 -25 33 8 30 11 c 1
 30 22 l 1xa8
 26 141 23 233 23 310 c 0
 23 360 24 403 27 446 c 0
 28 454 33 471 72 473 c 1
 76 473 l 2
 90 473 97 469 97 457 c 0xc0
EndSplineSet
Validated: 1
EndChar

StartChar: i
Encoding: 105 105 42
Width: 322
Flags: W
HStem: -14 80<20.6083 123.504> 13 82<197.732 295.104> 409 82<189.216 288.906>
VStem: 120 62<88.7455 399.487>
LayerCount: 2
Fore
SplineSet
17 32 m 0xb0
 17 65 46 66 51 66 c 0xb0
 66 69 93 74 125 78 c 1
 123 124 121 204 120 266 c 0
 120 316 120 364 121 400 c 1
 86 396 55 392 38 389 c 0
 37 389 36 388 35 388 c 2
 34 388 l 2
 20 388 10 413 10 436 c 0
 10 448 11 459 39 467 c 1
 40 468 l 1
 84 478 234 491 285 491 c 2
 289 491 l 1
 302 490 307 483 307 473 c 0
 307 450 281 414 261 409 c 1
 250 409 l 2
 236 409 214 408 188 406 c 1
 185 372 182 326 182 279 c 0
 182 176 194 124 196 87 c 1
 233 91 267 95 286 95 c 2
 290 95 l 2
 307 95 313 87 313 76 c 0
 313 52 283 13 267 13 c 2
 264 13 l 2x70
 231 13 81 -5 42 -14 c 1
 41 -14 l 2
 26 -14 17 8 17 32 c 0xb0
EndSplineSet
Validated: 1
Substitution2: "'xxxx' i to i.medial-1" i.medial
EndChar

StartChar: j
Encoding: 106 106 43
Width: 362
Flags: W
HStem: -2 73<110.141 254.49> 391 81<68.9023 225.766> 411 78<84.0735 234.32>
VStem: 16 74<93.4 183.828> 276 62<88.7888 294.699>
LayerCount: 2
Fore
SplineSet
276 147 m 0xd8
 276 193 247 343 229 411 c 1xb8
 160 411 91 391 90 391 c 2
 89 391 l 2
 75 391 65 414 65 437 c 0
 65 448 65 468 105 472 c 0xd8
 168 484 235 489 311 489 c 2
 333 489 l 2xb8
 343 489 347 482 347 472 c 0
 347 451 328 416 305 408 c 1
 331 250 338 204 338 170 c 0
 338 156 337 145 335 128 c 0
 328 54 250 -2 165 -2 c 0
 83 -2 16 59 16 128 c 0
 16 141 18 154 23 167 c 0
 26 182 46 190 68 191 c 1
 70 191 l 2
 78 191 94 191 94 174 c 0
 94 165 90 158 90 140 c 0
 90 91 132 71 181 71 c 0
 269 71 276 111 276 147 c 0xd8
EndSplineSet
Validated: 1
EndChar

StartChar: k
Encoding: 107 107 44
Width: 380
Flags: W
HStem: 10 80<316.692 347.897> 453 20G<51.5 84.5>
VStem: 24 62<254 433.526> 31 70<-9.34617 133.306 257.57 296.039 301.105 469.763>
LayerCount: 2
Fore
SplineSet
55 -24 m 0xd0
 42 -24 31 -9 31 19 c 2
 31 25 l 1xd0
 26 163 24 236 24 299 c 0
 24 344 25 383 28 436 c 1
 28 438 l 2
 28 451 29 471 74 473 c 1
 78 473 l 2
 91 473 99 469 99 458 c 0
 99 456 98 454 98 452 c 0
 95 416 86 330 86 254 c 1xe0
 105 283 141 307 209 376 c 0
 270 437 302 483 303 484 c 0
 315 494 337 496 345 496 c 0
 360 496 366 490 366 479 c 0
 366 467 361 449 346 432 c 0
 232 301 132 237 132 216 c 0
 132 210 137 206 147 200 c 0
 166 188 357 91 359 90 c 0
 365 87 367 82 367 75 c 0
 367 51 337 10 319 10 c 0
 317 10 315 11 313 12 c 0
 233 68 95 135 93 136 c 1
 99 78 101 54 101 41 c 0
 101 10 73 -24 55 -24 c 0xd0
EndSplineSet
Validated: 1
EndChar

StartChar: l
Encoding: 108 108 45
Width: 364
Flags: W
HStem: -10 74<71 245.337> 14 81<178.076 332.967> 454 20G<72.5 87>
VStem: 25 63<67.0763 445.006> 36 71<220.938 469.111>
LayerCount: 2
Fore
SplineSet
117 64 m 0xb0
 127 64 271 91 321 95 c 1
 327 95 l 2
 345 95 351 87 351 76 c 0
 351 52 321 14 304 14 c 2
 303 14 l 1x70
 298 13 227 17 131 -5 c 0
 116 -8 103 -10 92 -10 c 0
 50 -10 37 14 33 64 c 0
 27 130 25 172 25 218 c 0xb0
 25 272 28 331 36 439 c 0
 36 443 37 447 37 450 c 0
 39 464 63 474 82 474 c 0
 92 474 107 472 107 457 c 0xa8
 107 449 88 321 88 216 c 0
 88 200 88 184 89 170 c 0
 95 86 93 64 117 64 c 0xb0
EndSplineSet
Validated: 1
EndChar

StartChar: m
Encoding: 109 109 46
Width: 547
Flags: W
VStem: 465 71<35.8994 213.357>
LayerCount: 2
Fore
SplineSet
37 -33 m 0
 24 -33 14 -13 14 14 c 0
 14 23 58 208 74 262 c 0
 75 264 136 452 143 459 c 1
 148 468 170 477 187 477 c 0
 198 477 208 473 211 464 c 0
 254 328 254 328 281 225 c 1
 305 288 373 442 387 474 c 0
 392 487 415 497 434 497 c 0
 445 497 455 493 457 485 c 0
 458 481 536 130 536 85 c 0
 536 63 511 20 489 20 c 0
 474 20 466 42 465 58 c 0
 459 97 456 165 434 264 c 0
 424 310 414 345 407 372 c 1
 290 138 328 93 280 58 c 0
 272 52 267 49 262 49 c 0
 258 49 246 52 240 81 c 0
 232 113 235 133 207 228 c 0
 192 278 179 319 168 351 c 1
 66 106 110 17 55 -24 c 0
 47 -30 42 -33 37 -33 c 0
EndSplineSet
Validated: 1
EndChar

StartChar: n
Encoding: 110 110 47
Width: 410
Flags: W
VStem: 24 63<23.2178 339> 30 71<-9.13086 246.477> 311 77<274.902 492.043> 325 63<164.383 487.704>
LayerCount: 2
Fore
SplineSet
101 45 m 2x40
 101 40 l 2
 101 18 76 -25 54 -25 c 0
 44 -25 30 -12 30 18 c 2
 30 24 l 1x40
 27 117 24 206 24 289 c 0
 24 341 25 390 28 437 c 0
 28 450 28 472 74 474 c 0
 86 475 93 471 97 466 c 0
 184 349 185 349 320 163 c 1
 324 201 325 236 325 270 c 0x90
 325 375 311 453 311 455 c 2
 311 461 l 2
 311 475 316 496 361 496 c 0
 366 496 380 496 382 482 c 0
 386 447 388 383 388 314 c 0
 388 215 384 106 376 68 c 0
 371 44 350 11 331 11 c 0
 326 11 321 14 317 19 c 0
 316 19 315 19 315 20 c 0
 299 52 232 144 192 204 c 0
 168 239 124 295 89 339 c 1
 87 306 87 277 87 252 c 0xa0
 87 133 101 89 101 45 c 2x40
EndSplineSet
Validated: 1
EndChar

StartChar: o
Encoding: 111 111 48
Width: 533
Flags: W
HStem: -6 75<154.041 348.986> 414 73<206.535 361.528>
VStem: 16 61<137.347 294.99> 456 61<150.66 309.13>
LayerCount: 2
Fore
SplineSet
16 194 m 0
 16 367 172 487 310 487 c 0
 440 487 517 373 517 255 c 0
 517 118 417 -6 221 -6 c 0
 74 -6 16 81 16 194 c 0
291 414 m 0
 224 414 77 355 77 209 c 0
 77 111 162 70 254 69 c 1
 257 69 l 2
 351 69 456 117 456 219 c 2
 456 229 l 1
 450 331 374 414 291 414 c 0
EndSplineSet
Validated: 1
EndChar

StartChar: p
Encoding: 112 112 49
Width: 413
Flags: W
HStem: 152 78<113 222.693> 408 75<111.383 306.956>
VStem: 50 63<28.8205 154.509 230 381.874> 337 63<285.684 379.278>
LayerCount: 2
Fore
SplineSet
6 427 m 0
 6 437 6 457 47 462 c 0
 118 475 180 483 232 483 c 0
 337 483 397 450 400 359 c 1
 400 353 l 2
 400 228 299 178 113 152 c 1
 113 50 111 8 79 -15 c 0
 71 -21 65 -23 60 -23 c 0
 42 -23 38 5 37 16 c 0
 37 19 36 23 36 27 c 0
 36 65 50 157 50 212 c 0
 50 271 48 339 40 384 c 1
 36 382 33 381 30 381 c 0
 14 381 6 406 6 427 c 0
216 408 m 0
 185 408 150 404 110 396 c 1
 110 353 111 302 112 230 c 1
 218 236 337 255 337 329 c 0
 337 362 319 408 216 408 c 0
EndSplineSet
Validated: 1
EndChar

StartChar: q
Encoding: 113 113 50
Width: 533
Flags: W
HStem: -7 76<153.486 344.941> 414 73<206.535 362.585>
VStem: 16 61<135.869 294.99> 456 61<148.749 310.395>
LayerCount: 2
Fore
SplineSet
16 194 m 0
 16 367 172 487 310 487 c 0
 442 487 517 373 517 255 c 0
 517 203 502 149 471 106 c 1
 502 75 511 66 511 55 c 0
 511 38 488 -8 464 -8 c 0
 458 -8 452 -4 447 4 c 0
 437 18 425 32 411 47 c 1
 366 16 293 -7 222 -7 c 0
 117 -7 16 44 16 194 c 0
291 414 m 0
 224 414 77 355 77 209 c 0
 77 109 166 69 254 69 c 0
 294 69 334 77 366 92 c 1
 349 107 314 137 314 138 c 0
 306 147 303 164 303 178 c 0
 303 182 304 186 304 189 c 0
 306 204 331 212 350 212 c 0
 360 212 369 210 372 206 c 0
 388 188 410 166 432 144 c 1
 448 167 456 194 456 223 c 0
 456 313 383 414 291 414 c 0
EndSplineSet
Validated: 1
EndChar

StartChar: r
Encoding: 114 114 51
Width: 428
Flags: W
HStem: 155 79<123 180.164> 409 77<121.886 311.12>
VStem: 60 63<33.9113 155 234 382.875> 346 63<279.151 377.571>
LayerCount: 2
Fore
SplineSet
368 14 m 0
 342 14 187 155 123 155 c 1
 123 52 120 11 89 -12 c 0
 81 -18 75 -20 70 -20 c 0
 48 -20 47 25 47 32 c 0
 47 72 60 162 60 215 c 0
 60 273 58 340 50 385 c 1
 47 384 45 384 42 384 c 0
 21 384 17 411 17 428 c 0
 17 436 18 441 18 441 c 2
 19 446 23 459 51 464 c 0
 116 477 177 486 230 486 c 0
 337 486 409 451 409 357 c 0
 409 253 354 212 259 184 c 1
 378 107 410 92 411 91 c 0
 414 88 415 83 415 78 c 0
 415 55 389 14 368 14 c 0
212 409 m 0
 184 409 153 406 120 400 c 1
 120 357 121 306 122 234 c 1
 228 248 346 242 346 327 c 0
 346 347 341 409 212 409 c 0
EndSplineSet
Validated: 1
EndChar

StartChar: s
Encoding: 115 115 52
Width: 358
Flags: W
HStem: -5 74<103.841 257.375> 181 72<92.123 261.642> 411 75<129.078 250.994>
VStem: 8 63<274.55 366.614> 18 69<87.1413 116.745> 269 70<345.689 392.789> 284 61<90.7317 158.952>
LayerCount: 2
Fore
SplineSet
8 290 m 0xf2
 8 381 90 481 213 486 c 1
 220 486 l 2
 324 486 338 402 338 400 c 0
 339 398 339 395 339 393 c 0
 339 369 312 330 291 330 c 0
 281 330 273 339 269 363 c 0
 263 392 225 411 185 411 c 0
 115 411 71 354 71 316 c 0xf4
 71 276 116 253 166 253 c 0
 187 253 199 258 223 258 c 0
 252 258 345 249 345 143 c 0
 345 21 215 -5 156 -5 c 0
 116 -5 66 6 29 46 c 0
 21 55 17 72 17 87 c 0
 17 90 18 94 18 97 c 0
 20 112 44 121 63 121 c 0
 74 121 84 118 87 112 c 0xea
 105 76 142 69 173 69 c 0
 180 69 186 70 192 70 c 0
 219 72 284 84 284 120 c 0
 284 121 281 181 193 181 c 0
 171 181 148 178 126 178 c 0
 120 178 115 179 110 179 c 0
 63 183 8 220 8 290 c 0xf2
EndSplineSet
Validated: 1
EndChar

StartChar: t
Encoding: 116 116 53
Width: 404
Flags: W
HStem: 414 81<218.408 371.057>
VStem: 143 76<33.9365 220.442 229.398 404> 157 62<37.4012 407.857>
LayerCount: 2
Fore
SplineSet
168 -12 m 0xc0
 144 -12 143 29 143 39 c 0xc0
 143 78 157 169 157 223 c 0xa0
 156 361 145 402 145 404 c 1
 89 396 40 385 39 385 c 0
 26 386 17 409 17 431 c 0
 17 462 18 465 190 483 c 0
 255 490 331 494 360 495 c 1
 366 495 l 2
 383 495 390 488 390 477 c 0
 390 453 358 414 342 414 c 2
 341 414 l 2
 337 414 322 415 303 415 c 0
 279 415 247 414 217 412 c 0
 217 410 219 313 219 218 c 0
 219 134 218 52 211 33 c 0
 202 7 184 -12 168 -12 c 0xc0
EndSplineSet
Validated: 1
EndChar

StartChar: u
Encoding: 117 117 54
Width: 385
Flags: W
HStem: -5 78<116.078 246.495> 455 20G<62 84>
VStem: 20 62<111.126 432.109> 28 69<243.449 471> 285 74<233.334 491.451> 295 62<108.3 494.219>
LayerCount: 2
Fore
SplineSet
166 74 m 0xe0
 243 84 277 111 293 115 c 1
 293 146 294 186 295 244 c 1
 295 272 l 2xe4
 295 348 290 409 286 443 c 0
 285 453 284 464 285 472 c 0
 287 486 312 496 331 496 c 0
 345 496 356 491 356 479 c 0
 356 456 359 427 359 396 c 0xc8
 359 348 357 295 357 243 c 0
 357 182 359 124 368 84 c 0
 368 82 369 80 369 78 c 0
 369 53 341 13 320 13 c 0
 311 13 303 20 299 39 c 1
 282 30 261 9 161 -4 c 0
 154 -5 148 -5 142 -5 c 0
 58 -5 20 75 20 188 c 2
 20 204 l 1xe4
 27 450 27 450 28 453 c 0
 32 467 51 474 73 475 c 1
 77 475 l 2
 91 475 97 470 97 458 c 2
 97 453 l 1xd0
 94 423 83 334 82 239 c 0
 82 148 101 73 157 73 c 0
 160 73 163 74 166 74 c 0xe0
EndSplineSet
Validated: 1
EndChar

StartChar: v
Encoding: 118 118 55
Width: 469
Flags: W
VStem: 381 70<417.489 494.969>
LayerCount: 2
Fore
SplineSet
426 499 m 1
 429 499 l 2
 437 499 451 498 451 482 c 0
 451 476 450 468 445 458 c 0
 431 421 398 316 367 241 c 0
 335 164 294 80 251 16 c 0
 244 5 229 -8 217 -8 c 0
 209 -8 203 -3 198 11 c 0
 195 18 133 177 19 406 c 0
 16 414 14 425 14 434 c 0
 14 438 14 443 15 446 c 0
 17 461 40 470 60 470 c 0
 71 470 81 467 85 460 c 0
 87 457 179 244 238 119 c 1
 295 213 335 288 381 475 c 0
 382 479 387 497 426 499 c 1
EndSplineSet
Validated: 1
EndChar

StartChar: w
Encoding: 119 119 56
Width: 558
Flags: W
VStem: 15 69<432.141 461.634> 241 69<364.75 447.745> 477 71<369.372 498.729>
LayerCount: 2
Fore
SplineSet
477 472 m 0
 478 493 501 503 521 503 c 0
 526 503 548 502 548 485 c 0
 548 478 529 371 499 240 c 0
 480 157 468 122 438 52 c 0
 429 30 412 10 397 10 c 0
 389 10 381 16 376 32 c 0
 375 34 286 268 282 279 c 1
 257 158 233 87 203 18 c 0
 193 -4 176 -19 162 -19 c 0
 154 -19 148 -14 144 -3 c 0
 131 33 109 92 77 199 c 0
 24 378 14 413 14 432 c 0
 14 435 15 439 15 442 c 0
 17 457 42 466 61 466 c 0
 73 466 82 463 84 456 c 0
 129 268 137 236 178 127 c 1
 194 168 209 212 218 252 c 0
 233 320 241 426 241 428 c 0
 243 443 267 452 286 452 c 0
 298 452 308 449 310 441 c 0
 336 343 348 301 411 154 c 1
 455 272 467 364 477 472 c 0
EndSplineSet
Validated: 1
EndChar

StartChar: x
Encoding: 120 120 57
Width: 380
Flags: W
HStem: 454 20G<53.5 68>
LayerCount: 2
Fore
SplineSet
230 276 m 1
 231 274 366 90 366 73 c 0
 366 50 340 8 319 8 c 0
 314 8 309 11 305 16 c 0
 303 17 262 89 184 203 c 1
 151 147 73 1 71 -1 c 0
 60 -17 50 -23 41 -23 c 0
 26 -23 16 -2 16 22 c 0
 16 26 16 30 17 34 c 0
 18 38 17 37 147 252 c 1
 146 253 52 372 27 399 c 0
 19 408 16 425 16 439 c 0
 16 443 17 447 17 450 c 0
 19 466 44 474 63 474 c 0
 73 474 82 471 85 467 c 0
 104 439 146 386 193 325 c 1
 233 385 283 455 298 478 c 0
 305 488 322 495 341 496 c 1
 344 496 l 2
 360 496 366 489 366 479 c 0
 366 461 348 435 348 435 c 1
 330 413 275 341 230 276 c 1
EndSplineSet
Validated: 1
EndChar

StartChar: y
Encoding: 121 121 58
Width: 375
Flags: W
HStem: 455 20G<49 65.5>
VStem: 15 71<422.281 470.148> 294 66<439.139 492.878>
LayerCount: 2
Fore
SplineSet
124 -13 m 0
 118 -13 101 -6 101 34 c 0
 101 39 101 44 102 47 c 0
 102 48 103 47 103 48 c 0
 117 78 147 160 174 227 c 1
 149 245 123 264 93 298 c 0
 92 299 17 387 17 422 c 0
 17 428 15 433 15 438 c 0
 15 464 39 475 59 475 c 0
 72 475 84 470 86 463 c 0
 89 447 128 359 207 304 c 1
 208 306 293 479 294 480 c 0
 301 490 318 495 336 496 c 1
 339 496 l 2
 351 496 360 491 360 478 c 0
 360 446 277 331 230 219 c 0
 181 101 178 22 143 -4 c 0
 135 -10 129 -13 124 -13 c 0
EndSplineSet
Validated: 1
EndChar

StartChar: z
Encoding: 122 122 59
Width: 405
Flags: W
HStem: 16 81<184.181 372.967> 384 98<37.625 165.083> 414 80<114.25 276>
LayerCount: 2
Fore
SplineSet
110 67 m 1xa0
 113 67 363 97 366 97 c 2
 369 97 l 2
 385 97 391 89 391 78 c 0
 391 54 361 16 344 16 c 2
 343 16 l 2
 340 16 164 9 43 -21 c 0
 41 -21 39 -22 38 -22 c 0
 21 -22 14 8 14 27 c 0
 14 43 14 45 164 256 c 0
 198 303 241 364 276 414 c 1xa0
 160 412 41 384 39 384 c 0
 25 385 16 407 16 430 c 0
 16 460 16 464 189 482 c 0xc0
 253 489 328 493 358 494 c 0
 361 494 364 495 366 495 c 0
 383 495 389 487 389 477 c 0
 389 459 371 433 371 433 c 1
 246 282 183 186 110 67 c 1xa0
EndSplineSet
Validated: 1
EndChar

StartChar: numbersign
Encoding: 35 35 60
Width: 490
Flags: W
HStem: 76 81<27.659 126.315> 100 73<195 300.723> 116 81<374.889 450.353> 116 74<196.708 304 374 450.353> 280 86<32.9023 129.536> 316 81<365.956 446.353> 316 72<364 446.353>
VStem: 119 68<-83.2117 87.4242> 132 64<-48.538 90 173 291 370 537.933> 301 63<190 307 388 585.742> 303 71<394.49 586.766> 307 79<-56.09 108.859>
LayerCount: 2
Fore
SplineSet
29 326 m 0x8910
 29 353 32 362 132 366 c 1
 132 383 130 476 125 541 c 0
 125 553 125 574 171 577 c 1
 175 577 l 2
 186 577 196 573 196 561 c 2
 196 370 l 1
 234 373 254 375 301 381 c 1x88c0
 301 442 301 506 303 553 c 1
 303 554 l 2
 303 565 304 591 353 591 c 0
 368 591 375 585 374 571 c 0x8820
 374 569 366 528 364 388 c 1x0240
 406 393 431 397 439 397 c 2
 442 397 l 2
 458 397 464 389 464 378 c 0
 464 354 435 316 417 316 c 2
 415 316 l 2
 408 316 388 314 364 312 c 1
 364 243 364 234 367 190 c 1x1440
 425 196 442 197 443 197 c 2
 446 197 l 2
 462 197 468 189 468 178 c 0
 468 154 439 116 421 116 c 2
 419 116 l 2
 412 116 395 115 374 114 c 1x2020
 379 59 384 9 385 -2 c 0
 385 -4 386 -5 386 -7 c 0
 386 -29 361 -72 339 -72 c 0
 334 -72 330 -70 326 -66 c 0
 316 -55 315 -54 307 111 c 1
 259 108 238 106 193 100 c 1x4010
 190 -39 190 -39 187 -49 c 0
 181 -68 161 -95 143 -95 c 0
 128 -95 119 -75 119 -51 c 0
 119 -47 120 -43 120 -40 c 0
 121 -17 125 35 128 90 c 1
 92 84 59 78 49 76 c 1
 47 76 l 2
 33 76 24 99 24 122 c 0
 24 148 35 151 60 157 c 0
 72 159 100 161 131 165 c 1
 133 211 133 211 133 291 c 1
 58 283 54 280 53 280 c 0
 39 280 29 303 29 326 c 0x8910
304 184 m 1
 302 233 301 244 301 307 c 1
 257 303 257 303 196 297 c 1
 195 182 195 182 195 173 c 1x40c0
 232 177 233 177 304 184 c 1
EndSplineSet
Validated: 1
EndChar

StartChar: dollar
Encoding: 36 36 61
Width: 374
Flags: W
HStem: 9 69<235 282.722> 186 76<99.6231 156 220 274.076>
VStem: 20 63<278.478 372.091> 156 62<261 408 491 559.463> 165 74<-74.1309 0> 296 60<93.9511 163.569>
LayerCount: 2
Fore
SplineSet
20 295 m 0xec
 20 352 57 440 156 477 c 1
 156 512 157 543 158 553 c 0
 161 572 192 577 207 577 c 0
 221 577 228 572 228 560 c 0
 228 548 228 572 224 491 c 1
 233 491 l 2
 338 491 350 407 350 405 c 0
 351 403 351 400 351 398 c 0
 351 374 324 335 303 335 c 0
 271 335 303 397 221 413 c 1
 219 354 218 298 218 261 c 1xf4
 224 261 229 262 235 262 c 0
 266 262 356 253 356 148 c 0
 356 66 297 26 235 9 c 1
 236 -5 238 -16 238 -20 c 0
 238 -22 239 -23 239 -25 c 0
 239 -47 214 -90 192 -90 c 0
 170 -90 168 -62 165 0 c 1
 129 0 78 10 40 51 c 0
 32 60 29 77 29 91 c 0
 29 95 30 99 30 102 c 0
 32 117 56 126 75 126 c 0
 86 126 96 123 99 117 c 0
 113 90 137 79 161 76 c 1
 159 113 158 152 157 184 c 1
 151 184 145 183 139 183 c 0
 133 183 128 184 122 184 c 0
 75 188 20 225 20 295 c 0xec
155 408 m 1
 113 393 83 355 83 321 c 0
 83 292 104 266 156 259 c 1
 156 296 155 351 155 408 c 1
220 186 m 1
 222 154 226 115 229 78 c 1
 259 84 296 97 296 124 c 0
 296 136 282 181 220 186 c 1
EndSplineSet
Validated: 1
EndChar

StartChar: percent
Encoding: 37 37 62
Width: 508
Flags: W
HStem: 16 76<339.321 429.877> 166 73<343.706 419.082> 249 77<82.3214 172.877> 400 73<86.7063 162.082>
VStem: 17 62<307.82 393.2> 173 61<328.77 390.462> 274 62<73.8197 159.2> 430 61<94.944 156.462>
LayerCount: 2
Fore
SplineSet
97 -22 m 0
 86 -22 74 -4 74 25 c 0
 74 33 75 40 77 43 c 0
 94 75 177 175 231 246 c 0
 285 318 406 482 408 484 c 0
 415 494 432 499 450 500 c 1
 453 500 l 2
 469 500 475 493 475 483 c 0
 475 465 457 439 457 439 c 1
 433 412 340 301 283 224 c 0
 163 62 134 0 116 -13 c 0
 108 -19 102 -22 97 -22 c 0
17 334 m 0
 17 408 80 473 149 473 c 0
 194 473 234 443 234 376 c 0
 234 315 186 256 119 250 c 0
 115 250 110 249 106 249 c 0
 52 249 17 283 17 334 c 0
125 400 m 0
 97 400 79 376 79 359 c 0
 79 338 108 326 134 326 c 0
 154 326 173 334 173 350 c 0
 173 352 172 353 172 355 c 0
 165 386 145 400 125 400 c 0
274 100 m 0
 274 174 337 239 406 239 c 0
 451 239 491 209 491 142 c 0
 491 81 443 23 376 17 c 0
 372 17 367 16 363 16 c 0
 309 16 274 49 274 100 c 0
382 166 m 0
 354 166 336 142 336 125 c 0
 336 104 365 92 391 92 c 0
 411 92 430 100 430 116 c 0
 430 118 429 119 429 121 c 0
 422 152 402 166 382 166 c 0
EndSplineSet
Validated: 1
EndChar

StartChar: ampersand
Encoding: 38 38 63
Width: 458
Flags: W
HStem: -3 75<132.844 286.529> 149 82<368.937 424.65> 237 80<181.64 235.126> 409 75<141.244 240.635>
VStem: 15 63<119.37 232.283> 77 61<351.749 403.175>
LayerCount: 2
Fore
SplineSet
78 177 m 0xf8
 78 108 144 72 226 72 c 0
 261 72 301 82 304 141 c 1
 275 136 254 130 254 130 c 1
 252 130 l 2
 238 130 228 153 228 176 c 0
 228 186 228 207 272 211 c 0
 273 211 403 230 419 231 c 1
 422 231 l 2
 438 231 444 224 444 213 c 0
 444 189 413 150 397 150 c 0
 389 150 381 149 373 149 c 1
 358 64 314 6 207 -2 c 0
 201 -2 195 -3 189 -3 c 0
 92 -3 15 53 15 152 c 0xf8
 15 183 23 257 96 301 c 1
 83 318 77 339 77 361 c 0
 77 420 122 483 207 484 c 0
 244 484 304 470 304 444 c 0
 304 421 279 379 257 379 c 0
 246 379 224 409 184 409 c 0
 153 409 138 389 138 379 c 0xf4
 138 353 203 327 242 317 c 0
 249 315 252 309 252 301 c 0
 252 277 225 237 205 237 c 2
 202 237 l 1
 181 246 164 250 148 250 c 0
 102 250 78 218 78 177 c 0xf8
EndSplineSet
Validated: 1
EndChar

StartChar: parenleft
Encoding: 40 40 64
Width: 226
Flags: W
VStem: 24 61<151.358 372.859> 129 68<531.21 584.169>
LayerCount: 2
Fore
SplineSet
172 588 m 1
 175 588 l 2
 192 588 197 580 197 570 c 0
 197 554 184 534 181 529 c 0
 128 456 85 350 85 253 c 2
 85 246 l 1
 88 122 196 10 201 -3 c 0
 203 -6 204 -10 204 -14 c 0
 204 -37 179 -78 157 -78 c 0
 150 -78 144 -74 139 -65 c 0
 128 -40 26 66 24 218 c 1
 24 225 l 2
 24 374 90 494 129 570 c 0
 131 573 140 586 172 588 c 1
EndSplineSet
Validated: 1
EndChar

StartChar: parenright
Encoding: 41 41 65
Width: 210
Flags: W
VStem: 24 60<-42 -20.5256> 131 61<129.416 352.005>
LayerCount: 2
Fore
SplineSet
48 -87 m 0
 24 -87 24 -42 24 -42 c 1
 24 -34 25 -26 28 -22 c 0
 81 52 131 141 131 238 c 2
 131 244 l 1
 128 378 33 501 31 503 c 0
 23 512 20 529 20 543 c 0
 20 547 21 551 21 554 c 0
 23 568 47 579 67 579 c 0
 77 579 86 576 90 569 c 0
 101 544 190 424 192 272 c 1
 192 266 l 2
 192 118 123 18 84 -58 c 1
 84 -58 66 -87 48 -87 c 0
EndSplineSet
Validated: 1
EndChar

StartChar: asterisk
Encoding: 42 42 66
Width: 432
Flags: W
HStem: 226 82<27.22 150.317>
VStem: 174 68<284.548 414.55>
LayerCount: 2
Fore
SplineSet
71 308 m 0
 79 308 111 305 180 283 c 1
 177 316 176 351 175 373 c 0
 175 377 174 381 174 385 c 0
 174 400 181 417 220 419 c 1
 223 419 l 2
 237 419 245 414 245 402 c 0
 245 401 242 381 242 335 c 0
 242 315 243 295 244 277 c 1
 284 298 334 322 357 332 c 0
 358 332 376 340 392 340 c 0
 403 340 413 336 413 322 c 0
 413 303 391 262 368 258 c 0
 352 253 315 239 282 225 c 1
 310 199 364 148 364 128 c 0
 364 105 339 64 318 64 c 0
 299 64 281 119 209 179 c 1
 183 149 151 106 142 85 c 0
 134 66 116 40 99 40 c 0
 75 40 75 83 75 84 c 0
 75 96 75 114 156 203 c 1
 118 215 69 225 49 226 c 1
 47 226 l 2
 33 226 23 250 23 273 c 0
 23 281 23 308 71 308 c 0
EndSplineSet
Validated: 1
EndChar

StartChar: plus
Encoding: 43 43 67
Width: 408
Flags: W
HStem: 206 82<235.02 370.306>
VStem: 168 63<274 409.899> 170 71<56.5902 108 276.778 423.777>
LayerCount: 2
Fore
SplineSet
240 410 m 0xa0
 240 409 232 333 231 274 c 1xc0
 232 274 354 287 363 288 c 1
 366 288 l 2
 383 288 389 280 389 269 c 0
 389 245 358 206 340 206 c 2
 338 206 l 2
 325 206 276 204 233 201 c 1
 236 145 241 108 241 108 c 1
 241 106 l 2
 241 83 216 41 194 41 c 0
 180 41 170 59 170 84 c 2
 170 90 l 2xa0
 170 119 169 159 169 196 c 1
 65 184 46 178 43 178 c 0
 31 178 20 198 20 224 c 0
 20 238 20 256 64 260 c 0
 90 263 129 264 168 268 c 1xc0
 169 399 169 399 170 404 c 0
 173 423 204 428 219 428 c 0
 233 428 240 422 240 410 c 0xa0
EndSplineSet
Validated: 1
EndChar

StartChar: slash
Encoding: 47 47 68
Width: 438
Flags: W
VStem: 20 63<-83.1509 -7.85093>
LayerCount: 2
Fore
SplineSet
44 -91 m 0
 24 -91 20 -59 20 -45 c 0
 20 -38 21 -32 22 -30 c 0
 43 30 349 568 349 568 c 1
 356 578 373 582 391 583 c 1
 395 583 l 2
 412 583 416 575 416 565 c 0
 416 549 403 529 403 529 c 1
 383 499 275 328 230 244 c 0
 155 104 85 -51 83 -54 c 0
 77 -68 60 -91 44 -91 c 0
EndSplineSet
Validated: 1
EndChar

StartChar: zero
Encoding: 48 48 69
Width: 436
Flags: W
HStem: -6 74<134.614 268.565> 414 74<166.246 299.133>
VStem: 21 63<123.855 306.59> 350 64<151.511 352.628>
LayerCount: 2
Fore
SplineSet
21 184 m 0
 21 298 86 488 250 488 c 0
 362 488 408 407 414 284 c 1
 414 268 l 2
 414 108 309 -6 172 -6 c 0
 67 -6 21 82 21 184 c 0
196 68 m 0
 214 68 350 74 350 244 c 2
 350 254 l 1
 349 276 342 414 241 414 c 0
 135 414 84 313 84 213 c 0
 84 133 125 68 196 68 c 0
EndSplineSet
Validated: 1
EndChar

StartChar: one
Encoding: 49 49 70
Width: 214
Flags: W
HStem: 466 20G<143.5 164>
VStem: 90 65<57.4129 360.166> 93 71<4.50231 178.072>
LayerCount: 2
Fore
SplineSet
55 325 m 0xc0
 42 325 31 344 31 370 c 0
 31 388 39 407 111 472 c 0
 120 480 135 485 152 486 c 1
 156 486 l 2
 172 486 179 480 177 465 c 0
 177 463 159 331 155 219 c 1
 155 192 l 2xc0
 155 125 164 86 164 56 c 0
 164 35 140 -13 117 -13 c 0
 99 -13 95 14 93 27 c 0xa0
 91 90 90 139 90 180 c 0
 90 268 94 316 98 364 c 1
 79 340 66 325 55 325 c 0xc0
EndSplineSet
Validated: 1
EndChar

StartChar: two
Encoding: 50 50 71
Width: 354
Flags: W
HStem: 13 82<144.338 313.569> 411 74<126.849 229.676>
VStem: 255 61<266.57 384.389>
LayerCount: 2
Fore
SplineSet
65 326 m 0
 53 326 41 343 41 372 c 0
 41 379 42 385 43 389 c 0
 57 414 97 485 199 485 c 2
 203 485 l 1
 279 483 316 429 316 358 c 0
 316 263 247 185 187 127 c 0
 167 107 153 90 141 75 c 1
 169 79 287 95 305 95 c 2
 310 95 l 2
 326 95 332 88 332 77 c 0
 332 53 301 13 285 13 c 2
 284 13 l 1
 212 12 178 13 55 -14 c 1
 52 -14 l 2
 38 -14 28 10 28 31 c 0
 28 41 31 50 36 55 c 0
 67 85 83 108 151 172 c 0
 208 224 255 279 255 333 c 0
 255 375 217 411 181 411 c 2
 176 411 l 1
 138 407 119 388 99 354 c 0
 89 342 77 326 65 326 c 0
EndSplineSet
Validated: 1
EndChar

StartChar: three
Encoding: 51 51 72
Width: 386
Flags: W
HStem: -2 74<107.547 268.486> 221 78<69.3014 169.805> 410 74<100.062 226.265>
VStem: 235 61<342.472 398.429> 305 59<99.8765 200.358>
LayerCount: 2
Fore
SplineSet
173 410 m 0
 119 410 76 370 64 370 c 0
 50 370 39 392 39 412 c 0
 39 425 44 438 54 443 c 0
 90 463 151 484 202 484 c 0
 251 484 291 465 296 406 c 1
 296 394 l 2
 296 358 284 331 263 308 c 1
 319 292 361 256 364 195 c 1
 364 180 l 2
 364 47 264 -2 169 -2 c 0
 119 -2 70 11 38 33 c 0
 25 38 19 59 19 78 c 0
 19 82 19 86 20 90 c 0
 22 106 48 114 67 114 c 0
 76 114 83 112 86 109 c 0
 114 83 155 72 187 72 c 0
 191 72 195 73 199 73 c 0
 234 76 305 82 305 149 c 0
 305 197 257 239 183 239 c 0
 135 239 98 221 90 221 c 2
 89 221 l 2
 75 221 66 243 66 266 c 0
 66 279 66 292 90 299 c 0
 108 305 127 308 146 313 c 0
 194 326 235 349 235 371 c 0
 235 382 214 410 173 410 c 0
EndSplineSet
Validated: 1
EndChar

StartChar: four
Encoding: 52 52 73
Width: 360
Flags: W
HStem: 105 75<49.5 198.807> 127 82<271 320.83> 468 20G<234.5 249> 468 20G<234.5 249>
VStem: 25 60<158.5 232.372> 198 73
LayerCount: 2
Fore
SplineSet
201 124 m 1x6c
 124 119 96 105 64 105 c 0x8c
 35 105 32 119 27 142 c 0
 26 148 25 155 25 162 c 0
 25 190 37 225 63 269 c 0
 82 301 198 470 200 472 c 0
 206 480 226 488 243 488 c 0
 255 488 265 484 266 473 c 0
 267 446 268 446 271 205 c 1
 278 206 306 209 317 209 c 0
 333 209 339 201 339 190 c 0
 339 166 309 127 291 127 c 2
 271 127 l 1
 270 56 269 23 239 1 c 0
 231 -5 225 -8 220 -8 c 0
 218 -8 198 -7 198 38 c 2
 198 45 l 2
 198 64 199 93 201 124 c 1x6c
203 370 m 1
 158 312 106 236 99 219 c 0
 94 206 85 193 85 186 c 0
 85 182 88 180 95 180 c 0
 102 180 164 190 204 196 c 1
 205 219 207 244 207 277 c 0
 207 303 206 333 203 370 c 1
EndSplineSet
Validated: 1
EndChar

StartChar: five
Encoding: 53 53 74
Width: 350
Flags: W
HStem: -3 73<113.303 233.68> 211 75<84 190.863> 225 74<121.235 229.69> 409 81<136.824 309.216>
VStem: 26 68<89.3799 118.745> 50 63<255 399.755> 253 63<90.5578 139>
LayerCount: 2
Fore
SplineSet
70 430 m 2xd6
 70 438 l 2
 70 454 74 467 101 472 c 0
 118 478 283 490 304 490 c 2
 306 490 l 2
 321 490 327 482 327 471 c 0
 327 447 298 409 279 409 c 2
 276 409 l 1
 264 410 251 411 236 411 c 0
 208 411 174 408 135 401 c 1
 127 359 113 328 113 306 c 0
 113 293 117 286 128 286 c 0xd6
 137 286 169 299 206 299 c 0
 311 299 316 184 316 163 c 0
 316 67 235 5 188 -1 c 0
 180 -2 169 -3 157 -3 c 0
 122 -3 75 6 36 48 c 0
 28 57 25 74 25 88 c 0
 25 92 26 96 26 99 c 0
 28 114 53 123 72 123 c 0
 83 123 91 121 94 115 c 0
 109 85 143 70 175 70 c 0
 215 70 253 93 253 139 c 1
 253 139 253 225 179 225 c 0xba
 146 225 117 211 98 211 c 0
 70 211 50 236 50 274 c 0
 50 302 70 367 70 430 c 2xd6
EndSplineSet
Validated: 1
EndChar

StartChar: six
Encoding: 54 54 75
Width: 344
Flags: W
HStem: -2 76<125.402 245.507> 221 72<106.758 222.715> 413 75<157.392 276.673>
VStem: 23 63<109.445 207.643> 261 60<86.0951 182.152>
LayerCount: 2
Fore
SplineSet
257 397 m 0
 235 397 229 413 201 413 c 0
 152 413 124 345 106 278 c 1
 135 288 160 293 184 293 c 0
 270 293 321 232 321 163 c 2
 321 157 l 1
 317 67 278 11 170 -1 c 0
 164 -2 159 -2 154 -2 c 0
 74 -2 23 65 23 159 c 0
 23 180 25 203 31 227 c 0
 60 348 113 488 229 488 c 0
 246 488 263 485 283 479 c 0
 297 476 305 453 305 431 c 0
 305 427 304 424 304 421 c 0
 302 405 276 397 257 397 c 0
261 127 m 0
 261 171 223 221 161 221 c 0
 143 221 122 217 100 207 c 0
 99 207 96 206 90 205 c 1
 90 205 86 183 86 170 c 0
 86 100 147 77 188 74 c 1
 197 74 l 2
 234 74 261 90 261 127 c 0
EndSplineSet
Validated: 1
EndChar

StartChar: seven
Encoding: 55 55 76
Width: 338
Flags: W
HStem: 172 81<248.251 295.306> 385 80<26 140.772> 412 76<64.455 239.06>
VStem: 124 67<-10.2206 120.285> 240 63<348.575 456.5>
LayerCount: 2
Fore
SplineSet
207 412 m 2xb8
 126 412 48 385 46 385 c 0
 31 385 22 409 22 432 c 0
 22 443 22 459 54 465 c 0xd8
 97 474 161 484 230 488 c 1
 235 488 l 2
 255 488 303 483 303 430 c 0
 303 416 300 399 292 378 c 0
 282 351 265 304 248 252 c 1
 263 253 279 253 291 253 c 2
 292 253 l 2
 308 253 314 246 314 235 c 0
 314 211 283 172 265 172 c 2
 260 172 l 2
 255 172 243 172 223 170 c 1
 194 68 197 43 191 25 c 0
 185 5 165 -21 148 -21 c 0
 147 -21 124 -21 124 20 c 0
 124 49 137 94 159 163 c 1
 150 162 113 154 113 154 c 1
 98 154 89 178 89 201 c 0
 89 225 90 231 187 245 c 1
 198 277 208 307 216 328 c 0
 230 367 240 388 240 399 c 0
 240 408 233 411 217 412 c 1
 207 412 l 2xb8
EndSplineSet
Validated: 1
EndChar

StartChar: eight
Encoding: 56 56 77
Width: 352
Flags: W
HStem: -4 72<104.359 234.779> 411 76<116.192 235.428>
VStem: 25 68<79.0785 181.791> 45 59<340.645 398.529> 241 65<346.942 401.789> 262 65<93.4531 176.118>
LayerCount: 2
Fore
SplineSet
327 153 m 1xc4
 323 70 250 -4 138 -4 c 0
 71 -4 25 27 25 98 c 2
 25 106 l 1xe4
 29 179 69 222 109 260 c 1
 74 283 45 309 45 358 c 0
 45 441 128 487 200 487 c 0
 256 487 306 459 306 399 c 0xd8
 306 395 305 391 305 387 c 0
 300 342 266 311 234 286 c 1
 278 262 327 222 327 159 c 2
 327 153 l 1xc4
240 373 m 0
 241 375 241 376 241 378 c 0
 241 396 210 411 180 411 c 2
 171 411 l 1
 134 407 104 395 104 370 c 0xd8
 104 348 139 332 174 315 c 1
 206 337 233 352 240 373 c 0
154 68 m 0
 155 68 262 70 262 134 c 0
 262 173 208 204 160 230 c 1
 129 204 98 172 94 134 c 0
 94 131 93 127 93 124 c 0xe4
 93 83 123 68 154 68 c 0
EndSplineSet
Validated: 1
EndChar

StartChar: nine
Encoding: 57 57 78
Width: 304
Flags: W
HStem: 192 77<116.281 181.671> 411 74<95.4963 201.745>
VStem: 20 64<300.953 399.476> 225 59<277.301 386.056>
LayerCount: 2
Fore
SplineSet
20 333 m 1
 21 360 33 485 176 485 c 0
 225 485 284 466 284 367 c 0
 284 337 284 337 177 26 c 0
 160 -19 134 -21 133 -21 c 0
 122 -21 110 -3 110 24 c 0
 110 47 126 61 182 194 c 1
 175 193 167 192 160 192 c 0
 93 192 20 240 20 327 c 2
 20 333 l 1
210 269 m 1
 222 305 225 314 225 335 c 0
 225 383 190 405 154 410 c 0
 152 410 147 411 142 411 c 0
 121 411 84 404 84 359 c 0
 84 339 91 269 195 269 c 2
 210 269 l 1
EndSplineSet
Validated: 1
EndChar

StartChar: colon
Encoding: 58 58 79
Width: 210
Flags: W
HStem: 31 82<74.7988 123.84> 238 82<74.499 123.83>
VStem: 70 72<47.8915 108.064 255.608 315.624>
LayerCount: 2
Fore
SplineSet
94 238 m 0
 81 238 70 262 70 286 c 0
 70 290 71 293 71 296 c 0
 73 311 93 319 116 320 c 1
 120 320 l 2
 136 320 142 312 142 302 c 0
 142 277 112 238 94 238 c 0
95 31 m 0
 77 31 70 66 70 76 c 0
 70 94 79 111 116 113 c 1
 120 113 l 2
 136 113 142 105 142 95 c 0
 142 73 114 31 95 31 c 0
EndSplineSet
Validated: 1
EndChar

StartChar: semicolon
Encoding: 59 59 80
Width: 230
Flags: W
HStem: 238 82<92.5503 141.83>
VStem: 64 96<-10.1194 46.5879> 89 71<-9.16544 95.6238 255.163 315.624>
LayerCount: 2
Fore
SplineSet
112 238 m 0xa0
 102 238 89 253 89 285 c 0
 89 289 90 293 90 296 c 0
 92 311 112 319 135 320 c 1
 139 320 l 2
 155 320 160 313 160 302 c 0
 160 278 130 238 112 238 c 0xa0
160 84 m 0
 160 76 135 -83 81 -83 c 0
 67 -83 64 -67 64 -55 c 0xc0
 64 -50 65 -47 65 -44 c 0
 65 -43 66 -43 66 -42 c 0
 66 -41 86 36 89 69 c 0
 89 72 90 74 90 76 c 0
 92 91 112 99 135 100 c 1
 139 100 l 2
 152 100 160 96 160 84 c 0
EndSplineSet
Validated: 1
EndChar

StartChar: less
Encoding: 60 60 81
Width: 414
Flags: W
LayerCount: 2
Fore
SplineSet
362 494 m 1
 364 494 l 2
 381 494 387 486 387 475 c 0
 387 456 370 429 350 416 c 0
 279 375 187 303 123 241 c 1
 186 201 318 125 382 95 c 0
 387 92 389 87 389 80 c 0
 389 56 361 16 341 16 c 0
 338 16 336 17 334 18 c 0
 313 35 84 164 49 182 c 0
 38 187 31 207 31 225 c 0
 31 235 33 245 39 251 c 0
 59 271 322 484 326 484 c 0
 334 490 348 493 362 494 c 1
EndSplineSet
Validated: 1
EndChar

StartChar: equal
Encoding: 61 61 82
Width: 320
Flags: W
HStem: 129 81<31.6284 152.514> 154 81<89.7702 265.92> 246 81<35.9023 200.609> 270 81<101.833 270.443>
VStem: 28 261
LayerCount: 2
Fore
SplineSet
59 246 m 1x28
 56 246 l 2
 42 246 32 269 32 292 c 0
 32 303 32 323 76 327 c 0x28
 96 329 107 329 147 334 c 0
 148 334 254 351 261 351 c 2
 266 351 l 2
 283 351 289 343 289 332 c 0
 289 308 258 270 241 270 c 2
 238 270 l 2x18
 205 270 91 257 59 246 c 1x28
28 175 m 0
 28 186 28 206 67 210 c 0x88
 69 210 241 235 257 235 c 2
 261 235 l 2
 278 235 285 227 285 216 c 0
 285 192 253 154 236 154 c 2
 215 154 l 2x48
 115 154 55 129 53 129 c 2
 51 129 l 2x88
 37 129 28 152 28 175 c 0
EndSplineSet
Validated: 1
EndChar

StartChar: greater
Encoding: 62 62 83
Width: 416
Flags: W
LayerCount: 2
Fore
SplineSet
54 -16 m 0
 38 -16 31 15 31 29 c 0
 31 41 34 52 45 58 c 0
 120 102 225 178 291 243 c 1
 149 339 50 390 48 392 c 0
 35 400 31 421 31 437 c 0
 31 441 32 445 32 448 c 0
 34 464 60 472 79 472 c 0
 88 472 95 470 98 467 c 0
 134 437 380 291 383 289 c 0
 387 286 389 281 389 275 c 0
 389 257 373 231 364 223 c 0
 346 205 76 -5 73 -7 c 0
 65 -13 59 -16 54 -16 c 0
EndSplineSet
Validated: 1
EndChar

StartChar: at
Encoding: 64 64 84
Width: 590
Flags: W
HStem: -56 78<182.841 396.108> 93 75<406.157 478.809> 111 75<232.332 328.485> 296 73<236.487 350.023> 448 73<212.974 412.753>
VStem: 25 65<123.323 301.608> 160 61<197.673 280.027> 374 70<358.021 386.922> 506 61<196.304 356.407>
LayerCount: 2
Fore
SplineSet
25 166 m 0xdf80
 25 326 111 506 301 520 c 0
 306 520 315 521 326 521 c 0
 397 521 564 501 567 316 c 1
 567 309 l 2
 567 146 473 93 413 93 c 0xdf80
 384 93 357 105 346 142 c 1
 320 122 287 111 256 111 c 0xbf80
 205 111 160 140 160 208 c 0
 160 293 211 369 307 369 c 0
 329 369 351 365 372 357 c 1
 374 363 374 364 374 367 c 0
 376 382 396 390 419 391 c 1
 422 391 l 2
 436 391 444 387 444 375 c 0
 444 353 402 261 402 211 c 0
 402 201 405 168 439 168 c 0
 473 168 506 211 506 272 c 2
 506 285 l 1
 500 362 452 448 310 448 c 2
 298 448 l 1
 148 443 95 311 90 224 c 1
 90 213 l 2
 90 140 130 22 276 22 c 0
 344 22 396 48 418 48 c 2
 421 48 l 2
 437 48 443 40 443 29 c 0
 443 6 416 -29 398 -34 c 0
 358 -46 314 -56 270 -56 c 0
 146 -56 25 5 25 166 c 0xdf80
351 277 m 1
 330 290 309 296 290 296 c 0
 244 296 221 263 221 238 c 0
 221 216 241 186 275 186 c 0xbf80
 294 186 316 195 342 219 c 1
 344 236 347 256 351 277 c 1
EndSplineSet
Validated: 1
EndChar

StartChar: bracketleft
Encoding: 91 91 85
Width: 244
Flags: W
HStem: -85 75<81.5 197.255> 507 81<113.077 196.83>
VStem: 35 61<-8.39164 378.689>
LayerCount: 2
Fore
SplineSet
122 -10 m 0
 127 -10 192 4 195 4 c 2
 198 4 l 2
 215 4 221 -4 221 -15 c 0
 221 -39 192 -76 175 -78 c 0
 146 -82 123 -85 105 -85 c 0
 58 -85 47 -66 43 -11 c 0
 39 45 35 78 35 143 c 2
 35 167 l 1
 36 246 44 535 47 552 c 0
 49 566 66 574 86 576 c 0
 87 576 175 588 187 588 c 2
 192 588 l 2
 209 588 215 580 215 569 c 0
 215 545 185 507 167 507 c 2
 166 507 l 2
 156 507 135 505 112 502 c 1
 106 414 96 251 96 152 c 0
 96 129 97 109 98 95 c 0
 104 12 104 -10 122 -10 c 0
EndSplineSet
Validated: 1
EndChar

StartChar: backslash
Encoding: 92 92 86
Width: 442
Flags: W
LayerCount: 2
Fore
SplineSet
26 533 m 0
 28 548 53 557 72 557 c 0
 82 557 91 554 94 549 c 0
 97 544 401 51 414 17 c 0
 415 15 415 12 415 9 c 0
 415 -14 389 -55 368 -55 c 0
 361 -55 355 -51 350 -41 c 2
 350 -41 212 233 36 482 c 0
 29 492 25 508 25 522 c 0
 25 526 26 530 26 533 c 0
EndSplineSet
Validated: 1
EndChar

StartChar: bracketright
Encoding: 93 93 87
Width: 242
Flags: W
HStem: -90 82<33.22 134.923> 495 80<28.4658 122.362> 509 76<32.825 158>
VStem: 144 62<13.3246 460.563> 144 55<44.7961 222.151 232.787 508.989>
LayerCount: 2
Fore
SplineSet
123 509 m 0xb0
 110 509 58 495 48 495 c 2
 46 495 l 1
 32 498 25 520 25 541 c 0
 25 545 26 549 26 552 c 0
 28 565 45 572 64 575 c 0xd0
 95 580 120 585 139 585 c 0
 177 585 194 568 199 509 c 0xa8
 205 440 206 330 206 228 c 0
 206 103 204 -8 204 -11 c 2
 204 -12 l 2
 204 -38 175 -77 156 -77 c 0
 155 -77 68 -90 55 -90 c 2
 53 -90 l 2
 39 -90 29 -66 29 -43 c 0
 29 -39 29 -36 30 -32 c 0
 33 -12 68 -8 77 -8 c 2
 80 -8 l 2
 92 -8 113 -6 136 -2 c 1
 142 60 144 169 144 264 c 0
 144 327 144 383 142 417 c 0
 137 494 137 509 123 509 c 0xb0
EndSplineSet
Validated: 1
EndChar

StartChar: asciicircum
Encoding: 94 94 88
Width: 352
Flags: W
HStem: 504 74<242.5 311.097>
VStem: 37 286<511 557>
LayerCount: 2
Fore
SplineSet
323 557 m 0
 323 528 293 504 277 504 c 2
 275 504 l 2
 265 504 215 511 165 548 c 1
 124 507 78 484 55 484 c 0
 49 484 37 484 37 511 c 0
 37 528 45 547 63 555 c 0
 91 568 133 608 140 622 c 0
 145 631 167 638 185 638 c 0
 194 638 202 636 205 631 c 1
 241 594 256 590 310 578 c 0
 318 576 323 568 323 557 c 0
EndSplineSet
Validated: 1
EndChar

StartChar: underscore
Encoding: 95 95 89
Width: 492
Flags: W
HStem: -23 82<30.5859 190.863> 21 82<268.543 450.443>
LayerCount: 2
Fore
SplineSet
52 -23 m 1x80
 50 -23 l 2
 36 -23 27 0 27 23 c 0
 27 35 27 55 69 59 c 0x80
 104 64 183 70 226 76 c 0
 228 76 434 103 445 103 c 0
 462 103 469 95 469 84 c 0
 469 60 438 21 421 21 c 2
 419 21 l 2x40
 370 21 88 -11 52 -23 c 1x80
EndSplineSet
Validated: 1
EndChar

StartChar: grave
Encoding: 96 96 90
Width: 250
Flags: W
HStem: 476 74<152.803 209.169>
VStem: 32 188<527.297 551.515>
LayerCount: 2
Fore
SplineSet
174 476 m 2
 171 476 l 2
 143 476 60 517 44 535 c 0
 36 544 32 561 32 576 c 0
 32 579 33 583 33 586 c 0
 35 602 61 610 80 610 c 0
 90 610 98 608 101 604 c 1
 116 591 179 554 205 550 c 0
 215 549 220 539 220 528 c 0
 220 499 191 476 174 476 c 2
EndSplineSet
Validated: 1
EndChar

StartChar: braceleft
Encoding: 123 123 91
Width: 306
Flags: W
HStem: -84 75<167.125 255.29> 508 82<175.077 258.216>
VStem: 97 62<-6.52433 199.906> 108 59<284.115 500.878>
LayerCount: 2
Fore
SplineSet
257 5 m 1xe0
 260 5 l 2
 277 5 283 -3 283 -14 c 0
 283 -36 256 -72 238 -76 c 1
 237 -76 l 1
 207 -80 183 -84 165 -84 c 0
 124 -84 110 -67 104 -9 c 0
 99 44 97 85 97 137 c 2
 97 169 l 2xe0
 97 195 83 201 67 201 c 0
 63 201 58 200 54 200 c 2
 52 200 l 2
 40 200 29 221 29 246 c 0
 29 257 29 275 68 281 c 0
 105 286 108 286 108 356 c 2
 108 543 l 2
 108 547 109 551 109 554 c 0
 111 568 128 574 148 577 c 0
 190 583 198 583 244 589 c 0
 246 589 248 590 249 590 c 2
 255 590 l 2
 270 590 276 582 276 571 c 0
 276 547 247 508 228 508 c 0
 218 508 197 506 174 503 c 1
 171 458 168 395 167 350 c 0xd0
 166 308 167 277 145 251 c 1
 158 230 159 199 159 164 c 2
 159 130 l 2
 159 119 159 108 160 97 c 0
 165 14 166 -9 184 -9 c 0
 186 -9 189 -8 191 -8 c 0
 216 -3 241 5 256 6 c 1
 257 5 l 1xe0
EndSplineSet
Validated: 1
EndChar

StartChar: bar
Encoding: 124 124 92
Width: 180
Flags: W
VStem: 51 63<65.3678 517.391> 54 70<-42 213.894 326.912 578.92>
LayerCount: 2
Fore
SplineSet
114 290 m 0x80
 114 208 128 -14 128 -17 c 0
 128 -37 104 -83 81 -83 c 0
 72 -83 61 -77 58 -43 c 1
 57 -42 l 1
 56 -5 51 207 51 279 c 0x80
 51 347 51 501 53 548 c 0
 53 550 54 553 54 555 c 2
 54 559 l 1
 56 574 77 582 99 583 c 1
 103 583 l 2
 116 583 124 579 124 568 c 2
 124 562 l 1x40
 120 526 114 383 114 290 c 0x80
EndSplineSet
Validated: 1
EndChar

StartChar: braceright
Encoding: 125 125 93
Width: 308
Flags: W
HStem: -94 82<35.7683 138.877> 214 80<212.949 261.495> 491 80<30.9247 126.645> 505 76<42.3327 164.5>
VStem: 140 69<-9.16406 213.338>
LayerCount: 2
Fore
SplineSet
167 236 m 1xd8
 129 297 160 505 127 505 c 0xd8
 120 505 76 492 54 491 c 0
 53 491 53 490 52 490 c 2
 51 490 l 2
 50 490 50 491 49 491 c 0
 31 497 28 520 28 535 c 0
 28 542 29 547 29 548 c 0
 31 561 47 568 67 571 c 0xe8
 108 578 127 581 142 581 c 0
 187 580 198 556 202 505 c 0
 205 477 207 423 209 376 c 0
 211 333 207 294 234 294 c 2
 239 294 l 1
 244 295 249 296 255 296 c 2
 257 296 l 2
 274 296 280 288 280 278 c 0
 280 254 251 217 235 214 c 1
 232 214 l 1
 211 209 209 201 209 178 c 2
 209 68 l 2
 209 37 207 6 207 -15 c 0
 207 -51 174 -81 159 -81 c 0
 115 -81 109 -88 63 -94 c 1
 55 -94 l 2
 42 -94 32 -72 32 -48 c 0
 32 -35 32 -16 77 -12 c 1
 83 -12 l 2
 95 -12 116 -10 140 -6 c 1
 156 122 133 175 167 236 c 1xd8
EndSplineSet
Validated: 1
EndChar

StartChar: asciitilde
Encoding: 126 126 94
Width: 498
Flags: W
HStem: 191 74<263.955 406.718> 225 75<89.1607 251.63>
LayerCount: 2
Fore
SplineSet
183 300 m 0x40
 266 300 290 265 346 265 c 0
 356 265 388 267 413 292 c 0
 415 293 436 302 452 302 c 0
 463 302 472 298 472 284 c 0
 472 242 422 191 329 191 c 0x80
 251 191 219 225 161 225 c 0
 97 225 73 184 55 184 c 0
 40 184 31 206 31 226 c 0
 31 238 34 250 42 255 c 0
 82 286 134 300 183 300 c 0x40
EndSplineSet
Validated: 1
EndChar

StartChar: exclamdown
Encoding: 161 161 96
Width: 154
Flags: W
HStem: 418 82<44.7259 94.2396>
VStem: 29 68<-72.75 171.154> 41 71<435.153 495.624> 51 64<-8.58179 364.111>
LayerCount: 2
Fore
SplineSet
64 418 m 0xa0
 53 418 41 436 41 465 c 0
 41 469 42 473 42 476 c 0
 44 491 64 499 87 500 c 1
 90 500 l 2
 106 500 112 493 112 482 c 0
 112 458 84 418 64 418 c 0xa0
53 -85 m 0
 33 -85 29 -52 29 -39 c 0xc0
 29 -35 30 -32 30 -28 c 0
 37 8 51 114 51 174 c 0
 51 231 49 303 49 321 c 0
 49 352 72 369 90 369 c 0
 100 369 109 363 110 352 c 0
 112 333 115 276 115 219 c 0x90
 115 151 102 -23 97 -39 c 0xc0
 90 -59 70 -85 53 -85 c 0
EndSplineSet
Validated: 1
EndChar

StartChar: cent
Encoding: 162 162 97
Width: 440
Flags: W
HStem: 6 72<134.046 196> 16 73<270 315.766> 427 72<257 310.019>
VStem: 19 63<131.943 286.755> 189 63<93.1377 407 498 567.636> 199 74<-65.5869 6>
LayerCount: 2
Fore
SplineSet
19 182 m 0xb8
 19 277 86 422 190 478 c 1
 190 517 191 551 192 561 c 0
 195 580 226 585 241 585 c 0
 255 585 262 580 262 568 c 0
 262 560 260 568 257 498 c 1
 262 498 266 499 271 499 c 0
 362 499 403 428 404 412 c 1
 404 408 l 2
 404 386 380 343 358 343 c 0
 330 343 334 427 255 427 c 1
 253 360 252 316 252 279 c 0
 252 220 255 178 263 89 c 1
 344 112 339 144 388 146 c 1
 391 146 l 2
 407 146 413 138 413 128 c 0
 413 126 408 46 270 16 c 1x78
 271 3 272 -8 272 -12 c 0
 272 -14 273 -15 273 -17 c 0
 273 -39 248 -82 226 -82 c 0
 204 -82 202 -54 199 6 c 1xb4
 189 6 l 2
 94 6 19 77 19 182 c 0xb8
189 407 m 1
 167 393 88 326 82 206 c 1
 82 201 l 2
 82 138 132 78 194 78 c 2
 196 78 l 1xb8
 190 223 189 259 189 407 c 1
EndSplineSet
Validated: 1
EndChar

StartChar: sterling
Encoding: 163 163 98
Width: 520
Flags: W
HStem: -55 67<118.001 357.075> -49 75<124.782 387.572> 27 65<450.52 470> 116 81<173.784 270.83> 249 81<179.477 286.83> 485 73<204.618 299.996>
VStem: 56 62<-25 64.6417> 115 60<316 453.354>
LayerCount: 2
Fore
SplineSet
124 12 m 0xbe
 141 12 137 26 238 26 c 2
 278 26 l 2
 337 26 394 29 424 74 c 0
 431 84 448 91 467 92 c 1
 470 92 l 2
 487 92 492 85 492 75 c 0
 492 56 472 27 472 27 c 1
 412 -44 298 -49 241 -49 c 0x7e
 184 -49 129 -52 94 -55 c 1
 90 -55 l 2
 69 -55 56 -39 56 -11 c 0xbe
 56 27 73 42 89 99 c 1
 72 95 58 91 58 91 c 1
 55 91 l 2
 41 91 32 114 32 137 c 0
 32 156 32 170 105 176 c 1
 108 195 110 214 112 234 c 1
 91 230 74 224 74 224 c 1
 72 224 l 2
 58 224 48 248 48 271 c 0
 48 281 48 302 91 306 c 0
 100 307 107 307 116 308 c 1
 116 321 116 335 115 348 c 1
 115 360 l 2
 115 469 184 558 280 558 c 0
 328 558 328 545 328 536 c 0
 328 512 302 473 281 473 c 0
 271 473 267 485 243 485 c 0
 210 485 182 449 177 381 c 0
 175 361 175 339 175 316 c 1
 272 330 273 330 277 330 c 2
 282 330 l 2
 299 330 305 322 305 311 c 0
 305 287 275 249 257 249 c 2
 256 249 l 2
 244 249 207 247 175 244 c 1xbd
 174 225 173 205 170 184 c 1
 252 196 252 196 263 197 c 1
 266 197 l 2
 282 197 289 189 289 178 c 0
 289 154 259 116 241 116 c 2
 240 116 l 2
 227 116 186 114 153 110 c 1
 136 53 118 31 118 18 c 0
 118 14 120 12 124 12 c 0xbe
EndSplineSet
Validated: 1
EndChar

StartChar: currency
Encoding: 164 164 99
Width: 496
Flags: W
HStem: 56 75<165.749 319.327> 358 74<187.39 318.983>
VStem: 53 61<168.62 293.694> 374 61<171.532 296.213>
LayerCount: 2
Fore
SplineSet
83 -33 m 0
 59 -33 59 11 59 12 c 0
 59 21 61 30 66 35 c 0
 75 45 92 68 105 87 c 1
 73 112 53 158 53 209 c 0
 53 252 67 300 99 340 c 1
 72 370 45 394 44 395 c 0
 36 404 33 421 33 435 c 0
 33 439 34 443 34 446 c 0
 36 461 59 470 79 470 c 0
 89 470 97 468 102 463 c 0
 132 432 147 416 164 398 c 1
 178 407 225 432 279 432 c 0
 301 432 323 428 346 417 c 1
 365 440 365 439 393 482 c 0
 402 496 428 499 439 499 c 0
 455 499 460 492 460 482 c 0
 460 465 444 441 442 438 c 0
 429 419 417 405 396 375 c 1
 421 343 435 298 435 253 c 0
 435 216 426 179 405 147 c 1
 462 90 467 85 467 75 c 0
 467 52 443 10 421 10 c 0
 416 10 410 13 406 18 c 0
 393 36 353 77 340 87 c 1
 337 85 282 56 211 56 c 0
 196 56 181 57 165 60 c 1
 151 40 140 26 116 -7 c 1
 116 -7 100 -33 83 -33 c 0
374 222 m 0
 374 266 338 358 260 358 c 0
 228 358 123 337 114 234 c 1
 114 224 l 2
 114 156 182 132 234 131 c 1
 237 131 l 2
 288 131 374 155 374 222 c 0
EndSplineSet
Validated: 1
EndChar

StartChar: yen
Encoding: 165 165 100
Width: 430
Flags: W
HStem: 44 82<97.22 182.673> 69 81<257.865 331.83> 177 81<99.6008 182.821> 201 82<253.547 334.306>
VStem: 184 65<140 191> 191 71<-56.7484 57.8867>
LayerCount: 2
Fore
SplineSet
215 -72 m 0x54
 192 -72 191 -31 191 -25 c 0x54
 190 -7 189 23 187 59 c 1
 140 52 120 44 119 44 c 2
 117 44 l 2
 103 44 93 68 93 91 c 0
 93 103 93 122 138 126 c 0
 153 128 159 128 184 131 c 1x88
 184 151 184 172 185 191 c 1
 138 184 124 177 122 177 c 2
 120 177 l 2
 106 177 96 199 96 222 c 0
 96 234 96 254 139 258 c 0
 156 260 161 260 191 264 c 0xa4
 191 265 192 264 192 265 c 0
 140 306 55 380 37 425 c 0
 33 434 31 445 31 455 c 0
 31 459 31 463 32 467 c 0
 34 482 58 491 77 491 c 0
 127 491 66 454 226 342 c 1
 263 400 318 476 328 500 c 0
 333 511 355 518 376 518 c 0
 392 518 397 510 397 501 c 0
 397 456 272 338 252 273 c 1
 285 278 319 283 325 283 c 2
 330 283 l 2
 347 283 353 275 353 264 c 0
 353 240 322 201 304 201 c 2
 303 201 l 2
 293 201 271 200 246 198 c 1
 247 180 247 160 249 140 c 1x18
 266 143 315 150 322 150 c 2
 327 150 l 2
 344 150 350 142 350 131 c 0
 350 107 320 69 302 69 c 2
 301 69 l 2
 293 69 277 68 257 67 c 1
 260 43 262 16 262 0 c 2
 262 -8 l 2
 262 -31 237 -72 215 -72 c 0x54
EndSplineSet
Validated: 1
EndChar

StartChar: brokenbar
Encoding: 166 166 101
Width: 170
Flags: W
VStem: 47 71<-68.4538 216.023 294.546 578.668> 47 65<-17.3371 216.023 345.663 578.668>
LayerCount: 2
Fore
SplineSet
71 278 m 0x80
 52 278 48 307 47 316 c 1
 47 325 l 2x80
 47 369 51 558 51 560 c 0
 53 575 73 583 96 584 c 1
 100 584 l 2
 115 584 122 579 121 566 c 0
 121 565 112 524 112 442 c 2
 112 429 l 2x40
 112 382 118 359 118 345 c 0
 118 323 94 278 71 278 c 0x80
71 -85 m 0
 53 -85 49 -59 47 -46 c 1
 47 -37 l 2x80
 47 7 51 196 51 198 c 0
 53 213 73 220 96 221 c 1
 100 221 l 2
 114 221 122 216 121 203 c 0
 121 202 112 161 112 79 c 2
 112 66 l 2x40
 112 19 118 -4 118 -18 c 0
 118 -40 94 -85 71 -85 c 0
EndSplineSet
Validated: 1
EndChar

StartChar: section
Encoding: 167 167 102
Width: 336
Flags: W
HStem: 1 74<121.746 235.779> 495 75<111.606 227.186>
VStem: 37 69<92.5293 123.745> 47 60<249.5 325.067 437.238 488.16> 240 60<84.0916 137.116 250.74 325.385>
LayerCount: 2
Fore
SplineSet
53 450 m 0xd8
 53 562 154 570 184 570 c 0
 224 570 264 557 292 531 c 0
 296 528 297 524 297 518 c 0
 297 495 270 454 249 454 c 0
 228 454 238 495 169 495 c 0
 153 495 109 493 109 466 c 0
 109 444 140 425 208 400 c 0
 267 378 300 351 300 302 c 0
 300 292 298 243 259 209 c 1
 287 182 301 148 301 115 c 0
 301 56 257 1 177 1 c 2
 176 1 l 2
 118 1 84 20 52 48 c 0
 40 56 36 77 36 92 c 0
 36 97 37 101 37 104 c 0
 39 119 63 128 82 128 c 0
 93 128 103 125 106 118 c 0xe8
 116 91 157 75 177 75 c 0
 209 75 239 87 239 107 c 0
 239 125 213 150 139 177 c 0
 79 199 47 225 47 274 c 0
 47 286 50 334 88 368 c 1
 65 391 53 415 53 450 c 0xd8
146 330 m 1
 119 328 107 307 107 297 c 0xd8
 107 280 157 265 201 246 c 1
 227 248 240 270 240 280 c 0
 240 297 190 311 146 330 c 1
EndSplineSet
Validated: 1
EndChar

StartChar: dieresis
Encoding: 168 168 103
Width: 328
Flags: W
HStem: 496 82<43.7259 93.2396> 509 82<220.726 269.83>
VStem: 40 71<513.153 573.624> 217 71<526.572 586.624>
LayerCount: 2
Fore
SplineSet
240 509 m 0x70
 229 509 217 527 217 556 c 0
 217 560 218 564 218 567 c 0
 220 582 240 590 263 591 c 1
 266 591 l 2
 282 591 288 583 288 573 c 0
 288 548 258 509 240 509 c 0x70
63 496 m 0xb0
 52 496 40 514 40 543 c 0
 40 547 41 551 41 554 c 0
 43 569 63 577 86 578 c 1
 89 578 l 2
 105 578 111 571 111 560 c 0
 111 536 83 496 63 496 c 0xb0
EndSplineSet
Validated: 1
EndChar

StartChar: copyright
Encoding: 169 169 104
Width: 682
Flags: W
HStem: -84 76<219.087 429.469> 40 75<264.518 404.332> 110 64<452.387 472> 393 75<294.243 399.12> 518 72<293.094 463.04>
VStem: 28 61<100.151 310.303> 151 64<163.915 294.311> 594 61<138.122 344.065>
LayerCount: 2
Fore
SplineSet
28 185 m 0x9f
 28 420 229 590 399 590 c 0
 554 590 647 451 655 275 c 1
 655 259 l 2
 655 76 517 -84 299 -84 c 0
 131 -84 28 21 28 185 c 0x9f
594 234 m 1
 586 375 511 518 386 518 c 0
 295 518 110 443 90 215 c 0
 89 207 89 199 89 191 c 0
 89 38 226 -2 334 -8 c 1
 344 -8 l 2
 454 -8 594 83 594 222 c 2
 594 234 l 1
435 321 m 0
 411 321 418 393 350 393 c 0
 323 393 293 378 273 356 c 0
 242 323 215 293 215 227 c 0
 215 170 267 115 322 115 c 0xdf
 379 115 407 133 427 157 c 0
 437 167 443 172 469 174 c 1
 472 174 l 2
 489 174 494 167 494 157 c 0
 494 138 474 110 474 110 c 1xbf
 450 84 420 52 319 41 c 0
 313 40 308 40 302 40 c 0xdf
 221 40 151 104 151 197 c 0
 151 296 242 468 369 468 c 0
 446 468 482 407 482 393 c 1
 483 391 483 389 483 386 c 0
 483 363 456 321 435 321 c 0
EndSplineSet
Validated: 1
EndChar

StartChar: ordfeminine
Encoding: 170 170 105
Width: 282
Flags: W
HStem: 304 73<90.5537 156.797> 438 82<103.094 157.411>
VStem: 28 62<353.17 427.864>
LayerCount: 2
Fore
SplineSet
96 304 m 0
 57 304 28 327 28 380 c 0
 28 444 77 505 157 517 c 0
 161 518 170 520 178 520 c 0
 186 520 193 518 198 512 c 0
 216 479 251 375 251 374 c 0
 252 372 252 370 252 367 c 0
 252 344 227 302 205 302 c 0
 188 302 184 322 178 352 c 1
 163 321 128 304 96 304 c 0
90 402 m 0
 90 393 105 377 124 377 c 0
 137 377 151 384 164 399 c 1
 159 414 153 428 146 438 c 1
 116 437 90 419 90 402 c 0
EndSplineSet
Validated: 1
EndChar

StartChar: guillemotleft
Encoding: 171 171 106
Width: 358
Flags: W
VStem: 33 72<186.013 285.792> 154 72<199.342 303.392>
LayerCount: 2
Fore
SplineSet
330 67 m 0
 330 36 301 15 286 15 c 0
 280 15 275 18 272 26 c 0
 253 65 182 166 164 196 c 0
 157 208 154 223 154 236 c 0
 154 286 203 338 251 468 c 0
 260 484 270 489 288 491 c 1
 290 491 l 2
 303 491 307 481 307 471 c 0
 307 460 303 449 302 447 c 0
 276 402 226 285 226 255 c 0
 226 225 283 138 325 86 c 0
 328 83 330 75 330 67 c 0
210 52 m 0
 210 21 181 0 166 0 c 0
 160 0 155 3 152 11 c 0
 133 50 61 151 43 181 c 0
 36 193 33 206 33 219 c 0
 33 268 82 322 130 453 c 0
 140 469 150 475 168 477 c 1
 170 477 l 2
 184 477 187 467 187 456 c 0
 187 445 183 434 182 432 c 0
 156 387 105 270 105 240 c 0
 105 210 163 123 205 71 c 0
 208 68 210 60 210 52 c 0
EndSplineSet
Validated: 1
EndChar

StartChar: logicalnot
Encoding: 172 172 107
Width: 530
Flags: W
HStem: 192 82<46.2797 217.916> 229 75<190.711 424.262>
VStem: 413 71<80.8095 228.839>
LayerCount: 2
Fore
SplineSet
42 239 m 0xa0
 42 249 42 272 88 274 c 0xa0
 91 274 355 302 430 304 c 0
 435 304 485 304 485 264 c 2
 485 257 l 1
 484 246 483 231 483 215 c 0
 483 190 484 162 484 142 c 2
 484 129 l 2
 484 108 459 65 437 65 c 0
 415 65 413 102 413 110 c 2
 413 115 l 2
 413 129 417 162 425 212 c 0
 428 229 418 227 408 229 c 1
 400 229 l 2x60
 351 229 117 204 67 192 c 1
 66 192 l 2
 52 192 42 216 42 239 c 0xa0
EndSplineSet
Validated: 1
EndChar

StartChar: uni00AD
Encoding: 173 173 108
Width: 318
Flags: W
HStem: 172 81<38.22 174.944> 197 81<102.366 272.306>
VStem: 34 257<214.873 248.61>
LayerCount: 2
Fore
SplineSet
263 278 m 2x60
 268 278 l 2
 285 278 291 271 291 260 c 0
 291 236 260 197 242 197 c 2
 232 197 l 2x60
 144 197 62 172 60 172 c 2
 58 172 l 2
 44 172 34 196 34 219 c 0
 34 231 34 248 77 253 c 0xa0
 95 255 100 256 140 261 c 0
 141 261 256 278 263 278 c 2x60
EndSplineSet
Validated: 1
EndChar

StartChar: registered
Encoding: 174 174 109
Width: 684
Flags: W
HStem: -84 76<219.087 429.469> 369 75<279.466 420.84> 518 72<293.094 463.04>
VStem: 28 61<100.151 310.303> 217 62<80.1556 167 248 344.406> 442 61<279.83 346.854> 594 61<138.122 344.065>
LayerCount: 2
Fore
SplineSet
28 185 m 0
 28 420 229 590 399 590 c 0
 554 590 647 451 655 275 c 1
 655 259 l 2
 655 76 517 -84 299 -84 c 0
 131 -84 28 21 28 185 c 0
594 234 m 1
 586 375 511 518 386 518 c 0
 295 518 110 443 90 215 c 0
 89 207 89 199 89 191 c 0
 89 38 226 -2 334 -8 c 1
 344 -8 l 2
 454 -8 594 83 594 222 c 2
 594 234 l 1
459 56 m 0
 439 56 314 161 279 167 c 1
 278 108 279 65 247 42 c 0
 239 36 233 34 228 34 c 0
 209 34 205 67 205 79 c 0
 205 103 217 169 217 244 c 0
 217 277 215 312 208 346 c 1
 207 346 l 2
 188 346 182 373 182 392 c 0
 182 405 182 421 218 427 c 0
 269 437 318 444 359 444 c 0
 445 444 503 416 503 339 c 0
 503 256 462 224 390 200 c 1
 451 160 497 136 498 135 c 0
 504 132 507 127 507 120 c 0
 507 96 479 56 459 56 c 0
442 309 m 0
 442 310 441 369 342 369 c 0
 324 369 304 367 279 363 c 1
 279 347 278 331 278 313 c 0
 278 295 279 274 279 248 c 1
 359 260 442 269 442 309 c 0
EndSplineSet
Validated: 1
EndChar

StartChar: macron
Encoding: 175 175 110
Width: 342
Flags: W
HStem: 494 82<26.22 207.832> 510 81<50.588 305.313>
VStem: 22 301<526.654 571.285>
LayerCount: 2
Fore
SplineSet
208 510 m 0x60
 206 510 102 508 51 495 c 0
 50 495 49 494 48 494 c 2
 46 494 l 2
 32 494 22 518 22 541 c 0
 22 544 23 548 23 551 c 0
 25 566 45 575 68 576 c 1
 69 576 l 1xa0
 93 578 209 581 284 590 c 0
 288 591 293 591 298 591 c 0
 299 591 301 592 302 592 c 0
 317 592 323 584 323 573 c 0
 323 550 298 514 277 510 c 0
 276 510 276 509 275 509 c 0
 266 509 237 510 208 510 c 0x60
EndSplineSet
Validated: 1
EndChar

StartChar: degree
Encoding: 176 176 111
Width: 232
Flags: W
HStem: 316 49<72.5598 162.655> 439 47<76.0866 151.994>
VStem: 28 41<373.142 431.101> 163 40<369.35 426.776>
LayerCount: 2
Fore
SplineSet
122 486 m 1
 130 486 l 2
 176 486 203 447 203 406 c 0
 203 364 175 321 111 316 c 1
 100 316 l 2
 49 316 28 346 28 382 c 0
 28 427 63 480 122 486 c 1
115 439 m 0
 87 439 69 415 69 398 c 0
 69 377 98 365 124 365 c 0
 144 365 163 373 163 389 c 0
 163 391 162 392 162 394 c 0
 155 425 135 439 115 439 c 0
EndSplineSet
Validated: 1
EndChar

StartChar: plusminus
Encoding: 177 177 112
Width: 438
Flags: W
HStem: -18 81<41.6846 205.178> 16 82<206.199 388.391> 228 82<254.086 383.495>
VStem: 186 72<108.766 217.949 300.122 419.778>
LayerCount: 2
Fore
SplineSet
187 218 m 1x30
 93 206 71 201 67 201 c 2
 66 201 l 2
 52 201 43 223 43 245 c 0
 43 259 43 276 82 282 c 0
 108 285 145 286 186 290 c 1
 187 395 187 395 188 401 c 0
 191 420 222 425 237 425 c 0
 250 425 258 420 258 409 c 0
 258 406 254 364 250 297 c 1
 338 307 372 310 376 310 c 2
 379 310 l 2
 396 310 402 302 402 291 c 0
 402 267 371 228 355 228 c 2
 347 228 l 2
 329 228 287 226 251 224 c 1
 253 198 257 174 258 164 c 0
 258 162 259 161 259 159 c 0
 259 137 234 94 212 94 c 0
 207 94 203 96 199 100 c 0
 188 112 188 112 187 218 c 1x30
406 81 m 0
 406 56 378 16 358 16 c 2
 356 16 l 2x70
 353 16 165 6 65 -18 c 1
 61 -18 l 2
 47 -18 38 5 38 28 c 0
 38 39 38 60 82 63 c 0xb0
 113 67 162 71 203 76 c 0
 249 81 325 92 373 97 c 0
 377 97 380 98 384 98 c 0x70
 396 98 406 94 406 81 c 0
EndSplineSet
Validated: 1
EndChar

StartChar: uni00B2
Encoding: 178 178 113
Width: 260
Flags: W
HStem: 248 82<142 213.83> 448 72<88.4631 140.353>
VStem: 143 69<383.322 445.422>
LayerCount: 2
Fore
SplineSet
35 453 m 0
 35 488 83 517 128 520 c 1
 136 520 l 2
 183 520 212 488 212 445 c 2
 212 437 l 1
 208 390 174 355 142 324 c 1
 143 324 186 329 207 330 c 1
 210 330 l 2
 226 330 232 322 232 311 c 0
 232 287 202 248 184 248 c 2
 182 248 l 2
 107 248 54 234 53 234 c 2
 51 234 l 2
 37 234 28 258 28 279 c 0
 28 290 31 300 37 305 c 0
 53 320 67 333 85 350 c 0
 104 367 143 396 143 418 c 0
 143 433 125 448 110 448 c 0
 105 448 100 447 97 442 c 0
 92 432 76 408 60 408 c 0
 40 408 35 439 35 453 c 0
EndSplineSet
Validated: 1
EndChar

StartChar: uni00B3
Encoding: 179 179 114
Width: 256
Flags: W
HStem: 240 75<61.6611 164.505> 352 73<70.6323 117.027> 448 74<65.7471 147.5>
VStem: 127 68<428.76 465.929> 165 68<316.743 352.633>
LayerCount: 2
Fore
SplineSet
58 424 m 0xf0
 43 424 34 454 34 470 c 0
 34 482 38 493 49 499 c 0
 76 513 105 522 131 522 c 0
 164 522 191 507 194 471 c 0
 194 468 195 464 195 461 c 0xf0
 195 446 191 434 185 422 c 1
 210 410 228 386 232 351 c 0
 232 346 233 341 233 336 c 0
 233 308 222 240 112 240 c 0
 45 240 31 269 31 302 c 0
 31 305 32 309 32 312 c 0
 34 328 60 336 79 336 c 0
 102 336 114 315 151 315 c 0
 160 315 165 317 165 322 c 0xe8
 165 323 158 359 118 359 c 0
 97 359 92 352 83 352 c 0
 71 352 64 364 64 378 c 0
 64 396 75 419 95 425 c 0
 108 430 127 435 127 440 c 0
 127 444 113 448 107 448 c 0
 85 448 72 424 58 424 c 0xf0
EndSplineSet
Validated: 1
EndChar

StartChar: acute
Encoding: 180 180 115
Width: 216
Flags: W
HStem: 479 151
VStem: 37 142
LayerCount: 2
Fore
SplineSet
154 630 m 1
 158 630 l 2
 174 630 179 622 179 612 c 0
 179 560 70 484 70 484 c 1
 64 480 58 479 54 479 c 0
 42 479 37 490 37 503 c 0
 37 516 42 532 50 541 c 0
 62 555 100 595 110 611 c 0
 116 623 135 629 154 630 c 1
EndSplineSet
Validated: 1
EndChar

StartChar: mu
Encoding: 181 181 116
Width: 418
Flags: W
HStem: -6 76<125.359 267.536>
VStem: 38 75<-120.858 8> 46 70<241.824 467.89> 304 73<230.345 488.898> 311 76<113 237.143> 314 61<113 492.062>
LayerCount: 2
Fore
SplineSet
177 70 m 0xa0
 241 70 310 113 311 113 c 1xa8
 311 144 313 183 314 241 c 1
 314 269 l 2x84
 314 345 309 407 305 441 c 0
 304 451 303 461 304 469 c 0
 306 483 331 494 350 494 c 0
 363 494 374 489 374 477 c 0
 374 454 377 426 377 394 c 0x90
 377 346 375 292 375 240 c 0x84
 375 179 377 121 386 81 c 0
 386 79 387 77 387 75 c 0
 387 50 360 10 339 10 c 0
 330 10 322 17 318 36 c 1
 299 26 239 -6 169 -6 c 0
 145 -6 126 -1 109 8 c 1
 111 -34 113 -56 113 -68 c 0
 113 -100 86 -136 66 -136 c 0
 55 -136 45 -125 43 -98 c 0
 39 -59 38 8 38 82 c 0xc8
 38 247 45 446 46 449 c 0
 49 463 69 471 91 472 c 1
 95 472 l 2
 111 472 116 466 116 455 c 0
 116 438 101 340 100 237 c 0
 100 236 102 125 104 121 c 0
 116 103 132 70 177 70 c 0xa0
EndSplineSet
Validated: 1
EndChar

StartChar: paragraph
Encoding: 182 182 117
Width: 436
Flags: W
HStem: 224 77<108.062 150> 512 81<359 396.306>
VStem: 22 65<320.54 451.911> 151 63<-12.1945 224 301 484.457> 157 70<-75.6482 203.679> 288 63<0.732975 492.122> 294 71<-59.6482 220.871 277.892 511>
LayerCount: 2
Fore
SplineSet
317 -75 m 0xe2
 296 -75 297 -43 294 -40 c 1
 294 -27 l 2xe2
 294 -23 288 185 288 364 c 0
 288 418 289 469 290 511 c 1
 267 510 243 508 222 505 c 1
 218 459 214 338 214 256 c 2
 214 215 l 1xf4
 215 162 227 -15 227 -30 c 0
 227 -49 203 -91 179 -91 c 0
 168 -91 160 -82 157 -57 c 1
 157 -56 l 2xe8
 157 -43 156 -44 156 -43 c 0
 155 5 152 145 151 224 c 1
 97 226 22 255 22 349 c 0
 22 359 22 369 24 380 c 0
 43 508 119 586 382 593 c 1
 392 593 l 2
 409 593 415 585 415 574 c 0
 415 550 384 512 366 512 c 2
 359 512 l 1
 356 458 351 340 351 263 c 2
 351 230 l 1xf4
 353 170 365 1 365 -14 c 0
 365 -33 341 -75 317 -75 c 0xe2
152 485 m 1
 137 478 87 456 87 381 c 0
 87 329 119 302 150 301 c 1
 150 362 151 441 152 485 c 1
EndSplineSet
Validated: 1
EndChar

StartChar: periodcentered
Encoding: 183 183 118
Width: 140
Flags: W
HStem: 195 82<38.4197 88.2627>
VStem: 34 71<210.689 272.242>
LayerCount: 2
Fore
SplineSet
59 195 m 0
 46 195 34 216 34 242 c 0
 34 245 35 249 35 252 c 0
 37 267 58 276 80 277 c 1
 83 277 l 2
 99 277 105 269 105 258 c 0
 105 234 78 195 59 195 c 0
EndSplineSet
Validated: 1
EndChar

StartChar: cedilla
Encoding: 184 184 119
Width: 192
Flags: W
HStem: -146 187<76.3984 99.374>
LayerCount: 2
Fore
SplineSet
70 -146 m 0
 55 -146 45 -121 45 -98 c 0
 45 -67 59 -92 76 17 c 0
 78 32 98 40 121 41 c 1
 125 41 l 2
 139 41 147 36 146 23 c 0
 146 21 127 -109 87 -138 c 0
 80 -143 75 -146 70 -146 c 0
EndSplineSet
Validated: 1
EndChar

StartChar: uni00B9
Encoding: 185 185 120
Width: 186
Flags: W
HStem: 242 294<85.153 125.031>
VStem: 42 104<425.234 506.672> 68 66<307.658 424>
LayerCount: 2
Fore
SplineSet
95 242 m 0xa0
 84 242 68 243 68 356 c 0xa0
 68 382 69 407 70 424 c 1
 68 423 66 423 65 423 c 0
 50 423 42 448 42 468 c 0
 42 488 49 495 85 526 c 0
 88 529 108 536 124 536 c 0
 136 536 146 532 146 519 c 0xc0
 146 517 145 514 145 512 c 0
 142 489 135 436 134 390 c 1
 134 377 l 2
 134 337 142 321 142 307 c 0
 142 285 117 242 95 242 c 0xa0
EndSplineSet
Validated: 1
EndChar

StartChar: ordmasculine
Encoding: 186 186 121
Width: 286
Flags: W
HStem: 296 76<96.3214 184.377> 446 74<100.569 177.431>
VStem: 31 62<378.631 437.999> 187 61<375.77 438.029>
LayerCount: 2
Fore
SplineSet
31 381 m 0
 31 455 94 520 163 520 c 0
 208 520 248 490 248 423 c 0
 248 362 200 303 133 297 c 0
 129 297 124 296 120 296 c 0
 66 296 31 330 31 381 c 0
140 446 m 0
 112 446 93 423 93 405 c 0
 93 384 122 372 148 372 c 0
 169 372 187 380 187 397 c 0
 187 399 186 400 186 402 c 0
 180 433 160 446 140 446 c 0
EndSplineSet
Validated: 1
EndChar

StartChar: guillemotright
Encoding: 187 187 122
Width: 352
Flags: W
VStem: 134 72<181.698 281.987> 254 72<197.574 298.433>
LayerCount: 2
Fore
SplineSet
146 438 m 0
 146 466 167 485 188 485 c 0
 196 485 203 482 206 475 c 0
 222 438 298 333 316 302 c 0
 323 290 326 277 326 264 c 0
 326 248 322 233 318 225 c 0
 317 223 257 100 228 30 c 0
 218 6 200 0 189 0 c 0
 180 0 172 7 172 29 c 0
 172 38 174 48 180 57 c 0
 206 105 254 214 254 243 c 0
 253 287 154 412 153 414 c 0
 149 418 146 428 146 438 c 0
26 422 m 0
 26 449 45 470 68 470 c 0
 76 470 83 467 86 461 c 0
 102 424 178 318 196 287 c 0
 203 275 206 262 206 249 c 0
 206 200 158 151 111 23 c 0
 103 1 82 -14 68 -14 c 0
 54 -14 52 3 52 14 c 0
 52 23 54 34 61 44 c 0
 88 93 134 199 134 228 c 0
 134 258 76 345 34 397 c 0
 29 401 26 411 26 422 c 0
EndSplineSet
Validated: 1
EndChar

StartChar: onequarter
Encoding: 188 188 123
Width: 484
Flags: W
HStem: 20 76<285.527 333.43>
VStem: 36 104<409.234 491.409> 62 66<291.658 408> 264 61<56 132.196> 356 67<-10.0573 28 110 144>
LayerCount: 2
Fore
SplineSet
89 226 m 0xb8
 78 226 62 227 62 340 c 0xb8
 62 366 63 391 64 408 c 1
 62 407 60 407 59 407 c 0
 44 407 36 433 36 453 c 0
 36 473 41 478 79 510 c 0
 82 513 102 520 118 520 c 0
 130 520 140 516 140 503 c 0xd8
 140 501 139 498 139 496 c 0
 136 473 129 420 128 374 c 1
 128 361 l 2
 128 321 136 305 136 291 c 0
 136 269 111 226 89 226 c 0xb8
53 -26 m 0
 41 -26 29 -9 29 20 c 0
 29 28 30 35 32 38 c 0
 49 70 133 171 187 242 c 0
 244 317 362 478 364 480 c 0
 371 489 387 495 405 496 c 1
 408 496 l 2
 425 496 430 488 430 478 c 0
 430 460 413 434 413 434 c 1
 389 407 296 296 239 219 c 0
 119 57 89 -5 71 -18 c 0
 64 -23 58 -26 53 -26 c 0
353 28 m 1
 326 26 313 20 302 20 c 0
 274 20 264 43 264 69 c 0
 264 93 272 121 283 138 c 0
 295 157 354 245 355 245 c 0
 365 257 390 260 400 260 c 0
 415 260 423 254 421 239 c 0
 421 238 422 143 423 110 c 1
 428 111 433 111 437 111 c 0
 450 111 459 107 459 94 c 0
 459 85 451 50 423 33 c 1
 418 8 396 -25 377 -25 c 0
 362 -25 353 -3 353 22 c 2
 353 28 l 1
356 144 m 1
 334 117 325 104 325 99 c 0
 325 97 327 96 330 96 c 0
 332 96 334 97 337 97 c 0
 341 98 349 99 356 100 c 1
 356 144 l 1
EndSplineSet
Validated: 1
EndChar

StartChar: onehalf
Encoding: 189 189 124
Width: 490
Flags: W
HStem: -14 82<376.077 447.83> -14 75<376 440> 186 71<322.474 374.353>
VStem: 33 104<409.234 491.409> 60 65<291.657 408> 377 69<120.938 183.422>
LayerCount: 2
Fore
SplineSet
86 227 m 0x2c
 60 227 60 266 60 346 c 0x2c
 60 367 60 384 61 408 c 1
 59 407 58 407 56 407 c 0
 41 407 33 433 33 453 c 0
 33 473 38 478 76 510 c 0
 79 513 99 520 115 520 c 0
 127 520 137 516 137 503 c 0x34
 137 501 136 498 136 496 c 0
 133 473 126 420 125 374 c 1
 125 359 l 2
 125 320 132 305 132 291 c 0
 132 269 108 227 86 227 c 0x2c
49 -26 m 0
 37 -26 26 -7 26 20 c 0
 26 28 27 35 29 38 c 0
 46 70 129 171 183 242 c 0
 240 317 359 478 361 480 c 0
 368 490 384 495 402 496 c 1
 405 496 l 2
 422 496 427 488 427 478 c 0
 427 460 410 434 410 434 c 1
 386 407 293 297 236 220 c 0
 116 58 86 -4 68 -17 c 0
 60 -23 54 -26 49 -26 c 0
294 145 m 0
 280 145 270 165 270 191 c 0
 270 198 271 204 272 208 c 0
 280 222 308 253 362 257 c 1
 370 257 l 2
 417 257 446 226 446 183 c 2
 446 175 l 1
 442 128 408 92 376 61 c 1x64
 377 61 420 67 441 68 c 1
 444 68 l 2
 460 68 466 60 466 49 c 0
 466 25 436 -14 418 -14 c 2
 416 -14 l 2xa4
 341 -14 289 -28 288 -28 c 2
 286 -28 l 2
 272 -28 262 -3 262 18 c 0
 262 29 265 38 271 43 c 0
 287 58 301 71 319 88 c 0
 338 105 377 134 377 156 c 0
 377 171 359 186 344 186 c 0
 339 186 334 184 331 179 c 0
 326 169 310 145 294 145 c 0
EndSplineSet
Validated: 1
EndChar

StartChar: threequarters
Encoding: 190 190 125
Width: 552
Flags: W
HStem: 29 75<352.197 400.43> 36 68<392.001 419> 228 76<61.4505 164.273> 437 73<65.0575 145.495 462.714 485>
VStem: 126 68<417.565 454.407> 165 67<305.28 341.083> 330 62<65 140.213> 423 67<0.512402 36 118 152>
LayerCount: 2
Fore
SplineSet
57 413 m 0x3b
 42 413 34 441 34 457 c 0
 34 469 38 481 49 487 c 0
 78 502 107 510 131 510 c 0
 165 510 190 494 193 460 c 0
 193 456 194 453 194 449 c 0x3b
 194 435 191 421 185 410 c 1
 210 398 227 375 231 340 c 0
 231 335 232 330 232 325 c 0
 232 296 221 228 112 228 c 0
 33 228 31 268 31 290 c 0
 31 294 32 298 32 301 c 0
 34 317 60 325 79 325 c 0
 101 325 113 304 150 304 c 0
 159 304 165 306 165 311 c 0x37
 165 316 154 348 117 348 c 0
 95 348 91 341 82 341 c 0
 70 341 64 352 64 366 c 0
 64 420 126 417 126 429 c 0
 126 433 112 437 106 437 c 0
 84 437 71 413 57 413 c 0x3b
125 -18 m 0
 113 -18 102 1 102 28 c 0
 102 36 103 43 105 46 c 0
 122 78 205 179 259 250 c 0
 316 326 434 486 436 488 c 0
 443 498 460 503 478 504 c 1
 481 504 l 2
 497 504 503 497 503 487 c 0
 503 469 485 443 485 443 c 1
 461 416 368 305 311 228 c 0
 191 66 161 4 143 -9 c 0
 135 -15 130 -18 125 -18 c 0
419 36 m 1x73
 403 35 370 29 369 29 c 0xb3
 341 29 330 52 330 78 c 0
 330 102 339 129 349 146 c 0
 361 165 421 253 422 253 c 0
 432 265 457 268 467 268 c 0
 482 268 489 262 487 247 c 0
 487 246 489 150 490 118 c 1
 495 119 500 119 504 119 c 0
 517 119 525 115 525 102 c 0
 525 101 522 62 489 42 c 1
 484 17 462 -16 443 -16 c 0
 425 -16 419 9 419 30 c 2
 419 36 l 1x73
423 152 m 1
 401 125 392 112 392 107 c 0
 392 105 394 104 397 104 c 0
 399 104 401 105 404 105 c 0
 408 106 415 107 422 108 c 1
 422 119 423 131 423 142 c 2
 423 152 l 1
EndSplineSet
Validated: 1
EndChar

StartChar: questiondown
Encoding: 191 191 126
Width: 376
Flags: W
HStem: -83 74<107.599 233.485> 418 82<193.726 243.24>
VStem: 22 61<15.8208 113.38> 190 71<435.153 495.624> 207 64<267.133 343.415>
LayerCount: 2
Fore
SplineSet
213 418 m 0xf0
 202 418 190 436 190 465 c 0
 190 469 191 473 191 476 c 0
 193 491 213 499 236 500 c 1
 239 500 l 2
 255 500 261 493 261 482 c 0
 261 458 233 418 213 418 c 0xf0
195 322 m 0
 195 351 216 370 237 370 c 0
 265 370 271 317 271 310 c 0
 271 215 83 151 83 61 c 0
 83 30 114 -9 166 -9 c 0
 206 -9 249 13 274 52 c 0
 275 54 284 67 317 69 c 1
 320 69 l 2
 336 69 343 62 343 50 c 0
 343 10 255 -83 137 -83 c 0
 62 -83 22 -42 22 42 c 0
 22 126 86 181 169 253 c 0
 198 278 207 283 207 288 c 0xe8
 207 293 195 301 195 322 c 0
EndSplineSet
Validated: 1
EndChar

StartChar: Agrave
Encoding: 192 192 127
Width: 560
Flags: W
HStem: 602 74<264.803 321.169>
VStem: 19 63<-101.598 -25.4404> 475 66<-40.3445 30.1588>
LayerCount: 2
Fore
SplineSet
286 602 m 2
 283 602 l 2
 255 602 172 643 156 661 c 0
 148 670 145 687 145 701 c 0
 145 705 146 709 146 712 c 0
 148 728 173 736 192 736 c 0
 202 736 210 734 213 730 c 1
 228 717 291 680 317 676 c 0
 327 675 332 665 332 654 c 0
 332 625 303 602 286 602 c 2
42 -110 m 0
 27 -110 19 -93 19 -65 c 0
 19 -57 20 -51 21 -48 c 0
 206 440 229 495 249 560 c 0
 254 576 276 585 295 585 c 0
 306 585 315 582 318 575 c 0
 334 547 395 414 429 333 c 0
 467 244 541 21 541 12 c 2
 541 8 l 2
 541 -15 515 -56 494 -56 c 0
 486 -56 480 -51 475 -38 c 0
 467 -18 448 53 424 129 c 1
 385 122 259 97 123 50 c 1
 102 -12 83 -71 82 -72 c 0
 75 -88 58 -110 42 -110 c 0
279 470 m 1
 269 446 159 152 152 132 c 1
 181 138 181 139 400 201 c 1
 376 271 360 315 279 470 c 1
EndSplineSet
Validated: 1
EndChar

StartChar: Aacute
Encoding: 193 193 128
Width: 566
Flags: W
VStem: 23 63<-101.598 -25.4404> 479 66<-40.3445 30.1588>
LayerCount: 2
Fore
SplineSet
379 759 m 1
 383 759 l 2
 399 759 404 751 404 741 c 0
 404 689 297 614 296 613 c 0
 290 609 284 608 280 608 c 0
 268 608 262 619 262 633 c 0
 262 646 267 661 275 670 c 0
 287 684 325 724 335 740 c 0
 341 752 360 758 379 759 c 1
46 -110 m 0
 31 -110 23 -93 23 -65 c 0
 23 -57 24 -51 25 -48 c 0
 210 440 233 495 253 560 c 0
 258 576 280 585 299 585 c 0
 310 585 319 582 322 575 c 0
 338 547 399 414 433 333 c 0
 471 244 545 21 545 12 c 2
 545 8 l 2
 545 -15 519 -56 498 -56 c 0
 490 -56 484 -51 479 -38 c 0
 471 -18 452 53 428 129 c 1
 389 122 263 97 127 50 c 1
 106 -12 87 -71 86 -72 c 0
 79 -88 62 -110 46 -110 c 0
283 470 m 1
 273 446 163 152 156 132 c 1
 185 138 185 139 404 201 c 1
 380 271 364 315 283 470 c 1
EndSplineSet
Validated: 1
EndChar

StartChar: Acircumflex
Encoding: 194 194 129
Width: 564
Flags: W
VStem: 21 63<-101.598 -25.4404> 477 66<-40.3445 30.1588>
LayerCount: 2
Fore
SplineSet
443 658 m 0
 443 628 418 601 395 601 c 2
 394 601 l 2
 384 601 333 607 283 644 c 1
 245 606 198 581 174 581 c 0
 168 581 156 581 156 608 c 0
 156 625 164 643 182 651 c 0
 210 664 252 704 259 718 c 0
 264 727 286 735 304 735 c 0
 313 735 321 733 324 728 c 1
 395 655 443 693 443 658 c 0
44 -110 m 0
 29 -110 21 -93 21 -65 c 0
 21 -57 22 -51 23 -48 c 0
 208 440 231 495 251 560 c 0
 256 576 278 585 297 585 c 0
 308 585 317 582 320 575 c 0
 336 547 397 414 431 333 c 0
 469 244 543 21 543 12 c 2
 543 8 l 2
 543 -15 517 -56 496 -56 c 0
 488 -56 482 -51 477 -38 c 0
 469 -18 450 53 426 129 c 1
 387 122 261 97 125 50 c 1
 104 -12 85 -71 84 -72 c 0
 77 -88 60 -110 44 -110 c 0
281 470 m 1
 271 446 161 152 154 132 c 1
 183 138 183 139 402 201 c 1
 378 271 362 315 281 470 c 1
EndSplineSet
Validated: 1
EndChar

StartChar: Atilde
Encoding: 195 195 130
Width: 564
Flags: W
HStem: 611 78<286.724 407.308> 645 81<154.398 278.214>
VStem: 21 63<-101.598 -25.4404> 477 66<-40.3445 30.1588>
LayerCount: 2
Fore
SplineSet
206 645 m 0x70
 164 645 150 611 131 611 c 0xb0
 114 611 106 636 106 656 c 0
 106 667 109 676 113 680 c 0
 156 715 192 726 222 726 c 0x70
 277 726 316 689 354 689 c 0
 365 689 376 692 387 700 c 0
 397 711 416 713 427 714 c 1
 430 714 l 2
 447 714 452 706 452 695 c 0
 452 663 407 611 341 611 c 0xb0
 283 611 244 645 206 645 c 0x70
44 -110 m 0
 29 -110 21 -93 21 -65 c 0
 21 -57 22 -51 23 -48 c 0
 208 440 231 495 251 560 c 0
 256 576 278 585 297 585 c 0
 308 585 317 582 320 575 c 0
 336 547 397 414 431 333 c 0
 469 244 543 21 543 12 c 2
 543 8 l 2
 543 -15 517 -56 496 -56 c 0
 488 -56 482 -51 477 -38 c 0
 469 -18 450 53 426 129 c 1
 387 122 261 97 125 50 c 1
 104 -12 85 -71 84 -72 c 0
 77 -88 60 -110 44 -110 c 0
281 470 m 1
 271 446 161 152 154 132 c 1
 183 138 183 139 402 201 c 1
 378 271 362 315 281 470 c 1
EndSplineSet
Validated: 1
EndChar

StartChar: Adieresis
Encoding: 196 196 131
Width: 562
Flags: W
HStem: 584 82<165.726 214.83> 598 82<342.726 391.83>
VStem: 21 63<-101.598 -25.4404> 162 71<601.572 661.624> 339 71<615.572 675.624> 477 66<-40.3445 30.1588>
LayerCount: 2
Fore
SplineSet
362 598 m 0x7c
 351 598 339 616 339 645 c 0
 339 649 340 653 340 656 c 0
 342 671 362 679 385 680 c 1
 388 680 l 2
 404 680 410 672 410 662 c 0
 410 637 380 598 362 598 c 0x7c
185 584 m 0xbc
 174 584 162 602 162 631 c 0
 162 635 163 639 163 642 c 0
 165 657 185 665 208 666 c 1
 211 666 l 2
 227 666 233 658 233 648 c 0
 233 623 203 584 185 584 c 0xbc
44 -110 m 0
 29 -110 21 -93 21 -65 c 0
 21 -57 22 -51 23 -48 c 0
 208 440 231 495 251 560 c 0
 256 576 278 585 297 585 c 0
 308 585 317 582 320 575 c 0
 336 547 397 414 431 333 c 0
 469 244 543 21 543 12 c 2
 543 8 l 2
 543 -15 517 -56 496 -56 c 0
 488 -56 482 -51 477 -38 c 0
 469 -18 450 53 426 129 c 1
 387 122 261 97 125 50 c 1
 104 -12 85 -71 84 -72 c 0
 77 -88 60 -110 44 -110 c 0
281 470 m 1
 271 446 161 152 154 132 c 1
 183 138 183 139 402 201 c 1
 378 271 362 315 281 470 c 1
EndSplineSet
Validated: 1
EndChar

StartChar: Aring
Encoding: 197 197 132
Width: 560
Flags: W
HStem: 662 48<237.299 312.14>
VStem: 19 63<-101.598 -8.77606> 190 40<595.78 653.143> 324 41<590.788 651.7> 475 66<-40.3445 30.1588>
LayerCount: 2
Fore
SplineSet
42 -110 m 0
 27 -110 19 -93 19 -65 c 0
 19 -57 20 -51 21 -48 c 0
 184 381 216 467 242 540 c 1
 206 547 190 575 190 606 c 0
 190 651 224 703 283 710 c 1
 292 710 l 2
 338 710 365 670 365 629 c 0
 365 602 353 575 328 557 c 1
 352 510 400 403 429 333 c 0
 467 244 541 21 541 12 c 2
 541 8 l 2
 541 -15 515 -56 494 -56 c 0
 486 -56 480 -51 475 -38 c 0
 467 -18 448 53 424 129 c 1
 385 122 259 97 123 50 c 1
 102 -12 83 -71 82 -72 c 0
 75 -88 58 -110 42 -110 c 0
276 662 m 0
 248 662 230 638 230 621 c 0
 230 600 259 588 285 588 c 0
 305 588 324 596 324 612 c 0
 324 614 323 615 323 617 c 0
 316 648 296 662 276 662 c 0
279 470 m 1
 269 446 159 152 152 132 c 1
 181 138 181 139 400 201 c 1
 376 271 360 315 279 470 c 1
EndSplineSet
Validated: 1
EndChar

StartChar: AE
Encoding: 198 198 133
Width: 852
Flags: W
HStem: -81 75<451.463 619.576> 271 81<560.197 782.83> 531 82<563.896 814.785>
VStem: 18 68<-120.681 -35.5986> 389 62<-28.5 103.32> 403 70<319.361 497> 417 61<176.953 244.633 315 447.959>
LayerCount: 2
Fore
SplineSet
43 -132 m 0xf8
 21 -132 18 -95 18 -86 c 0
 18 -78 20 -72 22 -68 c 0
 45 -20 138 176 186 274 c 0
 234 373 299 489 324 545 c 0
 329 558 351 563 351 563 c 1
 591 609 696 611 805 613 c 1
 811 613 l 2
 828 613 834 605 834 594 c 0
 834 570 802 531 785 531 c 0
 784 531 758 533 717 533 c 0
 597 533 474 516 473 511 c 0xf4
 475 478 478 399 478 315 c 1
 605 344 775 352 778 352 c 2
 779 352 l 2
 795 352 801 344 801 333 c 0
 801 309 771 271 753 271 c 2
 746 271 l 2
 698 271 578 271 478 239 c 1xf2
 475 59 451 54 451 15 c 0
 451 -4 479 -6 491 -6 c 0
 534 -6 600 20 798 37 c 0
 802 38 806 38 809 38 c 0
 826 38 833 30 833 19 c 0
 833 -5 802 -43 786 -44 c 0
 770 -45 609 -56 507 -77 c 0
 492 -80 479 -81 467 -81 c 0
 410 -81 389 -49 389 -8 c 0
 389 0 390 8 391 16 c 0
 397 52 404 75 410 105 c 1
 371 98 256 73 136 30 c 1
 115 -18 96 -62 86 -87 c 0
 79 -107 60 -132 43 -132 c 0xf8
174 115 m 1
 205 122 415 182 417 183 c 1
 417 223 l 2xf2
 417 370 403 480 403 483 c 0
 402 488 403 493 403 497 c 1
 387 493 375 490 364 487 c 1
 329 432 216 207 174 115 c 1
EndSplineSet
Validated: 1
EndChar

StartChar: Ccedilla
Encoding: 199 199 134
Width: 504
Flags: W
HStem: -88 73<186.516 330.708> 511 77<236.141 357.574>
VStem: 20 63<76.3619 279.418> 61 65<-141.065 -71.9508> 406 67<418.43 465.248>
LayerCount: 2
Fore
SplineSet
20 153 m 0xe8
 20 289 138 588 317 588 c 0
 430 588 473 485 473 467 c 0
 473 444 447 403 426 403 c 0
 416 403 414 408 406 423 c 0
 388 481 341 511 294 511 c 0
 265 511 237 500 214 478 c 0
 139 406 83 285 83 178 c 0xe8
 83 121 99 68 136 29 c 1
 137 30 166 75 168 76 c 0
 176 84 191 89 208 90 c 1
 212 90 l 2
 228 90 233 83 233 73 c 0
 233 55 216 30 210 23 c 0
 202 14 194 5 186 -6 c 1
 192 -9 212 -15 240 -15 c 0
 284 -15 348 0 419 69 c 0
 422 72 433 81 458 82 c 1
 460 82 l 2
 477 82 483 74 483 64 c 0
 483 46 466 21 461 15 c 0
 444 -3 404 -66 250 -86 c 0
 241 -87 233 -88 224 -88 c 0
 196 -88 169 -82 145 -71 c 1
 139 -83 132 -96 126 -110 c 0
 119 -127 101 -151 85 -151 c 0
 67 -151 61 -125 61 -106 c 0xd8
 61 -94 61 -89 94 -36 c 1
 48 7 20 75 20 153 c 0xe8
EndSplineSet
Validated: 1
EndChar

StartChar: Egrave
Encoding: 200 200 135
Width: 528
Flags: W
HStem: -97 76<126.057 292.963> 255 82<232.868 455.83> 473 21G<37 47> 516 81<231.576 487.785> 600 75<263.803 319.89>
VStem: 62 63<-43.5 89.3596> 77 70<303.361 480> 91 60<29.4259 229.318 300 431.959>
LayerCount: 2
Fore
SplineSet
285 600 m 2xf8
 282 600 l 2
 254 600 171 641 155 659 c 0
 147 668 144 685 144 699 c 0
 144 703 145 707 145 710 c 0
 147 726 172 734 191 734 c 0
 201 734 209 732 212 728 c 1
 227 715 290 679 316 675 c 0
 326 674 331 665 331 653 c 0
 331 622 301 600 285 600 c 2xf8
62 -23 m 0xfc
 62 30 90 68 91 167 c 1
 91 207 l 2xf9
 91 354 77 464 77 467 c 0
 76 471 76 476 76 480 c 1
 48 473 47 473 47 473 c 1
 44 473 l 2
 30 473 21 496 21 519 c 0
 21 530 21 547 60 554 c 0
 239 585 354 595 478 597 c 1
 484 597 l 2
 501 597 507 590 507 579 c 0
 507 555 475 516 458 516 c 0
 457 516 433 518 396 518 c 0
 273 518 148 500 147 495 c 0xfa
 149 462 152 384 152 300 c 1
 279 329 448 337 451 337 c 2
 452 337 l 2
 468 337 474 329 474 318 c 0
 474 294 444 255 426 255 c 2
 419 255 l 2
 329 255 227 248 151 224 c 1xf9
 148 45 125 41 125 0 c 0
 125 -19 153 -21 165 -21 c 0
 208 -21 274 5 471 21 c 0
 475 22 479 22 482 22 c 0
 499 22 506 14 506 3 c 0
 506 -21 475 -59 459 -60 c 0
 443 -61 282 -72 180 -93 c 0
 165 -96 152 -97 140 -97 c 0
 82 -97 62 -64 62 -23 c 0xfc
EndSplineSet
Validated: 1
EndChar

StartChar: Eacute
Encoding: 201 201 136
Width: 532
Flags: W
HStem: -97 76<128.057 294.963> 255 82<234.868 457.83> 473 21G<39 49> 516 81<233.576 489.785>
VStem: 64 63<-43.5 89.3596> 79 70<303.361 480> 93 60<29.4259 229.318 300 431.959>
LayerCount: 2
Fore
SplineSet
361 750 m 1xf0
 365 750 l 2
 381 750 386 742 386 732 c 0
 386 680 279 605 278 604 c 0
 272 600 266 599 262 599 c 0
 250 599 244 610 244 624 c 0
 244 637 249 652 257 661 c 0
 269 675 307 716 317 732 c 0
 323 744 342 749 361 750 c 1xf0
64 -23 m 0xf8
 64 30 92 68 93 167 c 1
 93 207 l 2xf2
 93 354 79 464 79 467 c 0
 78 471 78 476 78 480 c 1
 50 473 49 473 49 473 c 1
 46 473 l 2
 32 473 23 496 23 519 c 0
 23 530 23 547 62 554 c 0
 241 585 356 595 480 597 c 1
 486 597 l 2
 503 597 509 590 509 579 c 0
 509 555 477 516 460 516 c 0
 459 516 435 518 398 518 c 0
 275 518 150 500 149 495 c 0xf4
 151 462 154 384 154 300 c 1
 281 329 450 337 453 337 c 2
 454 337 l 2
 470 337 476 329 476 318 c 0
 476 294 446 255 428 255 c 2
 421 255 l 2
 331 255 229 248 153 224 c 1xf2
 150 45 127 41 127 0 c 0
 127 -19 155 -21 167 -21 c 0
 210 -21 276 5 473 21 c 0
 477 22 481 22 484 22 c 0
 501 22 508 14 508 3 c 0
 508 -21 477 -59 461 -60 c 0
 445 -61 284 -72 182 -93 c 0
 167 -96 154 -97 142 -97 c 0
 84 -97 64 -64 64 -23 c 0xf8
EndSplineSet
Validated: 1
EndChar

StartChar: Ecircumflex
Encoding: 202 202 137
Width: 532
Flags: W
HStem: -97 76<128.057 294.963> 255 82<234.868 457.83> 473 21G<39 49> 516 81<233.576 489.785> 621 74<342.297 410.097>
VStem: 64 63<-43.5 89.3596> 79 70<303.361 480> 93 60<29.4259 229.318 300 431.959>
LayerCount: 2
Fore
SplineSet
422 674 m 0xf8
 422 645 392 621 376 621 c 2
 374 621 l 2
 364 621 312 627 263 664 c 1
 224 625 177 600 154 600 c 0
 143 600 136 608 136 628 c 0
 136 645 144 663 162 671 c 0
 190 684 232 724 239 738 c 0
 244 747 266 755 284 755 c 0
 293 755 301 753 304 748 c 1
 339 712 353 708 409 695 c 0
 418 693 422 685 422 674 c 0xf8
64 -23 m 0xfc
 64 30 92 68 93 167 c 1
 93 207 l 2xf9
 93 354 79 464 79 467 c 0
 78 471 78 476 78 480 c 1
 50 473 49 473 49 473 c 1
 46 473 l 2
 32 473 23 496 23 519 c 0
 23 530 23 547 62 554 c 0
 241 585 356 595 480 597 c 1
 486 597 l 2
 503 597 509 590 509 579 c 0
 509 555 477 516 460 516 c 0
 459 516 435 518 398 518 c 0
 275 518 150 500 149 495 c 0xfa
 151 462 154 384 154 300 c 1
 281 329 450 337 453 337 c 2
 454 337 l 2
 470 337 476 329 476 318 c 0
 476 294 446 255 428 255 c 2
 421 255 l 2
 331 255 229 248 153 224 c 1xf9
 150 45 127 41 127 0 c 0
 127 -19 155 -21 167 -21 c 0
 210 -21 276 5 473 21 c 0
 477 22 481 22 484 22 c 0
 501 22 508 14 508 3 c 0
 508 -21 477 -59 461 -60 c 0
 445 -61 284 -72 182 -93 c 0
 167 -96 154 -97 142 -97 c 0
 84 -97 64 -64 64 -23 c 0xfc
EndSplineSet
Validated: 1
EndChar

StartChar: Edieresis
Encoding: 203 203 138
Width: 524
Flags: W
HStem: -97 76<124.057 290.963> 255 82<230.868 453.83> 473 21G<35 45> 516 81<229.576 485.785> 600 82<165.726 214.83> 614 81<342.552 392.24>
VStem: 60 63<-43.5 89.3596> 75 70<303.361 480> 89 60<29.4259 229.318 300 431.959> 162 71<617.572 677.624> 339 71<631.078 690.624>
LayerCount: 2
Fore
SplineSet
363 614 m 0xf460
 353 614 339 628 339 660 c 0
 339 664 340 668 340 671 c 0
 342 686 362 694 385 695 c 1
 388 695 l 2
 404 695 410 687 410 677 c 0
 410 654 381 614 363 614 c 0xf460
185 600 m 0xf860
 174 600 162 618 162 647 c 0
 162 651 163 655 163 658 c 0
 165 673 185 681 208 682 c 1
 211 682 l 2
 227 682 233 674 233 664 c 0
 233 639 203 600 185 600 c 0xf860
60 -23 m 0xf260
 60 30 88 68 89 167 c 1
 89 207 l 2xf0e0
 89 354 75 464 75 467 c 0
 74 471 74 476 74 480 c 1
 46 473 45 473 45 473 c 1
 42 473 l 2
 28 473 19 496 19 519 c 0
 19 530 19 547 58 554 c 0
 237 585 352 595 476 597 c 1
 482 597 l 2
 499 597 505 590 505 579 c 0
 505 555 473 516 456 516 c 0
 455 516 431 518 394 518 c 0
 271 518 146 500 145 495 c 0xf160
 147 462 150 384 150 300 c 1
 277 329 446 337 449 337 c 2
 450 337 l 2
 466 337 472 329 472 318 c 0
 472 294 442 255 424 255 c 2
 417 255 l 2
 327 255 225 248 149 224 c 1xf0e0
 146 45 123 41 123 0 c 0
 123 -19 151 -21 163 -21 c 0
 206 -21 272 5 469 21 c 0
 473 22 477 22 480 22 c 0
 497 22 504 14 504 3 c 0
 504 -21 473 -59 457 -60 c 0
 441 -61 280 -72 178 -93 c 0
 163 -96 150 -97 138 -97 c 0
 80 -97 60 -64 60 -23 c 0xf260
EndSplineSet
Validated: 1
EndChar

StartChar: Igrave
Encoding: 204 204 139
Width: 336
Flags: W
HStem: -97 92<37.048 134.925> -70 81<207.754 305.19> 488 21G<37 45.5> 488 21G<37 45.5> 509 82<202.135 298.906> 610 75<172.349 228.4>
VStem: 129 64<11.8801 500> 135 71<3 237.225 268.5 500>
LayerCount: 2
Fore
SplineSet
193 610 m 2x06
 190 610 l 2
 163 610 83 649 63 669 c 0
 55 678 52 694 52 709 c 0
 52 713 53 717 53 720 c 0
 55 735 75 743 98 744 c 1
 102 744 l 2
 111 744 117 742 120 738 c 1
 135 725 199 689 225 685 c 0
 234 684 239 674 239 662 c 0
 239 630 208 610 193 610 c 2x06
27 -52 m 0
 27 -27 27 -19 135 -5 c 1x85
 133 57 129 215 129 279 c 2
 129 399 l 2
 129 441 129 479 130 500 c 1
 96 496 65 492 48 489 c 0
 47 489 46 488 45 488 c 2
 44 488 l 2xa6
 30 488 20 513 20 536 c 0
 20 539 21 543 21 546 c 0
 23 557 34 563 49 567 c 1
 50 568 l 1
 94 578 244 591 295 591 c 2
 299 591 l 1
 312 590 317 583 317 573 c 0
 317 550 291 514 271 509 c 1
 260 509 l 2
 247 509 225 508 200 506 c 1
 197 465 193 359 193 281 c 2
 193 241 l 1x0e
 195 161 204 46 206 3 c 1
 243 7 278 11 297 11 c 2
 300 11 l 2
 317 11 323 3 323 -8 c 0
 323 -31 296 -66 277 -70 c 1
 274 -70 l 2x4d
 241 -70 91 -88 52 -97 c 1
 51 -97 l 2x85
 37 -97 27 -75 27 -52 c 0
EndSplineSet
Validated: 1
EndChar

StartChar: Iacute
Encoding: 205 205 140
Width: 332
Flags: W
HStem: -97 92<33.048 130.925> -70 81<203.754 301.19> 488 21G<33 41.5> 488 21G<33 41.5> 509 82<198.135 294.906>
VStem: 125 64<11.8801 500> 131 71<3 237.225 268.5 500> 211 69<716.563 746.999>
LayerCount: 2
Fore
SplineSet
138 635 m 0x01
 138 649 139 652 148 669 c 1
 148 670 l 1
 149 671 l 1
 151 672 l 1
 163 686 201 727 211 743 c 0
 211 744 212 744 212 745 c 0
 212 746 213 747 214 747 c 0
 221 756 238 760 255 761 c 1
 259 761 l 2
 275 761 280 754 280 745 c 0
 280 693 173 617 171 616 c 0
 164 612 158 611 154 611 c 0
 142 611 138 622 138 635 c 0x01
23 -52 m 0
 23 -27 23 -19 131 -5 c 1x83
 129 57 125 215 125 279 c 2
 125 399 l 2
 125 441 125 479 126 500 c 1
 92 496 61 492 44 489 c 0
 43 489 42 488 41 488 c 2
 40 488 l 2xa5
 26 488 16 513 16 536 c 0
 16 539 17 543 17 546 c 0
 19 557 30 563 45 567 c 1
 46 568 l 1
 90 578 240 591 291 591 c 2
 295 591 l 1
 308 590 313 583 313 573 c 0
 313 550 287 514 267 509 c 1
 256 509 l 2
 243 509 221 508 196 506 c 1
 193 465 189 359 189 281 c 2
 189 241 l 1x0d
 191 161 200 46 202 3 c 1
 239 7 274 11 293 11 c 2
 296 11 l 2
 313 11 319 3 319 -8 c 0
 319 -31 292 -66 273 -70 c 1
 270 -70 l 2x4b
 237 -70 87 -88 48 -97 c 1
 47 -97 l 2x83
 33 -97 23 -75 23 -52 c 0
EndSplineSet
Validated: 1
EndChar

StartChar: Icircumflex
Encoding: 206 206 141
Width: 338
Flags: W
HStem: -97 92<35.048 132.925> -70 81<205.754 303.19> 488 21G<35 43.5> 488 21G<35 43.5> 509 82<200.135 296.906>
VStem: 127 64<51.9679 500> 133 71<3 238.194 284.676 500>
LayerCount: 2
Fore
SplineSet
260 626 m 2x00
 257 626 l 1
 211 629 171 652 148 669 c 1
 107 628 61 606 38 606 c 0
 33 606 20 606 20 632 c 0
 20 650 29 669 46 677 c 0
 74 689 116 730 123 744 c 0
 123 745 123 745 124 745 c 0
 131 754 148 759 165 760 c 1
 169 760 l 2
 178 760 185 758 188 753 c 1
 201 740 234 708 292 701 c 1
 292 700 l 1
 293 700 l 1
 302 699 306 690 306 679 c 0
 306 648 276 626 260 626 c 2x00
275 -70 m 1x4a
 272 -70 l 2x4a
 239 -70 89 -88 50 -97 c 1
 49 -97 l 2
 35 -97 25 -76 25 -52 c 0
 25 -27 25 -19 133 -5 c 1x82
 131 57 127 215 127 279 c 2
 127 399 l 2
 127 441 127 479 128 500 c 1
 94 496 63 492 46 489 c 0
 45 489 44 488 43 488 c 2
 42 488 l 2xa4
 28 488 18 513 18 536 c 0
 18 548 19 559 47 567 c 1
 48 568 l 1
 92 578 242 591 293 591 c 2
 297 591 l 1
 310 590 315 583 315 573 c 0
 315 550 289 514 269 509 c 1
 258 509 l 2
 245 509 223 508 198 506 c 1
 195 465 191 359 191 281 c 0x0c
 191 178 200 86 204 3 c 1
 241 7 276 11 295 11 c 2
 298 11 l 2
 315 11 321 3 321 -8 c 0
 321 -31 294 -66 275 -70 c 1x4a
EndSplineSet
Validated: 1
EndChar

StartChar: Idieresis
Encoding: 207 207 142
Width: 334
Flags: W
HStem: -97 92<33.048 130.925> -70 81<203.754 301.19> 488 21G<33 41.5> 488 21G<33 41.5> 509 82<198.135 294.906> 600 82<43.4539 92.8726> 614 81<220.454 270.353>
VStem: 40 71<617.163 678.179> 125 64<50.6499 500> 131 71<3 238.194 284.676 500> 217 71<630.769 690.909>
LayerCount: 2
Fore
SplineSet
217 660 m 0x0320
 217 671 217 693 263 695 c 1
 267 695 l 2
 283 695 288 687 288 677 c 0
 288 653 259 614 241 614 c 0
 232 614 217 627 217 660 c 0x0320
40 647 m 0
 40 659 40 680 86 682 c 1
 90 682 l 2
 106 682 111 674 111 664 c 0
 111 640 82 600 63 600 c 0x0520
 53 600 40 615 40 647 c 0
273 -70 m 1x4960
 270 -70 l 2x4960
 237 -70 87 -88 48 -97 c 1
 47 -97 l 2
 33 -97 23 -76 23 -52 c 0
 23 -27 23 -19 131 -5 c 1x8160
 129 57 125 215 125 279 c 2
 125 399 l 2
 125 441 125 479 126 500 c 1
 92 496 61 492 44 489 c 0
 43 489 42 488 41 488 c 2
 40 488 l 2xa1a0
 26 488 16 513 16 536 c 0
 16 548 17 559 45 567 c 1
 46 568 l 1
 90 578 240 591 291 591 c 2
 295 591 l 1
 308 590 313 583 313 573 c 0
 313 550 287 514 267 509 c 1
 256 509 l 2
 243 509 221 508 196 506 c 1
 193 465 189 359 189 281 c 0x09a0
 189 178 198 86 202 3 c 1
 239 7 274 11 293 11 c 2
 296 11 l 2
 313 11 319 3 319 -8 c 0
 319 -31 292 -66 273 -70 c 1x4960
EndSplineSet
Validated: 1
EndChar

StartChar: Eth
Encoding: 208 208 143
Width: 546
Flags: W
HStem: -109 82<32.9358 76 147 217.154> 174 82<27.9189 50 50.0123 71> 198 82<142.601 262.443> 468 78<23.261 76.4395> 508 76<150.685 352.74>
VStem: 71 68<-22.6094 180 264 474.89> 76 71<-23 179.495 264.312 478> 466 61<166.957 384.793>
LayerCount: 2
Fore
SplineSet
29 -63 m 0x8d
 29 -52 29 -29 76 -27 c 1x8b
 75 14 73 104 72 180 c 1
 67 179 50 174 50 174 c 1
 48 174 l 2
 34 174 24 197 24 220 c 0
 24 241 31 252 71 256 c 1
 71 323 75 433 78 477 c 1
 78 478 l 1
 57 471 47 468 41 468 c 0
 31 468 20 486 20 514 c 0
 20 518 21 522 21 525 c 0
 22 536 33 542 47 546 c 0xd5
 127 570 195 583 252 584 c 1
 263 584 l 2
 459 584 527 457 527 300 c 0
 527 208 494 -97 55 -109 c 1
 53 -109 l 2
 39 -109 29 -86 29 -63 c 0x8d
139 264 m 1xad
 140 264 245 280 253 280 c 2
 258 280 l 2
 275 280 281 272 281 261 c 0
 281 237 250 198 233 198 c 2
 232 198 l 2
 219 198 175 196 141 192 c 1
 144 126 147 48 147 2 c 2
 147 -23 l 1xab
 378 3 466 126 466 270 c 0
 466 314 461 508 246 508 c 0
 217 508 185 505 149 497 c 0
 149 495 139 430 139 284 c 2
 139 264 l 1xad
EndSplineSet
Validated: 1
EndChar

StartChar: Ntilde
Encoding: 209 209 144
Width: 510
Flags: W
HStem: -105 21G<54.5 76.5> 617 78<262.625 383.699> 651 80<131.398 255.214>
VStem: 31 63<17.4846 423> 41 70<-68 166.114> 405 71<319.703 595.111> 418 64<106.369 527.39>
LayerCount: 2
Fore
SplineSet
183 651 m 0xa0
 141 651 127 617 108 617 c 0xc0
 92 617 83 642 83 662 c 0
 83 673 86 681 90 685 c 0
 133 720 169 731 199 731 c 0xa0
 254 731 293 695 331 695 c 0
 367 695 359 718 404 720 c 1
 407 720 l 2
 424 720 430 712 430 701 c 0
 430 670 387 617 318 617 c 0xc0
 260 617 221 651 183 651 c 0xa0
65 -105 m 0
 44 -105 41 -68 41 -68 c 1x88
 40 -31 31 174 31 246 c 0
 31 249 31 537 35 545 c 0
 37 560 61 569 80 569 c 0
 91 569 100 566 103 561 c 0
 132 520 406 108 409 103 c 1
 415 175 418 239 418 299 c 0x92
 418 388 412 468 405 556 c 0
 404 564 405 571 406 576 c 0
 408 590 432 600 451 600 c 0
 464 600 475 596 476 585 c 0x84
 478 562 482 428 482 328 c 0x82
 482 305 481 284 481 266 c 0
 476 -4 472 -31 440 -54 c 0
 435 -58 429 -63 422 -63 c 0
 416 -63 410 -59 405 -48 c 0
 402 -44 317 116 97 423 c 1
 95 366 94 302 94 254 c 2
 94 212 l 1x94
 97 130 111 -1 111 -37 c 0x88
 111 -58 88 -105 65 -105 c 0
EndSplineSet
Validated: 1
EndChar

StartChar: Ograve
Encoding: 210 210 145
Width: 644
Flags: W
HStem: -87 76<200.737 399.953> 516 71<261.186 433.031> 606 74<309.803 366.169>
VStem: 20 61<92.8483 309.949> 559 61<133.768 342.513>
LayerCount: 2
Fore
SplineSet
331 606 m 2
 328 606 l 2
 300 606 217 647 201 665 c 0
 193 674 190 691 190 705 c 0
 190 709 191 713 191 716 c 0
 193 732 218 740 237 740 c 0
 247 740 255 738 258 734 c 1
 273 721 336 684 362 680 c 0
 372 679 377 669 377 658 c 0
 377 629 348 606 331 606 c 2
20 178 m 0
 20 409 185 587 370 587 c 0
 525 587 612 446 620 271 c 1
 620 254 l 2
 620 69 485 -87 272 -87 c 0
 108 -87 20 17 20 178 c 0
559 230 m 1
 551 371 481 516 356 516 c 0
 288 516 104 468 82 213 c 0
 81 203 81 194 81 185 c 0
 81 35 198 -5 306 -11 c 1
 316 -11 l 2
 425 -11 559 79 559 217 c 2
 559 230 l 1
EndSplineSet
Validated: 1
EndChar

StartChar: Oacute
Encoding: 211 211 146
Width: 642
Flags: W
HStem: -87 76<198.737 397.953> 516 71<259.186 431.031>
VStem: 18 61<92.8483 309.949> 557 61<133.768 342.513>
LayerCount: 2
Fore
SplineSet
423 761 m 1
 427 761 l 2
 443 761 448 754 448 744 c 0
 448 694 347 619 340 616 c 0
 333 612 328 611 323 611 c 0
 311 611 306 622 306 636 c 0
 306 649 311 663 319 672 c 0
 331 686 369 727 379 743 c 0
 385 755 404 760 423 761 c 1
18 178 m 0
 18 409 183 587 368 587 c 0
 523 587 610 446 618 271 c 1
 618 254 l 2
 618 69 483 -87 270 -87 c 0
 106 -87 18 17 18 178 c 0
557 230 m 1
 549 371 479 516 354 516 c 0
 286 516 102 468 80 213 c 0
 79 203 79 194 79 185 c 0
 79 35 196 -5 304 -11 c 1
 314 -11 l 2
 423 -11 557 79 557 217 c 2
 557 230 l 1
EndSplineSet
Validated: 1
EndChar

StartChar: Ocircumflex
Encoding: 212 212 147
Width: 640
Flags: W
HStem: -87 76<200.737 399.953> 516 71<261.186 433.031> 606 74<396.606 464.097>
VStem: 20 61<92.8483 309.949> 559 61<133.768 342.513>
LayerCount: 2
Fore
SplineSet
476 659 m 0
 476 630 446 606 430 606 c 2
 428 606 l 2
 418 606 367 612 317 649 c 1
 278 610 231 585 208 585 c 0
 204 585 190 585 190 613 c 0
 190 630 198 649 216 657 c 0
 244 670 286 710 293 724 c 0
 298 733 320 740 338 740 c 0
 347 740 355 738 358 733 c 1
 394 696 410 692 463 680 c 0
 472 678 476 670 476 659 c 0
20 178 m 0
 20 409 185 587 370 587 c 0
 525 587 612 446 620 271 c 1
 620 254 l 2
 620 69 485 -87 272 -87 c 0
 108 -87 20 17 20 178 c 0
559 230 m 1
 551 371 481 516 356 516 c 0
 288 516 104 468 82 213 c 0
 81 203 81 194 81 185 c 0
 81 35 198 -5 306 -11 c 1
 316 -11 l 2
 425 -11 559 79 559 217 c 2
 559 230 l 1
EndSplineSet
Validated: 1
EndChar

StartChar: Otilde
Encoding: 213 213 148
Width: 642
Flags: W
HStem: -87 76<202.737 401.953> 516 71<263.186 435.031> 615 78<353.625 474.541> 649 80<222.398 346.214>
VStem: 22 61<92.8483 309.949> 561 61<133.768 342.513>
LayerCount: 2
Fore
SplineSet
274 649 m 0xdc
 232 649 218 615 199 615 c 0xec
 183 615 174 640 174 660 c 0
 174 671 177 679 181 683 c 0
 224 718 260 729 290 729 c 0xdc
 345 729 384 693 422 693 c 0
 458 693 450 716 495 718 c 1
 498 718 l 2
 514 718 520 710 520 699 c 0
 520 670 478 615 409 615 c 0xec
 351 615 312 649 274 649 c 0xdc
22 178 m 0
 22 409 187 587 372 587 c 0
 527 587 614 446 622 271 c 1
 622 254 l 2
 622 69 487 -87 274 -87 c 0
 110 -87 22 17 22 178 c 0
561 230 m 1
 553 371 483 516 358 516 c 0
 290 516 106 468 84 213 c 0
 83 203 83 194 83 185 c 0
 83 35 200 -5 308 -11 c 1
 318 -11 l 2
 427 -11 561 79 561 217 c 2
 561 230 l 1
EndSplineSet
Validated: 1
EndChar

StartChar: Odieresis
Encoding: 214 214 149
Width: 638
Flags: W
HStem: -87 76<198.737 397.953> 516 71<259.186 431.031> 595 82<166.428 215.83> 616 82<426.726 476.93>
VStem: 18 61<92.8483 309.949> 162 72<612.264 672.624> 423 72<633.572 693.624> 557 61<133.768 342.513>
LayerCount: 2
Fore
SplineSet
446 616 m 0xdf
 435 616 423 634 423 663 c 0
 423 667 424 671 424 674 c 0
 426 689 446 697 469 698 c 1
 472 698 l 2
 488 698 495 690 495 680 c 0
 495 656 466 616 446 616 c 0xdf
186 595 m 0xef
 174 595 162 616 162 643 c 0
 162 646 163 650 163 653 c 0
 165 668 186 676 209 677 c 1
 212 677 l 2
 228 677 234 669 234 659 c 0
 234 634 204 595 186 595 c 0xef
18 178 m 0
 18 409 183 587 368 587 c 0
 523 587 610 446 618 271 c 1
 618 254 l 2
 618 69 483 -87 270 -87 c 0
 106 -87 18 17 18 178 c 0
557 230 m 1
 549 371 479 516 354 516 c 0
 286 516 102 468 80 213 c 0
 79 203 79 194 79 185 c 0
 79 35 196 -5 304 -11 c 1
 314 -11 l 2
 423 -11 557 79 557 217 c 2
 557 230 l 1
EndSplineSet
Validated: 1
EndChar

StartChar: multiply
Encoding: 215 215 150
Width: 352
Flags: W
VStem: 33 294
LayerCount: 2
Fore
SplineSet
79 56 m 0
 64 56 55 77 55 100 c 0
 55 109 57 118 61 123 c 0
 72 136 113 194 135 226 c 1
 80 276 44 305 44 306 c 0
 36 315 33 332 33 346 c 0
 33 350 34 354 34 357 c 0
 36 373 61 381 80 381 c 0
 89 381 97 379 101 375 c 0
 123 353 153 319 180 288 c 1
 208 324 240 365 248 380 c 0
 255 392 272 398 292 399 c 1
 296 399 l 2
 312 399 317 392 317 382 c 0
 317 365 300 340 297 336 c 0
 281 314 249 274 223 241 c 1
 274 187 327 154 327 134 c 0
 327 111 301 70 280 70 c 0
 265 70 235 124 181 182 c 1
 159 149 134 113 113 83 c 1
 113 83 96 56 79 56 c 0
EndSplineSet
Validated: 1
EndChar

StartChar: Oslash
Encoding: 216 216 151
Width: 642
Flags: W
HStem: -87 76<224.266 398.137> 516 72<263.389 425.075>
VStem: 19 62<89.8195 311.203> 101 67<-147.52 -75.8415> 559 61<135.282 344.612>
LayerCount: 2
Fore
SplineSet
19 179 m 0
 19 390 174 588 371 588 c 0
 406 588 437 580 465 567 c 1
 482 598 492 616 492 616 c 2
 498 627 516 632 535 633 c 1
 538 633 l 2
 554 633 560 626 560 616 c 0
 560 599 545 576 545 576 c 1
 540 568 530 553 517 532 c 1
 580 475 615 379 620 271 c 1
 620 254 l 2
 620 62 478 -87 274 -87 c 0
 241 -87 212 -83 185 -75 c 1
 176 -93 170 -108 168 -113 c 0
 161 -133 142 -159 125 -159 c 0
 106 -159 101 -129 101 -113 c 0
 101 -104 101 -95 126 -49 c 1
 53 -3 19 84 19 179 c 0
165 26 m 1
 229 145 308 286 426 498 c 1
 408 508 385 516 356 516 c 0
 288 516 104 468 82 213 c 0
 81 203 81 193 81 184 c 0
 81 103 116 55 165 26 c 1
474 461 m 1
 368 285 344 245 223 2 c 1
 250 -5 278 -10 306 -11 c 1
 316 -11 l 2
 425 -11 559 79 559 217 c 2
 559 230 l 1
 554 318 525 406 474 461 c 1
EndSplineSet
Validated: 1
EndChar

StartChar: Ugrave
Encoding: 217 217 152
Width: 502
Flags: W
HStem: -86 73<160.913 325.565> 580 75<251.803 307.89>
VStem: 28 62<59.2241 362.18> 31 71<314.958 537.996 538 559.763> 31 1<545 546.727> 402 71<331.321 594.363> 415 61<51.8059 365.932>
LayerCount: 2
Fore
SplineSet
273 580 m 2xc0
 270 580 l 2
 242 580 159 621 143 639 c 0
 135 648 132 665 132 679 c 0
 132 683 133 687 133 690 c 0
 135 706 160 714 179 714 c 0
 189 714 197 712 200 708 c 1
 215 695 278 659 304 655 c 0
 314 654 319 645 319 633 c 0
 319 602 289 580 273 580 c 2xc0
415 144 m 2xe2
 415 307 402 564 402 568 c 0
 403 589 427 599 447 599 c 0
 460 599 472 595 473 585 c 0xc4
 475 509 476 393 476 292 c 0
 476 221 476 157 475 119 c 0
 473 14 355 -86 217 -86 c 0
 105 -86 28 -11 28 106 c 0xe2
 28 110 32 384 32 493 c 0xc8
 32 533 31 538 31 538 c 1
 31 540 l 1xd0
 37 685 39 734 39 734 c 1
 39 734 32 556 32 545 c 1xc8
 33 545 33 567 77 569 c 1
 81 569 l 2
 97 569 102 563 102 548 c 0xd0
 99 457 90 196 90 138 c 0
 90 45 158 -13 239 -13 c 0
 256 -13 273 -10 290 -5 c 0
 392 25 413 59 415 121 c 1
 415 144 l 2xe2
EndSplineSet
Validated: 1
EndChar

StartChar: Uacute
Encoding: 218 218 153
Width: 500
Flags: W
HStem: -86 73<160.913 325.565>
VStem: 28 62<59.2241 362.18> 31 71<314.958 537.996 538 559.763> 31 1<545 546.727> 402 71<331.321 594.363> 415 61<51.8059 365.932>
LayerCount: 2
Fore
SplineSet
373 712 m 0x80
 373 665 272 579 249 579 c 0
 237 579 232 590 232 603 c 0
 232 616 237 632 245 641 c 0
 257 655 295 695 305 711 c 0
 311 723 329 729 348 730 c 1
 352 730 l 2
 368 730 373 722 373 712 c 0x80
415 144 m 2xc4
 415 307 402 564 402 568 c 0
 403 589 427 599 447 599 c 0
 460 599 472 595 473 585 c 0x88
 475 509 476 393 476 292 c 0
 476 221 476 157 475 119 c 0
 473 14 355 -86 217 -86 c 0
 105 -86 28 -11 28 106 c 0xc4
 28 110 32 384 32 493 c 0x90
 32 533 31 538 31 538 c 1
 31 540 l 1xa0
 37 685 39 734 39 734 c 1
 39 734 32 556 32 545 c 1x90
 33 545 33 567 77 569 c 1
 81 569 l 2
 97 569 102 563 102 548 c 0xa0
 99 457 90 196 90 138 c 0
 90 45 158 -13 239 -13 c 0
 256 -13 273 -10 290 -5 c 0
 392 25 413 59 415 121 c 1
 415 144 l 2xc4
EndSplineSet
Validated: 1
EndChar

StartChar: Ucircumflex
Encoding: 219 219 154
Width: 500
Flags: W
HStem: -86 73<160.913 325.565>
VStem: 28 62<59.2241 362.18> 31 71<314.958 537.996 538 559.763> 31 1<545 546.727> 402 71<331.321 594.363> 415 61<51.8059 365.932>
LayerCount: 2
Fore
SplineSet
399 658 m 0x80
 399 628 374 601 351 601 c 2
 350 601 l 2
 340 601 289 607 239 644 c 1
 200 605 153 581 130 581 c 0
 124 581 112 581 112 608 c 0
 112 625 120 643 138 651 c 0
 166 664 208 704 215 718 c 0
 220 727 242 735 260 735 c 0
 269 735 277 733 280 728 c 1
 351 655 399 693 399 658 c 0x80
415 144 m 2xc4
 415 307 402 564 402 568 c 0
 403 589 427 599 447 599 c 0
 460 599 472 595 473 585 c 0x88
 475 509 476 393 476 292 c 0
 476 221 476 157 475 119 c 0
 473 14 355 -86 217 -86 c 0
 105 -86 28 -11 28 106 c 0xc4
 28 110 32 384 32 493 c 0x90
 32 533 31 538 31 538 c 1
 31 540 l 1xa0
 37 685 39 734 39 734 c 1
 39 734 32 556 32 545 c 1x90
 33 545 33 567 77 569 c 1
 81 569 l 2
 97 569 102 563 102 548 c 0xa0
 99 457 90 196 90 138 c 0
 90 45 158 -13 239 -13 c 0
 256 -13 273 -10 290 -5 c 0
 392 25 413 59 415 121 c 1
 415 144 l 2xc4
EndSplineSet
Validated: 1
EndChar

StartChar: Udieresis
Encoding: 220 220 155
Width: 500
Flags: W
HStem: -86 73<160.913 325.565> 570 82<135.726 184.83> 583 82<312.726 361.83>
VStem: 28 62<59.2241 362.18> 31 71<314.958 537.996 538 559.763> 31 1<545 546.727> 132 71<587.572 647.624> 309 71<600.572 660.624> 402 71<331.321 594.363> 415 61<51.8059 365.932>
LayerCount: 2
Fore
SplineSet
332 583 m 0xa3
 321 583 309 601 309 630 c 0
 309 634 310 638 310 641 c 0
 312 656 332 664 355 665 c 1
 358 665 l 2
 374 665 380 657 380 647 c 0
 380 622 350 583 332 583 c 0xa3
155 570 m 0xc3
 144 570 132 588 132 617 c 0
 132 621 133 625 133 628 c 0
 135 643 155 651 178 652 c 1
 181 652 l 2
 197 652 203 644 203 634 c 0
 203 609 173 570 155 570 c 0xc3
415 144 m 2x9340
 415 307 402 564 402 568 c 0
 403 589 427 599 447 599 c 0
 460 599 472 595 473 585 c 0x8380
 475 509 476 393 476 292 c 0
 476 221 476 157 475 119 c 0
 473 14 355 -86 217 -86 c 0
 105 -86 28 -11 28 106 c 0x9340
 28 110 32 384 32 493 c 0x87
 32 533 31 538 31 538 c 1
 31 540 l 1x8b
 37 685 39 734 39 734 c 1
 39 734 32 556 32 545 c 1x87
 33 545 33 567 77 569 c 1
 81 569 l 2
 97 569 102 563 102 548 c 0x8b
 99 457 90 196 90 138 c 0
 90 45 158 -13 239 -13 c 0
 256 -13 273 -10 290 -5 c 0
 392 25 413 59 415 121 c 1
 415 144 l 2x9340
EndSplineSet
Validated: 1
EndChar

StartChar: Yacute
Encoding: 221 221 156
Width: 510
Flags: W
VStem: 24 69<532.188 563.745> 220 61<-28.4193 266.894> 227 71<-67.7287 144.622> 421 68<547.281 582>
LayerCount: 2
Fore
SplineSet
366 692 m 0x90
 366 645 265 559 242 559 c 0
 230 559 224 570 224 584 c 0
 224 597 229 612 237 621 c 0
 249 635 287 675 297 691 c 0
 299 695 309 708 341 710 c 1
 345 710 l 2
 361 710 366 702 366 692 c 0x90
298 -13 m 2xb0
 298 -19 l 2
 298 -42 272 -83 251 -83 c 0
 228 -83 227 -42 227 -35 c 0xb0
 226 0 220 76 220 148 c 0xd0
 220 188 222 226 227 255 c 1xb0
 170 306 54 439 29 501 c 0
 25 510 23 522 23 532 c 0
 23 536 23 540 24 544 c 0
 26 559 50 568 69 568 c 0
 81 568 91 565 93 557 c 0
 116 476 207 379 263 332 c 1
 314 414 410 557 421 582 c 1
 421 582 429 597 464 599 c 1
 468 599 l 2
 483 599 489 593 489 582 c 0
 489 574 486 562 479 549 c 0
 460 513 314 325 290 268 c 0
 284 253 281 229 281 203 c 0xd0
 281 133 298 36 298 -13 c 2xb0
EndSplineSet
Validated: 1
EndChar

StartChar: Thorn
Encoding: 222 222 157
Width: 476
Flags: W
HStem: 48 79<113 214.826> 422 72<106.376 339.176>
VStem: 25 71<481.668 626.118> 34 76<-80.2767 49.4133> 52 62<128.802 398.798> 397 62<228.467 368.599>
LayerCount: 2
Fore
SplineSet
58 -102 m 0xd4
 40 -102 35 -75 34 -61 c 1
 34 -52 l 2xd4
 34 -2 52 159 52 215 c 0xcc
 51 354 25 584 25 588 c 2
 25 595 l 2
 25 610 30 630 75 630 c 0
 90 630 96 624 96 610 c 0xe4
 96 588 98 536 101 479 c 1
 151 488 201 494 248 494 c 0
 364 494 455 457 459 337 c 1
 459 328 l 2
 459 163 329 76 110 48 c 1
 106 -40 104 -46 101 -56 c 0
 95 -76 75 -102 58 -102 c 0xd4
105 404 m 1
 111 292 114 246 114 187 c 0xcc
 114 169 113 150 113 127 c 1
 225 136 397 162 397 299 c 0
 397 354 370 422 237 422 c 0
 195 422 149 415 105 404 c 1
EndSplineSet
Validated: 1
EndChar

StartChar: germandbls
Encoding: 223 223 158
Width: 400
Flags: W
HStem: 6 72<189.368 313.287> 438 75<106.838 237.358>
VStem: 25 59<196.949 416.831> 27 67<-62.3529 356.912> 255 66<351.187 418.596> 322 61<87.52 187.202>
LayerCount: 2
Fore
SplineSet
45 -80 m 0xdc
 26 -80 21 -51 21 -33 c 2
 21 -27 l 2
 21 22 27 143 27 249 c 0xdc
 27 283 27 315 25 342 c 1
 25 355 l 2
 25 461 113 513 193 513 c 0
 271 513 321 467 321 410 c 0
 321 375 301 341 275 314 c 1
 325 292 383 245 383 149 c 0
 383 66 335 6 251 6 c 0
 216 6 179 16 171 24 c 0
 163 33 160 50 160 64 c 0
 160 68 161 72 161 75 c 0
 163 91 187 98 206 98 c 0
 235 98 237 78 271 78 c 0
 300 78 322 98 322 129 c 0
 322 162 290 235 188 258 c 0
 179 259 174 271 174 285 c 0
 174 295 177 320 201 330 c 0
 225 340 255 364 255 388 c 0
 255 412 216 438 170 438 c 0
 151 438 133 434 117 426 c 0
 92 414 84 393 84 359 c 0xec
 84 314 94 299 94 192 c 0
 94 130 91 61 91 18 c 0
 91 5 91 -7 92 -14 c 1
 89 -46 65 -80 45 -80 c 0xdc
EndSplineSet
Validated: 1
EndChar

StartChar: agrave
Encoding: 224 224 159
Width: 486
Flags: W
HStem: 520 75<227.349 282.391>
VStem: 363 105<81.5293 142.567>
LayerCount: 2
Fore
SplineSet
248 520 m 2
 245 520 l 2
 217 520 134 561 118 579 c 0
 110 588 107 605 107 619 c 0
 107 623 108 627 108 630 c 0
 110 646 135 654 154 654 c 0
 164 654 172 652 175 648 c 1
 190 635 254 599 280 595 c 0
 290 594 294 585 294 574 c 0
 294 543 265 520 248 520 c 2
43 -31 m 0
 30 -31 19 -9 19 16 c 0
 19 19 20 23 20 26 c 0
 20 31 116 275 213 463 c 0
 219 475 239 484 258 484 c 0
 268 484 277 482 281 476 c 0
 358 349 384 291 411 229 c 1
 419 229 l 2
 432 229 441 225 441 212 c 0
 441 205 438 194 431 181 c 0
 431 180 468 90 468 78 c 0
 468 55 442 12 421 12 c 0
 415 12 410 16 405 24 c 0
 402 26 382 92 363 145 c 1
 234 134 176 104 104 66 c 1
 82 0 78 -9 61 -22 c 0
 54 -28 48 -31 43 -31 c 0
135 158 m 1
 173 174 229 196 334 217 c 1
 307 280 282 323 241 382 c 1
 185 284 158 223 135 158 c 1
EndSplineSet
Validated: 1
EndChar

StartChar: aacute
Encoding: 225 225 160
Width: 482
Flags: W
VStem: 361 105<81.5293 142.567>
LayerCount: 2
Fore
SplineSet
337 662 m 1
 341 662 l 2
 357 662 362 654 362 644 c 0
 362 595 259 520 254 517 c 0
 247 513 242 512 237 512 c 0
 225 512 220 523 220 537 c 0
 220 550 225 564 233 573 c 0
 245 587 283 628 293 644 c 0
 299 656 318 661 337 662 c 1
41 -31 m 0
 30 -31 18 -15 18 15 c 0
 18 19 19 23 19 26 c 0
 19 31 114 275 211 463 c 0
 217 475 237 484 256 484 c 0
 266 484 275 482 279 476 c 0
 356 349 382 291 409 229 c 1
 412 229 414 230 417 230 c 0
 430 230 439 225 439 212 c 0
 439 205 436 195 429 181 c 0
 429 180 466 90 466 78 c 0
 466 55 440 12 419 12 c 0
 413 12 408 16 403 24 c 0
 400 26 380 92 361 145 c 1
 236 136 177 105 102 66 c 1
 80 0 76 -9 59 -22 c 0
 51 -28 46 -31 41 -31 c 0
133 158 m 1
 171 174 228 196 333 217 c 1
 306 280 280 322 239 382 c 1
 183 284 156 223 133 158 c 1
EndSplineSet
Validated: 1
EndChar

StartChar: acircumflex
Encoding: 226 226 161
Width: 486
Flags: W
HStem: 516 74<320.297 388.097>
VStem: 363 105<81.5293 142.567>
LayerCount: 2
Fore
SplineSet
400 569 m 0
 400 540 370 516 354 516 c 2
 352 516 l 2
 342 516 290 522 241 559 c 1
 202 520 155 495 132 495 c 0
 128 495 114 495 114 523 c 0
 114 540 122 559 140 567 c 0
 168 580 210 620 217 634 c 0
 222 643 244 650 262 650 c 0
 271 650 279 648 282 643 c 1
 317 607 331 603 387 590 c 0
 396 588 400 580 400 569 c 0
43 -31 m 0
 32 -31 20 -15 20 15 c 0
 20 19 21 23 21 26 c 0
 21 31 116 275 213 463 c 0
 219 475 239 484 258 484 c 0
 268 484 277 482 281 476 c 0
 358 349 384 291 411 229 c 1
 414 229 416 230 419 230 c 0
 432 230 441 225 441 212 c 0
 441 205 438 195 431 181 c 0
 431 180 468 90 468 78 c 0
 468 55 442 12 421 12 c 0
 415 12 410 16 405 24 c 0
 402 26 382 92 363 145 c 1
 238 136 179 105 104 66 c 1
 82 0 78 -9 61 -22 c 0
 53 -28 48 -31 43 -31 c 0
135 158 m 1
 173 174 230 196 335 217 c 1
 308 280 282 322 241 382 c 1
 185 284 158 223 135 158 c 1
EndSplineSet
Validated: 1
EndChar

StartChar: atilde
Encoding: 227 227 162
Width: 486
Flags: W
HStem: 513 77<252.229 368.702> 547 80<119.398 244.692>
VStem: 363 105<81.5293 142.567>
LayerCount: 2
Fore
SplineSet
171 547 m 0x60
 129 547 115 513 96 513 c 0xa0
 80 513 71 538 71 558 c 0
 71 569 74 577 78 581 c 0
 121 616 157 627 187 627 c 0x60
 242 627 281 590 319 590 c 0
 355 590 348 614 392 616 c 1
 394 616 l 2
 411 616 418 608 418 596 c 0
 418 567 378 513 308 513 c 0xa0
 249 513 209 547 171 547 c 0x60
43 -31 m 0
 32 -31 20 -15 20 15 c 0
 20 19 21 23 21 26 c 0
 21 31 116 275 213 463 c 0
 219 475 239 484 258 484 c 0
 268 484 277 482 281 476 c 0
 358 349 384 291 411 229 c 1
 414 229 416 230 419 230 c 0
 432 230 441 225 441 212 c 0
 441 205 438 195 431 181 c 0
 431 180 468 90 468 78 c 0
 468 55 442 12 421 12 c 0
 415 12 410 16 405 24 c 0
 402 26 382 92 363 145 c 1
 238 136 179 105 104 66 c 1
 82 0 78 -9 61 -22 c 0
 53 -28 48 -31 43 -31 c 0
135 158 m 1
 173 174 230 196 335 217 c 1
 308 280 282 322 241 382 c 1
 185 284 158 223 135 158 c 1
EndSplineSet
Validated: 1
EndChar

StartChar: adieresis
Encoding: 228 228 163
Width: 482
Flags: W
HStem: 494 82<125.726 174.83> 508 82<302.726 351.83>
VStem: 122 71<511.572 571.624> 299 71<525.572 585.624> 361 105<81.5293 142.567>
LayerCount: 2
Fore
SplineSet
322 508 m 0x70
 311 508 299 526 299 555 c 0
 299 559 300 563 300 566 c 0
 302 581 322 589 345 590 c 1
 348 590 l 2
 364 590 370 582 370 572 c 0
 370 547 340 508 322 508 c 0x70
145 494 m 0xa0
 134 494 122 512 122 541 c 0
 122 545 123 549 123 552 c 0
 125 567 145 575 168 576 c 1
 171 576 l 2
 187 576 193 568 193 558 c 0
 193 533 163 494 145 494 c 0xa0
41 -31 m 0
 30 -31 18 -15 18 15 c 0
 18 19 19 23 19 26 c 0
 19 31 114 275 211 463 c 0
 217 475 237 484 256 484 c 0
 266 484 275 482 279 476 c 0
 356 349 382 291 409 229 c 1
 412 229 414 230 417 230 c 0
 430 230 439 225 439 212 c 0
 439 205 436 195 429 181 c 0
 429 180 466 90 466 78 c 0
 466 55 440 12 419 12 c 0
 413 12 408 16 403 24 c 0
 400 26 380 92 361 145 c 1x28
 236 136 177 105 102 66 c 1
 80 0 76 -9 59 -22 c 0
 51 -28 46 -31 41 -31 c 0
133 158 m 1
 171 174 228 196 333 217 c 1
 306 280 280 322 239 382 c 1
 183 284 156 223 133 158 c 1
EndSplineSet
Validated: 1
EndChar

StartChar: aring
Encoding: 229 229 164
Width: 484
Flags: W
HStem: 562 48<205.876 282.372>
VStem: 160 39<496.16 552.794> 293 41<491.202 550.776> 363 105<81.5293 142.567>
LayerCount: 2
Fore
SplineSet
43 -31 m 0
 32 -31 20 -15 20 15 c 0
 20 19 21 23 21 26 c 0
 21 31 100 240 203 442 c 1
 173 451 160 476 160 504 c 0
 160 552 199 610 262 610 c 0
 308 610 334 571 334 530 c 0
 334 502 321 473 294 455 c 1
 329 396 362 342 411 229 c 1
 414 229 416 230 419 230 c 0
 432 230 441 225 441 212 c 0
 441 205 438 195 431 181 c 0
 431 180 468 90 468 78 c 0
 468 55 442 12 421 12 c 0
 415 12 410 16 405 24 c 0
 402 26 382 92 363 145 c 1
 238 136 179 105 104 66 c 1
 82 0 78 -9 61 -22 c 0
 53 -28 48 -31 43 -31 c 0
245 562 m 0
 217 562 199 538 199 521 c 0
 199 500 228 488 254 488 c 0
 274 488 293 496 293 512 c 0
 293 514 292 515 292 517 c 0
 285 548 265 562 245 562 c 0
135 158 m 1
 173 174 230 196 335 217 c 1
 308 280 282 322 241 382 c 1
 185 284 158 223 135 158 c 1
EndSplineSet
Validated: 1
EndChar

StartChar: ae
Encoding: 230 230 165
Width: 732
Flags: W
HStem: -1 76<388.724 543.432> 32 81<527.266 695.443> 245 82<464.344 669.83> 429 81<446.435 665.985 666 696>
VStem: 18 63<-35.3579 35.6461> 326 62<56 126.83> 354 62<208.281 225.467 294 393.266>
LayerCount: 2
Fore
SplineSet
42 -43 m 0xbc
 27 -43 18 -21 18 4 c 0
 18 12 19 18 21 21 c 0
 28 39 111 186 146 246 c 0
 181 308 261 421 282 451 c 0
 287 461 302 465 319 468 c 0
 354 474 535 507 687 510 c 1
 691 510 l 2
 708 510 714 502 714 491 c 0
 714 467 682 428 666 428 c 2
 666 428 645 429 617 429 c 0
 543 429 472 421 414 410 c 1
 415 387 416 360 416 329 c 2
 416 294 l 1xba
 485 311 513 318 662 327 c 1
 665 327 l 2
 682 327 688 319 688 308 c 0
 688 284 658 245 640 245 c 2
 638 245 l 1
 629 246 614 247 594 247 c 0
 551 247 485 242 410 217 c 1
 409 211 409 205 408 199 c 1
 408 197 l 2
 408 182 388 114 388 96 c 0
 388 86 392 82 403 79 c 0
 410 77 418 75 426 75 c 0xbc
 447 75 626 113 690 113 c 0
 708 113 714 105 714 94 c 0
 714 70 683 32 666 32 c 2
 665 32 l 1x7c
 648 31 537 24 440 4 c 0
 425 1 412 -1 400 -1 c 0
 341 -1 326 38 326 74 c 0
 326 95 331 116 334 128 c 1
 249 118 180 97 122 65 c 0
 119 63 117 61 114 60 c 1
 99 30 87 5 81 -7 c 0
 75 -19 58 -43 42 -43 c 0xbc
343 396 m 1
 334 394 325 393 318 391 c 1
 240 293 194 223 161 157 c 1
 211 175 301 199 350 208 c 1
 352 223 354 241 354 263 c 2
 354 288 l 2
 354 321 352 337 343 396 c 1
EndSplineSet
Validated: 1
EndChar

StartChar: ccedilla
Encoding: 231 231 166
Width: 430
Flags: W
HStem: -3 73<184.249 289.273> 418 72<187.202 306.324>
VStem: 16 62<121.389 281.655> 46 65<-81.5567 -7.08817>
LayerCount: 2
Fore
SplineSet
16 173 m 0xe0
 16 301 125 490 269 490 c 0
 356 490 400 423 400 399 c 0
 400 377 376 334 354 334 c 0
 326 334 330 418 251 418 c 0
 157 418 78 289 78 198 c 0xe0
 78 157 92 120 124 94 c 1
 127 99 151 135 153 136 c 0
 161 144 176 149 193 150 c 1
 197 150 l 2
 213 150 218 143 218 133 c 0
 218 113 205 96 184 70 c 1
 190 70 l 2
 210 70 280 74 343 123 c 0
 350 129 362 136 384 137 c 1
 387 137 l 2
 403 137 409 129 409 119 c 0
 409 101 393 76 384 68 c 0
 357 40 320 10 207 -2 c 0
 200 -3 192 -3 185 -3 c 0
 169 -3 152 -1 138 3 c 1
 129 -13 120 -32 111 -51 c 0
 104 -68 86 -91 70 -91 c 0
 52 -91 46 -65 46 -46 c 0xd0
 46 -31 46 -30 83 29 c 1
 36 64 16 116 16 173 c 0xe0
EndSplineSet
Validated: 1
EndChar

StartChar: egrave
Encoding: 232 232 167
Width: 432
Flags: W
HStem: -15 76<89.1383 243.87> 18 81<227.377 395.92> 231 82<165.344 369.83> 415 81<153.254 397> 510 75<199.349 254.391>
VStem: 26 62<37.5 174.624> 54 63<280 379>
LayerCount: 2
Fore
SplineSet
220 510 m 2x38
 217 510 l 2
 189 510 106 551 90 569 c 0
 82 578 79 595 79 609 c 0
 79 613 80 617 80 620 c 0
 82 636 107 644 126 644 c 0
 136 644 144 642 147 638 c 1
 162 625 226 589 252 585 c 0
 262 584 266 575 266 564 c 0
 266 533 237 510 220 510 c 2x38
26 58 m 0xbc
 26 109 53 149 54 249 c 1
 54 259 l 2
 54 329 44 379 43 379 c 2
 41 379 l 2
 27 379 17 402 17 425 c 0
 17 436 17 454 59 460 c 0
 117 469 254 493 388 496 c 1
 392 496 l 2
 409 496 415 488 415 477 c 0
 415 453 383 414 367 414 c 0
 366 414 346 415 316 415 c 0
 263 415 192 411 115 395 c 1
 116 372 117 344 117 314 c 2
 117 280 l 1xba
 186 297 214 304 363 313 c 1
 366 313 l 2
 382 313 388 305 388 294 c 0
 388 270 358 231 340 231 c 2
 338 231 l 1
 329 232 315 233 295 233 c 0
 252 233 186 228 111 203 c 1
 107 167 88 96 88 81 c 0
 88 70 97 61 126 61 c 0xbc
 149 61 326 99 391 99 c 0
 408 99 415 92 415 81 c 0
 415 57 383 18 366 18 c 2
 365 18 l 1x7c
 348 17 237 10 140 -10 c 0
 125 -13 112 -15 100 -15 c 0
 46 -15 26 17 26 58 c 0xbc
EndSplineSet
Validated: 1
EndChar

StartChar: eacute
Encoding: 233 233 168
Width: 430
Flags: W
HStem: -15 76<87.1383 241.87> 18 81<225.377 393.92> 231 82<163.344 367.83> 415 81<151.254 395>
VStem: 24 62<37.5 174.624> 52 63<280 379>
LayerCount: 2
Fore
SplineSet
299 661 m 1x30
 303 661 l 2
 319 661 324 653 324 643 c 0
 324 595 224 520 216 516 c 0
 209 512 204 511 199 511 c 0
 187 511 182 522 182 536 c 0
 182 549 187 563 195 572 c 0
 207 586 245 627 255 643 c 0
 261 655 280 660 299 661 c 1x30
24 58 m 0xb8
 24 109 51 149 52 249 c 1
 52 259 l 2
 52 329 42 379 41 379 c 2
 39 379 l 2
 25 379 15 402 15 425 c 0
 15 436 15 454 57 460 c 0
 115 469 252 493 386 496 c 1
 390 496 l 2
 407 496 413 488 413 477 c 0
 413 453 381 414 365 414 c 0
 364 414 344 415 314 415 c 0
 261 415 190 411 113 395 c 1
 114 372 115 344 115 314 c 2
 115 280 l 1xb4
 184 297 212 304 361 313 c 1
 364 313 l 2
 380 313 386 305 386 294 c 0
 386 270 356 231 338 231 c 2
 336 231 l 1
 327 232 313 233 293 233 c 0
 250 233 184 228 109 203 c 1
 105 167 86 96 86 81 c 0
 86 70 95 61 124 61 c 0xb8
 147 61 324 99 389 99 c 0
 406 99 413 92 413 81 c 0
 413 57 381 18 364 18 c 2
 363 18 l 1x78
 346 17 235 10 138 -10 c 0
 123 -13 110 -15 98 -15 c 0
 44 -15 24 17 24 58 c 0xb8
EndSplineSet
Validated: 1
EndChar

StartChar: ecircumflex
Encoding: 234 234 169
Width: 432
Flags: W
HStem: -15 76<91.1383 245.87> 18 81<229.377 397.92> 231 82<167.344 371.83> 415 81<155.254 399> 526 74<286.777 356.097>
VStem: 28 62<37.5 174.624> 56 63<280 379>
LayerCount: 2
Fore
SplineSet
368 579 m 0x38
 368 550 338 526 322 526 c 2
 320 526 l 2
 310 526 258 532 209 569 c 1
 170 530 123 505 100 505 c 0
 96 505 82 505 82 533 c 0
 82 550 90 569 108 577 c 0
 136 590 178 630 185 644 c 0
 190 653 212 660 230 660 c 0
 239 660 247 658 250 653 c 1
 285 616 300 613 355 600 c 0
 364 598 368 590 368 579 c 0x38
28 58 m 0xbc
 28 109 55 149 56 249 c 1
 56 259 l 2
 56 329 46 379 45 379 c 2
 43 379 l 2
 29 379 19 402 19 425 c 0
 19 436 19 454 61 460 c 0
 119 469 256 493 390 496 c 1
 394 496 l 2
 411 496 417 488 417 477 c 0
 417 453 385 414 369 414 c 0
 368 414 348 415 318 415 c 0
 265 415 194 411 117 395 c 1
 118 372 119 344 119 314 c 2
 119 280 l 1xba
 188 297 216 304 365 313 c 1
 368 313 l 2
 384 313 390 305 390 294 c 0
 390 270 360 231 342 231 c 2
 340 231 l 1
 331 232 317 233 297 233 c 0
 254 233 188 228 113 203 c 1
 109 167 90 96 90 81 c 0
 90 70 99 61 128 61 c 0xbc
 151 61 328 99 393 99 c 0
 410 99 417 92 417 81 c 0
 417 57 385 18 368 18 c 2
 367 18 l 1x7c
 350 17 239 10 142 -10 c 0
 127 -13 114 -15 102 -15 c 0
 48 -15 28 17 28 58 c 0xbc
EndSplineSet
Validated: 1
EndChar

StartChar: edieresis
Encoding: 235 235 170
Width: 430
Flags: W
HStem: -15 76<89.1383 243.87> 18 81<227.377 395.92> 231 82<165.344 369.83> 415 81<153.254 397> 510 82<91.7259 141.24> 524 81<268.552 318.24>
VStem: 26 62<37.5 174.624> 54 63<280 379> 88 71<527.153 587.624> 265 71<541.078 600.624>
LayerCount: 2
Fore
SplineSet
289 524 m 0x3440
 279 524 265 538 265 570 c 0
 265 574 266 578 266 581 c 0
 268 596 288 604 311 605 c 1
 314 605 l 2
 330 605 336 597 336 587 c 0
 336 564 307 524 289 524 c 0x3440
111 510 m 0x38c0
 100 510 88 528 88 557 c 0
 88 561 89 565 89 568 c 0
 91 583 111 591 134 592 c 1
 137 592 l 2
 153 592 159 585 159 574 c 0
 159 550 131 510 111 510 c 0x38c0
26 58 m 0xb240
 26 109 53 149 54 249 c 1
 54 259 l 2
 54 329 44 379 43 379 c 2
 41 379 l 2
 27 379 17 402 17 425 c 0
 17 436 17 454 59 460 c 0
 117 469 254 493 388 496 c 1
 392 496 l 2
 409 496 415 488 415 477 c 0
 415 453 383 414 367 414 c 0
 366 414 346 415 316 415 c 0
 263 415 192 411 115 395 c 1
 116 372 117 344 117 314 c 2
 117 280 l 1xb140
 186 297 214 304 363 313 c 1
 366 313 l 2
 382 313 388 305 388 294 c 0
 388 270 358 231 340 231 c 2
 338 231 l 1
 329 232 315 233 295 233 c 0
 252 233 186 228 111 203 c 1
 107 167 88 96 88 81 c 0
 88 70 97 61 126 61 c 0xb240
 149 61 326 99 391 99 c 0
 408 99 415 92 415 81 c 0
 415 57 383 18 366 18 c 2
 365 18 l 1x7240
 348 17 237 10 140 -10 c 0
 125 -13 112 -15 100 -15 c 0
 46 -15 26 17 26 58 c 0xb240
EndSplineSet
Validated: 1
EndChar

StartChar: igrave
Encoding: 236 236 171
Width: 344
Flags: W
HStem: 13 82<209.897 307.24> 409 82<201.216 300.444> 510 75<157.349 212.391>
VStem: 131 63<88.555 399.487>
LayerCount: 2
Fore
SplineSet
178 510 m 2
 175 510 l 2
 147 510 64 551 48 569 c 0
 40 578 37 595 37 609 c 0
 37 613 38 617 38 620 c 0
 40 636 65 644 84 644 c 0
 94 644 102 642 105 638 c 1
 120 625 184 589 210 585 c 0
 220 584 224 575 224 564 c 0
 224 533 195 510 178 510 c 2
29 32 m 0
 29 61 35 64 137 78 c 1
 134 177 131 238 131 302 c 0
 131 333 132 364 133 400 c 1
 63 393 48 388 46 388 c 2
 45 388 l 2
 31 388 22 411 22 434 c 0
 22 446 22 460 52 468 c 0
 96 478 246 491 297 491 c 2
 298 491 l 2
 313 491 319 484 319 473 c 0
 319 449 290 410 272 409 c 1
 262 409 l 2
 248 409 226 408 200 406 c 1
 197 372 194 326 194 279 c 0
 194 266 195 253 195 240 c 0
 197 164 206 120 208 87 c 1
 249 92 255 92 300 95 c 1
 303 95 l 2
 319 95 325 87 325 76 c 0
 325 52 296 14 278 13 c 1
 275 13 l 2
 218 13 55 -14 53 -14 c 2
 52 -14 l 2
 38 -14 29 9 29 32 c 0
EndSplineSet
Validated: 1
EndChar

StartChar: iacute
Encoding: 237 237 172
Width: 344
Flags: W
HStem: 13 82<211.897 309.24> 409 82<203.216 302.444>
VStem: 133 63<88.555 399.487>
LayerCount: 2
Fore
SplineSet
261 660 m 1
 265 660 l 2
 281 660 286 652 286 642 c 0
 286 590 179 515 178 514 c 0
 172 510 166 509 162 509 c 0
 150 509 144 520 144 534 c 0
 144 547 149 562 157 571 c 0
 169 585 207 626 217 642 c 0
 223 654 242 659 261 660 c 1
31 32 m 0
 31 61 37 64 139 78 c 1
 136 177 133 238 133 302 c 0
 133 333 134 364 135 400 c 1
 65 393 50 388 48 388 c 2
 47 388 l 2
 33 388 24 411 24 434 c 0
 24 446 24 460 54 468 c 0
 98 478 248 491 299 491 c 2
 300 491 l 2
 315 491 321 484 321 473 c 0
 321 449 292 410 274 409 c 1
 264 409 l 2
 250 409 228 408 202 406 c 1
 199 372 196 326 196 279 c 0
 196 266 197 253 197 240 c 0
 199 164 208 120 210 87 c 1
 251 92 257 92 302 95 c 1
 305 95 l 2
 321 95 327 87 327 76 c 0
 327 52 298 14 280 13 c 1
 277 13 l 2
 220 13 57 -14 55 -14 c 2
 54 -14 l 2
 40 -14 31 9 31 32 c 0
EndSplineSet
Validated: 1
EndChar

StartChar: icircumflex
Encoding: 238 238 173
Width: 342
Flags: W
HStem: 13 82<209.897 307.24> 409 82<201.216 300.444> 531 74<233.206 302.097>
VStem: 131 63<88.555 399.487>
LayerCount: 2
Fore
SplineSet
314 584 m 0
 314 555 284 531 268 531 c 2
 266 531 l 2
 256 531 204 537 155 574 c 1
 116 535 69 510 46 510 c 0
 35 510 28 518 28 538 c 0
 28 555 36 572 54 581 c 0
 99 602 131 649 132 650 c 0
 140 659 159 665 175 665 c 0
 184 665 193 663 196 658 c 1
 232 621 246 617 301 605 c 0
 310 603 314 595 314 584 c 0
29 32 m 0
 29 61 35 64 137 78 c 1
 134 177 131 238 131 302 c 0
 131 333 132 364 133 400 c 1
 63 393 48 388 46 388 c 2
 45 388 l 2
 31 388 22 411 22 434 c 0
 22 446 22 460 52 468 c 0
 96 478 246 491 297 491 c 2
 298 491 l 2
 313 491 319 484 319 473 c 0
 319 449 290 410 272 409 c 1
 262 409 l 2
 248 409 226 408 200 406 c 1
 197 372 194 326 194 279 c 0
 194 266 195 253 195 240 c 0
 197 164 206 120 208 87 c 1
 249 92 255 92 300 95 c 1
 303 95 l 2
 319 95 325 87 325 76 c 0
 325 52 296 14 278 13 c 1
 275 13 l 2
 218 13 55 -14 53 -14 c 2
 52 -14 l 2
 38 -14 29 9 29 32 c 0
EndSplineSet
Validated: 1
EndChar

StartChar: idieresis
Encoding: 239 239 174
Width: 344
Flags: W
HStem: 13 82<209.897 307.24> 409 82<201.216 300.444> 510 82<49.7259 99.2396> 524 81<226.552 276.24>
VStem: 46 71<527.153 587.624> 131 63<88.555 399.487> 223 71<541.078 600.624>
LayerCount: 2
Fore
SplineSet
247 524 m 0xde
 237 524 223 538 223 570 c 0
 223 574 224 578 224 581 c 0
 226 596 246 604 269 605 c 1
 272 605 l 2
 288 605 294 597 294 587 c 0
 294 564 265 524 247 524 c 0xde
69 510 m 0xee
 58 510 46 528 46 557 c 0
 46 561 47 565 47 568 c 0
 49 583 69 591 92 592 c 1
 95 592 l 2
 111 592 117 585 117 574 c 0
 117 550 89 510 69 510 c 0xee
29 32 m 0
 29 61 35 64 137 78 c 1
 134 177 131 238 131 302 c 0
 131 333 132 364 133 400 c 1
 63 393 48 388 46 388 c 2
 45 388 l 2
 31 388 22 411 22 434 c 0
 22 446 22 460 52 468 c 0
 96 478 246 491 297 491 c 2
 298 491 l 2
 313 491 319 484 319 473 c 0
 319 449 290 410 272 409 c 1
 262 409 l 2
 248 409 226 408 200 406 c 1
 197 372 194 326 194 279 c 0
 194 266 195 253 195 240 c 0
 197 164 206 120 208 87 c 1
 249 92 255 92 300 95 c 1
 303 95 l 2
 319 95 325 87 325 76 c 0
 325 52 296 14 278 13 c 1
 275 13 l 2
 218 13 55 -14 53 -14 c 2
 52 -14 l 2
 38 -14 29 9 29 32 c 0
EndSplineSet
Validated: 1
EndChar

StartChar: eth
Encoding: 240 240 175
Width: 446
Flags: W
HStem: 200 81<109.216 219.83> 406 76<111.174 290.381>
VStem: 38 68<265 396.396> 46 70<66 178> 368 61<168.723 333.729>
LayerCount: 2
Fore
SplineSet
15 224 m 0xd8
 15 239 16 249 38 256 c 1xe8
 38 306 40 351 42 385 c 1
 30 394 27 414 27 428 c 0
 27 441 27 456 58 462 c 0
 114 476 164 482 209 482 c 0
 348 481 429 411 429 281 c 0
 429 0 106 -17 71 -17 c 2
 68 -17 l 1
 53 -15 46 12 46 17 c 2
 46 33 l 1
 45 65 42 122 40 178 c 1
 39 178 l 2
 25 178 15 201 15 224 c 0xd8
184 406 m 0
 159 406 134 403 110 398 c 1
 107 364 106 316 106 265 c 1xe8
 126 268 201 280 212 281 c 1
 215 281 l 2
 231 281 238 273 238 262 c 0
 238 238 208 200 190 200 c 2
 179 200 l 2
 156 200 134 197 108 193 c 1
 111 137 115 98 116 66 c 1xd8
 232 76 368 110 368 254 c 0
 368 293 354 406 184 406 c 0
EndSplineSet
Validated: 1
EndChar

StartChar: ntilde
Encoding: 241 241 176
Width: 412
Flags: W
HStem: 514 77<211.525 327.702> 548 80<77.9978 202.98>
VStem: 24 63<28.3564 339> 30 71<-9.13086 246.477> 311 77<274.902 492.043> 325 63<164.383 487.704>
LayerCount: 2
Fore
SplineSet
130 548 m 0x40
 88 548 74 514 55 514 c 0x80
 39 514 31 538 31 558 c 0
 31 569 34 578 38 582 c 0
 81 617 117 628 147 628 c 0x40
 202 628 240 591 278 591 c 0
 314 591 307 615 351 617 c 1
 353 617 l 2
 370 617 377 608 377 597 c 0
 377 568 337 514 267 514 c 0x80
 208 514 168 548 130 548 c 0x40
101 45 m 2x10
 101 40 l 2
 101 18 76 -25 54 -25 c 0
 44 -25 30 -12 30 18 c 2
 30 24 l 1x10
 27 117 24 206 24 289 c 0
 24 341 25 390 28 437 c 0
 28 450 28 472 74 474 c 0
 86 475 93 471 97 466 c 0
 184 349 185 349 320 163 c 1
 324 201 325 236 325 270 c 0x24
 325 375 311 453 311 455 c 2
 311 461 l 2
 311 475 316 496 361 496 c 0
 366 496 380 496 382 482 c 0
 386 447 388 383 388 314 c 0
 388 215 384 106 376 68 c 0
 371 44 350 11 331 11 c 0
 326 11 321 14 317 19 c 0
 316 19 315 19 315 20 c 0
 299 52 232 144 192 204 c 0
 168 239 124 295 89 339 c 1
 87 306 87 277 87 252 c 0x28
 87 133 101 89 101 45 c 2x10
EndSplineSet
Validated: 1
EndChar

StartChar: ograve
Encoding: 242 242 177
Width: 540
Flags: W
HStem: -6 75<158.041 352.986> 414 73<210.535 365.528> 510 75<263.349 318.391>
VStem: 20 61<137.347 294.99> 460 61<150.66 309.13>
LayerCount: 2
Fore
SplineSet
284 510 m 2
 281 510 l 2
 253 510 170 551 154 569 c 0
 146 578 143 595 143 609 c 0
 143 613 144 617 144 620 c 0
 146 636 171 644 190 644 c 0
 200 644 208 642 211 638 c 1
 226 625 290 589 316 585 c 0
 326 584 330 575 330 564 c 0
 330 533 301 510 284 510 c 2
20 194 m 0
 20 367 176 487 314 487 c 0
 444 487 521 373 521 255 c 0
 521 118 421 -6 225 -6 c 0
 78 -6 20 81 20 194 c 0
295 414 m 0
 228 414 81 355 81 209 c 0
 81 111 166 70 258 69 c 1
 261 69 l 2
 355 69 460 117 460 219 c 2
 460 229 l 1
 454 331 378 414 295 414 c 0
EndSplineSet
Validated: 1
EndChar

StartChar: oacute
Encoding: 243 243 178
Width: 538
Flags: W
HStem: -5 75<155.267 350.734> 415 72<207.746 362.683>
VStem: 17 61<138.347 296.13> 457 61<151.264 309.6>
LayerCount: 2
Fore
SplineSet
362 661 m 1
 366 661 l 2
 382 661 387 653 387 643 c 0
 387 591 280 516 279 515 c 0
 273 511 267 510 263 510 c 0
 251 510 246 521 246 534 c 0
 246 547 251 563 259 572 c 0
 271 586 309 626 319 642 c 0
 321 646 330 659 362 661 c 1
17 195 m 0
 17 369 174 487 311 487 c 0
 442 487 518 373 518 255 c 0
 518 119 419 -5 223 -5 c 0
 75 -5 17 82 17 195 c 0
292 415 m 0
 225 415 78 356 78 210 c 0
 78 112 163 71 256 70 c 1
 259 70 l 2
 353 70 457 118 457 220 c 2
 457 230 l 1
 451 332 375 415 292 415 c 0
EndSplineSet
Validated: 1
EndChar

StartChar: ocircumflex
Encoding: 244 244 179
Width: 542
Flags: W
HStem: -6 75<160.041 354.986> 414 73<212.535 367.528>
VStem: 22 61<137.347 294.99> 462 61<150.66 309.13>
LayerCount: 2
Fore
SplineSet
433 563 m 0
 433 535 410 506 386 506 c 2
 384 506 l 2
 374 506 323 512 273 549 c 1
 232 508 187 485 164 485 c 0
 160 485 146 485 146 513 c 0
 146 530 154 549 172 557 c 0
 200 570 242 610 249 624 c 0
 254 633 276 640 294 640 c 0
 303 640 311 638 314 633 c 1
 385 560 433 598 433 563 c 0
22 194 m 0
 22 367 178 487 316 487 c 0
 446 487 523 373 523 255 c 0
 523 118 423 -6 227 -6 c 0
 80 -6 22 81 22 194 c 0
297 414 m 0
 230 414 83 355 83 209 c 0
 83 111 168 70 260 69 c 1
 263 69 l 2
 357 69 462 117 462 219 c 2
 462 229 l 1
 456 331 380 414 297 414 c 0
EndSplineSet
Validated: 1
EndChar

StartChar: otilde
Encoding: 245 245 180
Width: 534
Flags: W
HStem: -6 75<154.041 348.986> 414 73<206.535 361.528> 515 78<291.021 411.231> 549 81<157.998 282.556>
VStem: 16 61<137.347 294.99> 456 61<150.66 309.13>
LayerCount: 2
Fore
SplineSet
210 549 m 0xdc
 168 549 154 515 135 515 c 0xec
 119 515 111 540 111 560 c 0
 111 571 114 580 118 584 c 0
 161 619 197 630 227 630 c 0xdc
 282 630 320 593 358 593 c 0
 369 593 380 596 391 604 c 0
 401 615 421 617 431 618 c 1
 434 618 l 2
 451 618 457 610 457 599 c 0
 457 568 414 515 345 515 c 0xec
 287 515 248 549 210 549 c 0xdc
16 194 m 0
 16 367 172 487 310 487 c 0
 440 487 517 373 517 255 c 0
 517 118 417 -6 221 -6 c 0
 74 -6 16 81 16 194 c 0
291 414 m 0
 224 414 77 355 77 209 c 0
 77 111 162 70 254 69 c 1
 257 69 l 2
 351 69 456 117 456 219 c 2
 456 229 l 1
 450 331 374 414 291 414 c 0
EndSplineSet
Validated: 1
EndChar

StartChar: odieresis
Encoding: 246 246 181
Width: 534
Flags: W
HStem: -6 75<156.041 350.986> 414 73<208.535 363.528> 510 82<153.726 203.24> 524 81<330.552 380.24>
VStem: 18 61<137.347 294.99> 150 71<527.153 587.624> 327 71<541.078 600.624> 458 61<150.66 309.13>
LayerCount: 2
Fore
SplineSet
351 524 m 0xdf
 341 524 327 538 327 570 c 0
 327 574 328 578 328 581 c 0
 330 596 350 604 373 605 c 1
 376 605 l 2
 392 605 398 597 398 587 c 0
 398 564 369 524 351 524 c 0xdf
173 510 m 0xef
 162 510 150 528 150 557 c 0
 150 561 151 565 151 568 c 0
 153 583 173 591 196 592 c 1
 199 592 l 2
 215 592 221 585 221 574 c 0
 221 550 193 510 173 510 c 0xef
18 194 m 0
 18 367 174 487 312 487 c 0
 442 487 519 373 519 255 c 0
 519 118 419 -6 223 -6 c 0
 76 -6 18 81 18 194 c 0
293 414 m 0
 226 414 79 355 79 209 c 0
 79 111 164 70 256 69 c 1
 259 69 l 2
 353 69 458 117 458 219 c 2
 458 229 l 1
 452 331 376 414 293 414 c 0
EndSplineSet
Validated: 1
EndChar

StartChar: divide
Encoding: 247 247 182
Width: 494
Flags: W
HStem: 63 82<217.726 267.24> 160 81<32.4539 209.98> 195 82<218.838 452.443> 298 82<217.726 267.93>
VStem: 214 71<80.1527 140.624 314.05 375.624>
LayerCount: 2
Fore
SplineSet
237 298 m 0x98
 226 298 214 316 214 345 c 0
 214 349 215 353 215 356 c 0
 217 371 237 379 260 380 c 1
 263 380 l 2
 279 380 286 372 286 362 c 0
 286 338 257 298 237 298 c 0x98
419 195 m 2xb8
 254 195 57 160 53 160 c 2
 52 160 l 2
 38 160 29 182 29 205 c 0
 29 217 29 239 75 241 c 0xd8
 85 242 438 277 442 277 c 2
 448 277 l 2
 465 277 471 269 471 258 c 0
 471 234 440 195 423 195 c 2
 419 195 l 2xb8
237 63 m 0
 226 63 214 81 214 110 c 0
 214 114 215 118 215 121 c 0
 217 136 237 144 260 145 c 1
 263 145 l 2
 279 145 285 138 285 127 c 0
 285 103 257 63 237 63 c 0
EndSplineSet
Validated: 1
EndChar

StartChar: oslash
Encoding: 248 248 183
Width: 536
Flags: W
HStem: -6 76<212 346.814> 413 74<208.985 328.439>
VStem: 16 61<135.236 295.448> 80 63<-101.847 -26.5288> 456 61<152.203 309.102>
LayerCount: 2
Fore
SplineSet
16 196 m 0
 16 374 182 487 309 487 c 0
 330 487 350 484 369 478 c 1
 409 549 l 1
 416 559 433 564 451 565 c 1
 454 565 l 2
 470 565 476 557 476 547 c 0
 476 531 462 510 462 510 c 1
 456 501 442 479 425 451 c 1
 483 409 517 333 517 255 c 0
 517 108 404 -6 224 -6 c 0
 207 -6 191 -5 176 -3 c 1
 146 -65 143 -72 143 -73 c 0
 137 -87 120 -109 104 -109 c 0
 84 -109 80 -77 80 -63 c 0
 80 -49 84 -41 113 15 c 1
 44 48 16 116 16 196 c 0
291 413 m 0
 196 413 77 337 77 209 c 0
 77 150 108 111 153 90 c 1
 206 187 257 281 329 408 c 1
 318 411 305 413 291 413 c 0
381 380 m 1
 304 254 283 217 212 73 c 1
 227 71 242 70 257 70 c 0
 358 70 456 121 456 219 c 2
 456 229 l 1
 452 291 422 347 381 380 c 1
EndSplineSet
Validated: 1
EndChar

StartChar: ugrave
Encoding: 249 249 184
Width: 390
Flags: W
HStem: -5 78<118.078 248.495> 455 20G<64 86> 500 75<175.803 231.89>
VStem: 22 62<111.126 432.109> 30 69<243.449 471> 287 74<233.334 491.451> 297 62<108.3 494.219>
LayerCount: 2
Fore
SplineSet
197 500 m 2xe0
 194 500 l 2
 166 500 83 541 67 559 c 0
 59 568 56 585 56 599 c 0
 56 603 57 607 57 610 c 0
 59 626 84 634 103 634 c 0
 113 634 121 632 124 628 c 1
 139 615 202 579 228 575 c 0
 238 574 243 565 243 553 c 0
 243 522 213 500 197 500 c 2xe0
168 74 m 0
 245 84 279 111 295 115 c 1
 295 146 296 186 297 244 c 1
 297 272 l 2xf2
 297 348 292 409 288 443 c 0
 287 453 286 464 287 472 c 0
 289 486 314 496 333 496 c 0
 347 496 358 491 358 479 c 0
 358 456 361 427 361 396 c 0xe4
 361 348 359 295 359 243 c 0
 359 182 361 124 370 84 c 0
 370 82 371 80 371 78 c 0
 371 53 343 13 322 13 c 0
 313 13 305 20 301 39 c 1
 284 30 263 9 163 -4 c 0
 156 -5 150 -5 144 -5 c 0
 60 -5 22 75 22 188 c 2
 22 204 l 1xf2
 29 450 29 450 30 453 c 0
 34 467 53 474 75 475 c 1
 79 475 l 2
 93 475 99 470 99 458 c 2
 99 453 l 1xe8
 96 423 85 334 84 239 c 0xf0
 84 148 103 73 159 73 c 0
 162 73 165 74 168 74 c 0
EndSplineSet
Validated: 1
EndChar

StartChar: uacute
Encoding: 250 250 185
Width: 392
Flags: W
HStem: -5 78<122.078 252.495> 455 20G<68 90>
VStem: 26 62<111.126 432.109> 34 69<243.449 471> 291 74<233.334 491.451> 301 62<108.3 494.219>
LayerCount: 2
Fore
SplineSet
286 651 m 1xc0
 290 651 l 2
 306 651 311 643 311 633 c 0
 311 588 210 501 187 501 c 0
 175 501 170 512 170 525 c 0
 170 538 175 553 183 562 c 0
 195 576 233 617 243 633 c 0
 249 645 267 650 286 651 c 1xc0
172 74 m 0
 249 84 283 111 299 115 c 1
 299 146 300 186 301 244 c 1
 301 272 l 2xe4
 301 348 296 409 292 443 c 0
 291 453 290 464 291 472 c 0
 293 486 318 496 337 496 c 0
 351 496 362 491 362 479 c 0
 362 456 365 427 365 396 c 0xc8
 365 348 363 295 363 243 c 0
 363 182 365 124 374 84 c 0
 374 82 375 80 375 78 c 0
 375 53 347 13 326 13 c 0
 317 13 309 20 305 39 c 1
 288 30 267 9 167 -4 c 0
 160 -5 154 -5 148 -5 c 0
 64 -5 26 75 26 188 c 2
 26 204 l 1xe4
 33 450 33 450 34 453 c 0
 38 467 57 474 79 475 c 1
 83 475 l 2
 97 475 103 470 103 458 c 2
 103 453 l 1xd0
 100 423 89 334 88 239 c 0xe0
 88 148 107 73 163 73 c 0
 166 73 169 74 172 74 c 0
EndSplineSet
Validated: 1
EndChar

StartChar: ucircumflex
Encoding: 251 251 186
Width: 394
Flags: W
HStem: -5 78<122.078 252.495> 455 20G<68 90> 541 74<265.206 334.097>
VStem: 26 62<111.126 432.109> 34 69<243.449 471> 291 74<233.334 491.451> 301 62<108.3 494.219>
LayerCount: 2
Fore
SplineSet
346 594 m 0xe0
 346 565 316 541 300 541 c 2
 298 541 l 2
 288 541 237 547 187 584 c 1
 148 545 101 520 78 520 c 0
 67 520 60 528 60 548 c 0
 60 565 68 582 86 591 c 0
 131 612 163 659 164 660 c 0
 172 669 191 675 207 675 c 0
 216 675 225 673 228 668 c 1
 264 631 278 628 333 615 c 0
 342 613 346 605 346 594 c 0xe0
172 74 m 0
 249 84 283 111 299 115 c 1
 299 146 300 186 301 244 c 1
 301 272 l 2xf2
 301 348 296 409 292 443 c 0
 291 453 290 464 291 472 c 0
 293 486 318 496 337 496 c 0
 351 496 362 491 362 479 c 0
 362 456 365 427 365 396 c 0xe4
 365 348 363 295 363 243 c 0
 363 182 365 124 374 84 c 0
 374 82 375 80 375 78 c 0
 375 53 347 13 326 13 c 0
 317 13 309 20 305 39 c 1
 288 30 267 9 167 -4 c 0
 160 -5 154 -5 148 -5 c 0
 64 -5 26 75 26 188 c 2
 26 204 l 1xf2
 33 450 33 450 34 453 c 0
 38 467 57 474 79 475 c 1
 83 475 l 2
 97 475 103 470 103 458 c 2
 103 453 l 1xe8
 100 423 89 334 88 239 c 0xf0
 88 148 107 73 163 73 c 0
 166 73 169 74 172 74 c 0
EndSplineSet
Validated: 1
EndChar

StartChar: udieresis
Encoding: 252 252 187
Width: 390
Flags: W
HStem: -5 78<120.078 250.495> 455 20G<66 88> 510 82<83.7259 133.24> 524 81<260.552 310.24>
VStem: 24 62<111.126 432.109> 32 69<243.449 471> 80 71<527.153 587.624> 257 71<541.078 600.624> 289 74<233.334 491.451> 299 62<108.3 494.219>
LayerCount: 2
Fore
SplineSet
281 524 m 0xd1
 271 524 257 538 257 570 c 0
 257 574 258 578 258 581 c 0
 260 596 280 604 303 605 c 1
 306 605 l 2
 322 605 328 597 328 587 c 0
 328 564 299 524 281 524 c 0xd1
103 510 m 0xe2
 92 510 80 528 80 557 c 0
 80 561 81 565 81 568 c 0
 83 583 103 591 126 592 c 1
 129 592 l 2
 145 592 151 585 151 574 c 0
 151 550 123 510 103 510 c 0xe2
170 74 m 0
 247 84 281 111 297 115 c 1
 297 146 298 186 299 244 c 1
 299 272 l 2xc840
 299 348 294 409 290 443 c 0
 289 453 288 464 289 472 c 0
 291 486 316 496 335 496 c 0
 349 496 360 491 360 479 c 0
 360 456 363 427 363 396 c 0xc080
 363 348 361 295 361 243 c 0
 361 182 363 124 372 84 c 0
 372 82 373 80 373 78 c 0
 373 53 345 13 324 13 c 0
 315 13 307 20 303 39 c 1
 286 30 265 9 165 -4 c 0
 158 -5 152 -5 146 -5 c 0
 62 -5 24 75 24 188 c 2
 24 204 l 1xc840
 31 450 31 450 32 453 c 0
 36 467 55 474 77 475 c 1
 81 475 l 2
 95 475 101 470 101 458 c 2
 101 453 l 1xc4
 98 423 87 334 86 239 c 0xc8
 86 148 105 73 161 73 c 0
 164 73 167 74 170 74 c 0
EndSplineSet
Validated: 1
EndChar

StartChar: yacute
Encoding: 253 253 188
Width: 382
Flags: W
HStem: 455 20G<53 69.5>
VStem: 19 71<422.281 470.148> 298 66<439.139 492.878>
LayerCount: 2
Fore
SplineSet
277 631 m 1
 281 631 l 2
 297 631 302 624 302 614 c 0
 302 563 197 488 194 486 c 0
 187 482 182 481 177 481 c 0
 165 481 160 492 160 506 c 0
 160 519 165 533 173 542 c 0
 185 556 223 597 233 613 c 0
 235 617 245 629 277 631 c 1
128 -13 m 0
 122 -13 105 -6 105 34 c 0
 105 39 105 44 106 47 c 0
 106 48 107 47 107 48 c 0
 121 78 151 160 178 227 c 1
 153 245 127 264 97 298 c 0
 96 299 21 387 21 422 c 0
 21 428 19 433 19 438 c 0
 19 464 43 475 63 475 c 0
 76 475 88 470 90 463 c 0
 93 447 132 359 211 304 c 1
 212 306 297 479 298 480 c 0
 305 490 322 495 340 496 c 1
 343 496 l 2
 355 496 364 491 364 478 c 0
 364 446 281 331 234 219 c 0
 185 101 182 22 147 -4 c 0
 139 -10 133 -13 128 -13 c 0
EndSplineSet
Validated: 1
EndChar

StartChar: thorn
Encoding: 254 254 189
Width: 408
Flags: W
HStem: 132 77<103 213.862> 375 76<98 205.496> 388 77<99.0372 300.869>
VStem: 23 71<291.49 378.191 451 527 527.009 566.865> 41 62<30.8651 134.507 209 375.345> 331 62<265.297 359.636>
LayerCount: 2
Fore
SplineSet
51 -23 m 0xac
 27 -23 27 26 27 29 c 0
 27 68 41 158 41 212 c 0xac
 41 215 35 468 23 527 c 1
 23 527 23 539 24 548 c 0
 26 562 51 572 70 572 c 0
 83 572 94 568 94 557 c 2
 94 546 l 2
 94 534 94 507 96 451 c 1xd4
 143 459 188 465 227 465 c 0
 324 465 390 433 393 339 c 1
 393 333 l 2
 393 207 291 158 103 132 c 1
 102 51 102 8 70 -15 c 0
 62 -21 56 -23 51 -23 c 0xac
98 375 m 1xcc
 101 290 102 255 103 209 c 1
 209 215 331 236 331 310 c 0
 331 346 307 388 207 388 c 0xac
 175 388 138 383 98 375 c 1xcc
EndSplineSet
Validated: 1
EndChar

StartChar: ydieresis
Encoding: 255 255 190
Width: 378
Flags: W
HStem: 455 20G<53 69.5> 512 82<75.7259 124.83> 526 82<252.726 301.83>
VStem: 19 71<422.281 470.148> 72 71<529.572 589.624> 249 71<543.572 603.624> 298 66<439.139 492.878>
LayerCount: 2
Fore
SplineSet
272 526 m 0xa4
 261 526 249 544 249 573 c 0xa4
 249 577 250 581 250 584 c 0
 252 599 272 607 295 608 c 1
 298 608 l 2xa2
 314 608 320 600 320 590 c 0
 320 565 290 526 272 526 c 0xa4
95 512 m 0xc8
 84 512 72 530 72 559 c 0
 72 563 73 567 73 570 c 0
 75 585 95 593 118 594 c 1
 121 594 l 2
 137 594 143 586 143 576 c 0
 143 551 113 512 95 512 c 0xc8
128 -13 m 0
 122 -13 105 -6 105 34 c 0
 105 39 105 44 106 47 c 0
 106 48 107 47 107 48 c 0
 121 78 151 160 178 227 c 1
 153 245 127 264 97 298 c 0
 96 299 21 387 21 422 c 0
 21 428 19 433 19 438 c 0
 19 464 43 475 63 475 c 0
 76 475 88 470 90 463 c 0
 93 447 132 359 211 304 c 1
 212 306 297 479 298 480 c 0
 305 490 322 495 340 496 c 1
 343 496 l 2
 355 496 364 491 364 478 c 0x92
 364 446 281 331 234 219 c 0
 185 101 182 22 147 -4 c 0
 139 -10 133 -13 128 -13 c 0
EndSplineSet
Validated: 1
EndChar

StartChar: Abreve
Encoding: 258 258 191
Width: 558
Flags: W
HStem: 606 72<224.16 335.691>
VStem: 19 64<-100.985 -5.56763> 475 66<-40.3445 30.1588>
LayerCount: 2
Fore
SplineSet
434 754 m 0
 434 719 369 616 283 607 c 0
 278 607 274 606 269 606 c 0
 200 606 126 651 126 712 c 0
 126 716 126 720 127 724 c 0
 129 739 153 749 172 749 c 0
 182 749 191 746 195 740 c 0
 210 717 228 678 275 678 c 0
 336 678 353 719 364 749 c 0
 369 762 388 770 409 771 c 1
 412 771 l 2
 426 771 434 766 434 754 c 0
42 -110 m 0
 27 -110 19 -93 19 -65 c 0
 19 -57 20 -51 21 -48 c 0
 200 424 228 493 249 560 c 0
 254 575 276 585 295 585 c 0
 306 585 315 582 318 575 c 0
 334 547 395 414 429 333 c 0
 467 244 541 21 541 12 c 2
 541 8 l 2
 541 -15 515 -56 494 -56 c 0
 486 -56 480 -51 475 -38 c 0
 467 -18 448 53 424 129 c 1
 385 122 259 97 123 50 c 1
 102 -12 84 -71 83 -72 c 0
 76 -88 58 -110 42 -110 c 0
279 470 m 1
 269 446 159 152 152 132 c 1
 186 140 186 140 401 201 c 1
 377 271 360 315 279 470 c 1
EndSplineSet
Validated: 1
EndChar

StartChar: abreve
Encoding: 259 259 192
Width: 474
Flags: W
HStem: 510 72<178.996 287.691>
VStem: 355 105<81.5293 142.567>
LayerCount: 2
Fore
SplineSet
386 658 m 0
 386 623 321 520 235 511 c 0
 230 511 226 510 221 510 c 0
 152 510 78 555 78 616 c 0
 78 620 78 624 79 628 c 0
 81 643 105 653 125 653 c 0
 135 653 144 650 148 644 c 0
 163 621 180 582 227 582 c 0
 288 582 305 623 316 653 c 0
 321 666 340 674 361 675 c 1
 364 675 l 2
 377 675 386 671 386 658 c 0
35 -31 m 0
 24 -31 12 -15 12 15 c 0
 12 19 13 23 13 26 c 0
 13 31 108 275 205 463 c 0
 211 475 231 484 250 484 c 0
 260 484 269 482 273 476 c 0
 350 349 376 291 403 229 c 1
 406 229 408 230 411 230 c 0
 424 230 433 225 433 212 c 0
 433 205 430 195 423 181 c 0
 423 180 460 90 460 78 c 0
 460 55 434 12 413 12 c 0
 407 12 402 16 397 24 c 0
 394 26 374 92 355 145 c 1
 230 136 171 105 96 66 c 1
 74 0 70 -9 53 -22 c 0
 45 -28 40 -31 35 -31 c 0
127 158 m 1
 165 174 222 196 327 217 c 1
 300 280 274 322 233 382 c 1
 177 284 150 223 127 158 c 1
EndSplineSet
Validated: 1
EndChar

StartChar: Aogonek
Encoding: 260 260 193
Width: 564
Flags: W
HStem: -169 77<503.826 576.44>
VStem: 15 64<-100.985 -25.4412> 433 70<-91.061 -28.6257>
LayerCount: 2
Fore
SplineSet
38 -110 m 0
 23 -110 15 -93 15 -65 c 0
 15 -57 16 -51 17 -48 c 0
 202 440 224 494 245 560 c 0
 250 575 272 585 291 585 c 0
 302 585 311 582 314 575 c 0
 330 547 391 414 425 333 c 0
 463 244 537 21 537 12 c 2
 537 8 l 2
 537 -9 522 -35 515 -42 c 0
 506 -50 503 -59 503 -68 c 0
 503 -81 512 -92 527 -92 c 0
 555 -92 549 -70 597 -67 c 1
 600 -67 l 2
 616 -67 622 -74 622 -84 c 0
 622 -102 605 -128 599 -134 c 0
 587 -147 572 -162 518 -168 c 0
 515 -168 511 -169 508 -169 c 0
 463 -169 433 -135 433 -88 c 0
 433 -63 441 -35 460 -6 c 1
 450 27 436 76 420 129 c 1
 381 122 255 97 119 50 c 1
 98 -12 80 -71 79 -72 c 0
 72 -88 54 -110 38 -110 c 0
275 470 m 1
 265 446 155 152 148 132 c 1
 182 140 182 140 397 201 c 1
 373 271 356 315 275 470 c 1
EndSplineSet
Validated: 1
EndChar

StartChar: aogonek
Encoding: 261 261 194
Width: 506
Flags: W
HStem: -103 77<430.857 499.344>
VStem: 359 70<-25.0609 36.5376>
LayerCount: 2
Fore
SplineSet
40 -31 m 0
 29 -31 17 -15 17 15 c 0
 17 19 18 23 18 26 c 0
 18 31 114 275 211 463 c 0
 217 475 237 484 256 484 c 0
 266 484 275 482 279 476 c 0
 356 349 381 291 408 229 c 1
 411 229 413 230 416 230 c 0
 429 230 439 225 439 212 c 0
 439 205 436 194 429 181 c 0
 429 180 466 90 466 78 c 0
 466 63 455 39 441 25 c 0
 432 17 429 8 429 -1 c 0
 429 -15 438 -26 453 -26 c 0
 480 -26 479 -3 522 -0 c 1
 526 0 l 2
 543 0 548 -8 548 -18 c 0
 548 -36 531 -61 525 -67 c 0
 513 -80 497 -96 443 -102 c 0
 440 -102 436 -103 433 -103 c 0
 387 -103 359 -69 359 -22 c 0
 359 4 368 34 388 64 c 1
 381 86 372 112 360 145 c 1
 332 143 295 138 247 127 c 0
 183 112 124 78 101 66 c 1
 79 0 75 -9 58 -22 c 0
 50 -28 45 -31 40 -31 c 0
133 158 m 1
 171 174 227 196 332 217 c 1
 305 280 279 323 238 382 c 1
 182 285 156 223 133 158 c 1
EndSplineSet
Validated: 1
EndChar

StartChar: Cacute
Encoding: 262 262 195
Width: 498
Flags: W
HStem: -88 72<157.345 322.496> 511 77<228.874 350.074>
VStem: 12 64<74.2511 278.248> 398 68<418.669 465.248>
LayerCount: 2
Fore
SplineSet
410 761 m 1
 414 761 l 2
 430 761 435 754 435 744 c 0
 435 694 334 619 327 616 c 0
 320 612 315 611 310 611 c 0
 298 611 293 622 293 636 c 0
 293 649 298 663 306 672 c 0
 318 686 357 727 367 743 c 0
 373 755 391 760 410 761 c 1
12 152 m 0
 12 288 129 588 310 588 c 0
 423 588 466 485 466 468 c 0
 466 445 440 403 419 403 c 0
 416 403 408 403 398 423 c 0
 380 481 333 511 286 511 c 0
 257 511 229 500 206 478 c 0
 130 404 76 284 76 176 c 0
 76 72 134 -9 217 -15 c 0
 222 -15 227 -16 232 -16 c 0
 315 -16 381 39 411 69 c 0
 414 72 425 81 450 82 c 1
 452 82 l 2
 469 82 475 74 475 64 c 0
 475 46 458 21 453 15 c 0
 436 -3 396 -66 242 -86 c 0
 233 -87 224 -88 215 -88 c 0
 97 -88 12 15 12 152 c 0
EndSplineSet
Validated: 1
EndChar

StartChar: cacute
Encoding: 263 263 196
Width: 426
Flags: W
HStem: -3 73<128.939 287.273> 418 72<185.759 304.324>
VStem: 13 63<122.846 277.64>
LayerCount: 2
Fore
SplineSet
366 661 m 1
 370 661 l 2
 386 661 391 653 391 643 c 0
 391 594 289 519 283 516 c 0
 276 512 271 511 266 511 c 0
 254 511 249 522 249 536 c 0
 249 549 254 563 262 572 c 0
 274 586 313 627 323 643 c 0
 329 655 347 660 366 661 c 1
13 173 m 0
 13 288 115 490 267 490 c 0
 354 490 398 423 398 399 c 0
 398 377 374 334 352 334 c 0
 324 334 328 418 249 418 c 0
 167 418 81 315 76 197 c 1
 76 192 l 2
 76 128 127 70 189 70 c 2
 196 70 l 1
 263 75 307 96 341 123 c 0
 348 129 360 136 382 137 c 1
 385 137 l 2
 401 137 407 129 407 119 c 0
 407 101 391 76 382 68 c 0
 355 40 318 10 205 -2 c 0
 198 -3 191 -3 184 -3 c 0
 89 -3 13 67 13 173 c 0
EndSplineSet
Validated: 1
EndChar

StartChar: Ccaron
Encoding: 268 268 197
Width: 498
Flags: W
HStem: -88 72<159.345 324.496> 511 77<230.874 352.074> 678 75<152.705 227.421> 705 71<388.514 443.748>
VStem: 14 64<74.2511 278.248> 400 68<418.669 465.248>
LayerCount: 2
Fore
SplineSet
298 610 m 0xdc
 288 610 243 667 162 678 c 0xec
 152 678 146 691 146 705 c 0xdc
 146 727 159 753 189 753 c 2
 192 753 l 2xec
 202 753 251 747 311 710 c 1
 345 740 402 776 432 776 c 0
 444 776 452 770 452 755 c 0
 452 751 451 720 420 705 c 0
 366 679 323 610 298 610 c 0xdc
14 152 m 0
 14 288 131 588 312 588 c 0
 425 588 468 485 468 468 c 0
 468 445 442 403 421 403 c 0
 418 403 410 403 400 423 c 0
 382 481 335 511 288 511 c 0
 259 511 231 500 208 478 c 0
 132 404 78 284 78 176 c 0
 78 72 136 -9 219 -15 c 0
 224 -15 229 -16 234 -16 c 0
 317 -16 383 39 413 69 c 0
 416 72 427 81 452 82 c 1
 454 82 l 2
 471 82 477 74 477 64 c 0
 477 46 460 21 455 15 c 0
 438 -3 398 -66 244 -86 c 0
 235 -87 226 -88 217 -88 c 0
 99 -88 14 15 14 152 c 0
EndSplineSet
Validated: 1
EndChar

StartChar: ccaron
Encoding: 269 269 198
Width: 422
Flags: W
HStem: -3 73<128.939 287.273> 418 72<185.759 304.324> 578 75<100.705 175.421> 605 71<336.514 391.748>
VStem: 13 63<122.846 277.64>
LayerCount: 2
Fore
SplineSet
246 510 m 0xd8
 236 510 191 567 110 578 c 0xe8
 100 578 94 591 94 605 c 0xd8
 94 627 107 653 137 653 c 2
 140 653 l 2xe8
 150 653 199 647 259 610 c 1
 293 640 350 676 380 676 c 0
 392 676 400 670 400 655 c 0
 400 651 399 620 368 605 c 0
 314 579 271 510 246 510 c 0xd8
13 173 m 0
 13 288 115 490 267 490 c 0
 354 490 398 423 398 399 c 0
 398 377 374 334 352 334 c 0
 324 334 328 418 249 418 c 0
 167 418 81 315 76 197 c 1
 76 192 l 2
 76 128 127 70 189 70 c 2
 196 70 l 1
 263 75 307 96 341 123 c 0
 348 129 360 136 382 137 c 1
 385 137 l 2
 401 137 407 129 407 119 c 0
 407 101 391 76 382 68 c 0
 355 40 318 10 205 -2 c 0
 198 -3 191 -3 184 -3 c 0
 89 -3 13 67 13 173 c 0
EndSplineSet
Validated: 1
EndChar

StartChar: Dcaron
Encoding: 270 270 199
Width: 544
Flags: W
HStem: -109 82<32.9358 76 147 217.737> 468 78<23.1411 77.0237> 508 76<150.685 352.74> 678 75<124.705 199.421> 705 71<360.514 415.748>
VStem: 71 68<12.7714 476.051> 76 71<-23 236.572 289.603 478> 466 62<167.4 384.793>
LayerCount: 2
Fore
SplineSet
270 610 m 0x89
 260 610 215 667 134 678 c 0x91
 124 678 118 691 118 705 c 0x89
 118 727 131 753 161 753 c 2
 164 753 l 2x91
 174 753 223 747 283 710 c 1
 317 740 374 776 404 776 c 0
 416 776 424 770 424 755 c 0
 424 751 423 720 392 705 c 0
 338 679 295 610 270 610 c 0x89
41 468 m 0xc5
 31 468 20 486 20 514 c 0
 20 518 21 522 21 525 c 0
 22 536 34 542 48 546 c 0xc5
 128 570 195 583 252 584 c 1
 263 584 l 2
 459 584 528 457 528 300 c 0
 528 210 496 -97 55 -109 c 1
 53 -109 l 2
 39 -109 29 -86 29 -63 c 0
 29 -52 29 -29 76 -27 c 1xa3
 75 30 72 184 71 250 c 0
 71 316 75 432 78 477 c 1
 78 478 l 1
 57 471 47 468 41 468 c 0xc5
139 284 m 0
 139 252 147 2 147 -1 c 2
 147 -23 l 1
 378 3 466 126 466 270 c 0
 466 314 461 508 246 508 c 0xa3
 217 508 185 505 149 497 c 0
 149 494 139 404 139 284 c 0
EndSplineSet
Validated: 1
EndChar

StartChar: dcaron
Encoding: 271 271 200
Width: 438
Flags: W
HStem: 406 76<103.174 282.381> 578 75<56.1867 130.653> 605 71<292.514 347.55>
VStem: 31 67<66.1789 396.631> 38 70<66 278.484> 360 61<168.723 333.729>
LayerCount: 2
Fore
SplineSet
202 510 m 0xa4
 192 510 146 567 65 578 c 0
 55 578 49 590 49 604 c 0
 49 626 63 653 93 653 c 2
 96 653 l 2xc4
 106 653 155 647 215 610 c 1
 249 640 305 676 335 676 c 0
 347 676 355 670 355 655 c 0
 355 650 354 619 324 605 c 0
 270 579 227 510 202 510 c 0xa4
38 33 m 1x8c
 33 178 31 239 31 284 c 0x94
 31 318 32 342 34 385 c 1
 22 394 19 414 19 428 c 0
 19 441 19 456 50 462 c 0
 106 476 156 482 201 482 c 0
 340 481 421 411 421 281 c 0
 421 0 98 -17 63 -17 c 2
 60 -17 l 1
 45 -15 38 12 38 17 c 2
 38 33 l 1x8c
98 283 m 0
 98 187 108 68 108 66 c 1x8c
 224 76 360 110 360 254 c 0
 360 293 346 406 176 406 c 0
 151 406 126 403 102 398 c 1
 99 369 98 327 98 283 c 0
EndSplineSet
Validated: 1
EndChar

StartChar: Dcroat
Encoding: 272 272 201
Width: 544
Flags: W
HStem: -109 82<32.9358 76 147 217.154> 174 82<27.9189 50 50.0123 71> 198 82<142.601 262.443> 468 78<23.261 76.4395> 508 76<150.685 352.74>
VStem: 71 68<-22.6094 180 264 474.89> 76 71<-23 179.495 264.312 478> 466 61<166.957 384.793>
LayerCount: 2
Fore
SplineSet
29 -63 m 0x8d
 29 -52 29 -29 76 -27 c 1x8b
 75 14 73 104 72 180 c 1
 67 179 50 174 50 174 c 1
 48 174 l 2
 34 174 24 197 24 220 c 0
 24 241 31 252 71 256 c 1
 71 323 75 433 78 477 c 1
 78 478 l 1
 57 471 47 468 41 468 c 0
 31 468 20 486 20 514 c 0
 20 518 21 522 21 525 c 0
 22 536 33 542 47 546 c 0xd5
 127 570 195 583 252 584 c 1
 263 584 l 2
 459 584 527 457 527 300 c 0
 527 208 494 -97 55 -109 c 1
 53 -109 l 2
 39 -109 29 -86 29 -63 c 0x8d
139 264 m 1xad
 140 264 245 280 253 280 c 2
 258 280 l 2
 275 280 281 272 281 261 c 0
 281 237 250 198 233 198 c 2
 232 198 l 2
 219 198 175 196 141 192 c 1
 144 126 147 48 147 2 c 2
 147 -23 l 1xab
 378 3 466 126 466 270 c 0
 466 314 461 508 246 508 c 0
 217 508 185 505 149 497 c 0
 149 495 139 430 139 284 c 2
 139 264 l 1xad
EndSplineSet
Validated: 1
EndChar

StartChar: dcroat
Encoding: 273 273 202
Width: 444
Flags: W
HStem: 200 81<109.216 219.83> 406 76<111.174 290.381>
VStem: 38 68<265 396.396> 46 70<66 178> 368 61<168.723 333.729>
LayerCount: 2
Fore
SplineSet
15 224 m 0xd8
 15 239 16 249 38 256 c 1xe8
 38 306 40 351 42 385 c 1
 30 394 27 414 27 428 c 0
 27 441 27 456 58 462 c 0
 114 476 164 482 209 482 c 0
 348 481 429 411 429 281 c 0
 429 0 106 -17 71 -17 c 2
 68 -17 l 1
 53 -15 46 12 46 17 c 2
 46 33 l 1
 45 65 42 122 40 178 c 1
 39 178 l 2
 25 178 15 201 15 224 c 0xd8
184 406 m 0
 159 406 134 403 110 398 c 1
 107 364 106 316 106 265 c 1xe8
 126 268 201 280 212 281 c 1
 215 281 l 2
 231 281 238 273 238 262 c 0
 238 238 208 200 190 200 c 2
 179 200 l 2
 156 200 134 197 108 193 c 1
 111 137 115 98 116 66 c 1xd8
 232 76 368 110 368 254 c 0
 368 293 354 406 184 406 c 0
EndSplineSet
Validated: 1
EndChar

StartChar: Eogonek
Encoding: 280 280 203
Width: 550
Flags: W
HStem: -173 76<468.354 539.986> -97 76<122.964 291.916> 255 82<230.868 453.83> 473 21G<35 45> 516 81<229.133 485.785>
VStem: 61 61<-43.5 91.5948> 75 70<303.361 480> 89 60<30.8413 229.318 300 431.959> 397 70<-121.464 -64.3454>
LayerCount: 2
Fore
SplineSet
61 -23 m 0x7c80
 61 28 88 67 89 167 c 1
 89 207 l 2x7980
 89 354 75 464 75 467 c 0
 74 471 74 476 74 480 c 1
 46 473 45 473 45 473 c 1
 42 473 l 2
 28 473 19 496 19 519 c 0
 19 530 19 547 58 554 c 0
 236 585 352 595 476 597 c 1
 482 597 l 2
 499 597 505 590 505 579 c 0
 505 555 473 516 456 516 c 0
 455 516 431 518 394 518 c 0
 271 518 146 500 145 495 c 0x7a80
 147 462 150 384 150 300 c 1
 277 329 446 337 449 337 c 2
 450 337 l 2
 466 337 472 329 472 318 c 0
 472 294 442 255 424 255 c 2
 417 255 l 2
 327 255 225 248 149 224 c 1x7980
 146 42 122 39 122 -0 c 0
 122 -19 152 -21 162 -21 c 0x7c80
 205 -21 272 5 469 21 c 0
 474 22 477 22 481 22 c 0
 498 22 504 14 504 4 c 0
 504 -14 485 -41 479 -47 c 0
 470 -55 467 -64 467 -73 c 0
 467 -86 476 -97 491 -97 c 0
 519 -97 513 -75 560 -72 c 1
 564 -72 l 2
 581 -72 586 -80 586 -90 c 0
 586 -108 569 -133 563 -139 c 0
 551 -152 535 -167 481 -173 c 1
 472 -173 l 2xbc80
 433 -173 397 -146 397 -95 c 0
 397 -85 398 -75 401 -64 c 1
 341 -69 246 -79 178 -93 c 0
 163 -96 151 -97 139 -97 c 0
 82 -97 61 -64 61 -23 c 0x7c80
EndSplineSet
Validated: 1
EndChar

StartChar: eogonek
Encoding: 281 281 204
Width: 462
Flags: W
HStem: -96 76<375.526 447.986> -15 76<86.1383 239.617> 231 82<162.344 366.83> 415 81<150.254 394>
VStem: 23 62<37.5 174.624> 51 63<280 379> 304 71<-43.9642 13.6315>
LayerCount: 2
Fore
SplineSet
23 58 m 0xfa
 23 109 50 149 51 249 c 1
 51 259 l 2
 51 329 41 379 40 379 c 2
 38 379 l 2
 24 379 14 402 14 425 c 0
 14 436 14 454 56 460 c 0
 114 469 251 493 385 496 c 1
 389 496 l 2
 406 496 412 488 412 477 c 0
 412 453 380 414 364 414 c 0
 363 414 343 415 313 415 c 0
 260 415 189 411 112 395 c 1
 113 372 114 344 114 314 c 2
 114 280 l 1xf6
 183 297 211 304 360 313 c 1
 363 313 l 2
 379 313 385 305 385 294 c 0
 385 270 355 231 337 231 c 2
 335 231 l 1
 326 232 312 233 292 233 c 0
 249 233 183 228 108 203 c 1
 104 167 85 96 85 81 c 0
 85 70 94 61 123 61 c 0
 146 61 322 99 389 99 c 0
 406 99 412 92 412 82 c 0
 412 64 393 37 387 31 c 0
 378 23 375 14 375 5 c 0
 375 -9 384 -20 399 -20 c 0
 427 -20 421 2 468 5 c 1
 472 5 l 2
 489 5 494 -3 494 -13 c 0
 494 -31 477 -56 471 -62 c 0
 459 -75 443 -90 389 -96 c 1
 381 -96 l 2
 342 -96 304 -68 304 -18 c 0
 304 -8 306 2 309 14 c 1
 264 10 197 3 137 -10 c 0
 122 -13 109 -15 97 -15 c 0
 43 -15 23 17 23 58 c 0xfa
EndSplineSet
Validated: 1
EndChar

StartChar: Ecaron
Encoding: 282 282 205
Width: 524
Flags: W
HStem: -97 76<123.463 290.963> 255 82<233.806 453.83> 473 21G<35 45> 516 81<229.133 485.785> 682 75<128.187 202.653> 709 71<364.514 419.748>
VStem: 61 62<-43.5 92.0546> 75 70<303.361 480> 89 61<33.1621 229.518 300 431.959>
LayerCount: 2
Fore
SplineSet
274 614 m 0xf4
 264 614 218 671 137 682 c 0
 127 682 121 694 121 708 c 0
 121 730 135 757 165 757 c 2
 168 757 l 2xf8
 178 757 227 751 287 714 c 1
 321 744 378 780 408 780 c 0
 420 780 428 774 428 759 c 0
 428 755 427 724 396 709 c 0
 342 683 299 614 274 614 c 0xf4
61 -23 m 0xf2
 61 28 88 67 89 167 c 1
 89 207 l 2xf080
 89 354 75 464 75 467 c 0
 74 471 74 476 74 480 c 1
 46 473 45 473 45 473 c 1
 42 473 l 2
 28 473 19 496 19 519 c 0
 19 530 19 547 58 554 c 0
 236 585 352 595 476 597 c 1
 482 597 l 2
 499 597 505 590 505 579 c 0
 505 555 473 516 456 516 c 0
 455 516 431 518 394 518 c 0
 271 518 146 500 145 495 c 0xf1
 147 462 150 384 150 300 c 1
 277 329 446 337 449 337 c 2
 450 337 l 2
 466 337 472 329 472 318 c 0
 472 294 442 255 424 255 c 2
 417 255 l 2
 333 255 228 249 150 224 c 1xf080
 147 65 123 33 123 0 c 0
 123 -19 151 -21 163 -21 c 0
 206 -21 272 5 469 21 c 0
 473 22 477 22 480 22 c 0
 497 22 504 14 504 3 c 0
 504 -21 473 -59 457 -60 c 0
 441 -61 280 -72 178 -93 c 0
 163 -96 151 -97 139 -97 c 0
 82 -97 61 -64 61 -23 c 0xf2
EndSplineSet
Validated: 1
EndChar

StartChar: ecaron
Encoding: 283 283 206
Width: 430
Flags: W
HStem: -15 76<89.1383 243.87> 18 81<227.377 395.92> 231 82<165.344 369.83> 415 81<153.254 397> 582 75<66.7047 141.421> 609 71<302.514 357.748>
VStem: 26 62<37.5 174.624> 54 63<280 379>
LayerCount: 2
Fore
SplineSet
212 514 m 0x34
 202 514 157 571 76 582 c 0x38
 66 582 60 595 60 609 c 0x34
 60 631 73 657 103 657 c 2
 106 657 l 2x38
 116 657 165 651 225 614 c 1
 259 644 316 680 346 680 c 0
 358 680 366 674 366 659 c 0
 366 655 365 624 334 609 c 0
 280 583 237 514 212 514 c 0x34
26 58 m 0xb2
 26 109 53 149 54 249 c 1
 54 259 l 2
 54 329 44 379 43 379 c 2
 41 379 l 2
 27 379 17 402 17 425 c 0
 17 436 17 454 59 460 c 0
 117 469 254 493 388 496 c 1
 392 496 l 2
 409 496 415 488 415 477 c 0
 415 453 383 414 367 414 c 0
 366 414 346 415 316 415 c 0
 263 415 192 411 115 395 c 1
 116 372 117 344 117 314 c 2
 117 280 l 1xb1
 186 297 214 304 363 313 c 1
 366 313 l 2
 382 313 388 305 388 294 c 0
 388 270 358 231 340 231 c 2
 338 231 l 1
 329 232 315 233 295 233 c 0
 252 233 186 228 111 203 c 1
 107 167 88 96 88 81 c 0
 88 70 97 61 126 61 c 0xb2
 149 61 326 99 391 99 c 0
 408 99 415 92 415 81 c 0
 415 57 383 18 366 18 c 2
 365 18 l 1x72
 348 17 237 10 140 -10 c 0
 125 -13 112 -15 100 -15 c 0
 46 -15 26 17 26 58 c 0xb2
EndSplineSet
Validated: 1
EndChar

StartChar: IJ
Encoding: 306 306 207
Width: 494
Flags: W
HStem: -88 73<158.3 328.067> 110 85<159.613 215> 467 77<43 130.08> 519 81<274.873 366>
VStem: 20 71<47.4936 165.213> 217 69<206 445.844> 397 62<37.3168 370.34>
LayerCount: 2
Fore
SplineSet
156 156 m 0xde
 156 184 165 186 215 195 c 1
 215 228 217 273 217 327 c 2
 217 355 l 2
 217 421 206 466 203 500 c 1
 203 503 l 1
 96 483 48 467 46 467 c 2
 43 467 l 2
 29 467 19 490 19 513 c 0
 19 542 43 544 43 544 c 1xee
 198 588 454 600 458 600 c 2
 459 600 l 2
 475 600 481 592 481 581 c 0
 481 559 458 526 439 519 c 1
 446 411 452 256 459 147 c 1
 459 130 l 2
 459 -35 318 -88 217 -88 c 0
 107 -88 20 -17 20 92 c 0
 20 112 24 132 29 154 c 0
 32 169 51 177 74 178 c 1
 79 178 l 2
 88 178 98 176 98 161 c 0
 98 147 91 137 91 112 c 0
 91 37 161 -15 242 -15 c 0
 254 -15 265 -14 277 -12 c 0
 376 6 397 48 397 131 c 0
 397 139 396 149 396 158 c 0
 386 419 366 515 366 519 c 1
 337 518 304 517 273 514 c 1
 273 449 286 258 286 211 c 2
 286 206 l 1
 289 206 312 209 324 209 c 0
 340 209 346 201 346 190 c 0
 346 168 320 133 301 128 c 1
 246 125 181 110 180 110 c 2
 179 110 l 2
 165 110 156 133 156 156 c 0xde
EndSplineSet
Validated: 1
EndChar

StartChar: ij
Encoding: 307 307 208
Width: 366
Flags: W
HStem: -2 73<108.211 252.564> 411 78<212.108 275>
VStem: 15 73<93.4 184.25> 147 71<149.869 298.314 301.326 401.121> 148 63<142.83 401.121> 275 70<235.262 410.339> 281 52<97.9548 340.704>
LayerCount: 2
Fore
SplineSet
218 201 m 1xf0
 218 199 l 2
 218 177 193 134 171 134 c 0
 156 134 147 154 147 178 c 2
 147 184 l 2xf0
 147 212 148 241 148 270 c 0
 148 317 147 363 143 403 c 1
 93 395 46 384 45 384 c 2
 43 384 l 2
 29 384 19 408 19 431 c 0
 19 441 19 459 54 465 c 0
 144 483 226 489 311 489 c 2
 330 489 l 1
 330 489 346 489 345 467 c 0xec
 339 377 338 182 333 128 c 0
 326 54 248 -2 163 -2 c 0
 81 -2 15 59 15 128 c 0
 15 141 17 154 22 167 c 0
 25 182 44 190 66 191 c 1
 68 191 l 2
 76 191 92 191 92 174 c 0
 92 165 88 158 88 140 c 0
 88 91 130 71 179 71 c 0
 261 71 281 107 281 173 c 0xe2
 281 190 280 207 279 224 c 0
 277 275 276 359 275 409 c 1
 261 410 245 411 226 411 c 2
 212 411 l 1
 211 375 211 328 211 300 c 0xec
 211 264 216 230 218 201 c 1xf0
EndSplineSet
Validated: 1
EndChar

StartChar: Lacute
Encoding: 313 313 209
Width: 486
Flags: W
HStem: -105 21G<49 93.5> -61 81<226.402 449.83>
VStem: 25 62<0.906277 497.46> 32 70<-19 216.443 317.936 325.181 337.374 567.595>
LayerCount: 2
Fore
SplineSet
161 750 m 1xc0
 165 750 l 2
 181 750 186 742 186 732 c 0
 186 680 79 605 78 604 c 0
 72 600 66 599 62 599 c 0
 50 599 44 610 44 624 c 0
 44 637 49 652 57 661 c 0
 69 675 107 716 117 732 c 0
 123 744 143 749 161 750 c 1xc0
57 -105 m 1
 55 -105 l 2
 43 -105 32 -86 32 -60 c 2
 32 -56 l 2xd0
 32 -52 25 146 25 334 c 0
 25 406 26 477 29 535 c 0
 29 544 29 571 79 571 c 0
 94 571 101 565 100 551 c 0
 100 548 87 393 87 271 c 0xe0
 87 256 88 241 88 227 c 0
 90 154 99 35 102 -19 c 1xd0
 158 -10 327 13 442 20 c 1
 445 20 l 2
 461 20 468 12 468 1 c 0
 468 -23 438 -61 420 -61 c 2
 399 -61 l 2
 303 -61 130 -85 57 -105 c 1
EndSplineSet
Validated: 1
EndChar

StartChar: lacute
Encoding: 314 314 210
Width: 364
Flags: W
HStem: -10 74<67 241.337> 14 81<174.076 328.967> 454 20G<68.5 83>
VStem: 21 63<67.0763 445.006> 32 71<220.938 469.111>
LayerCount: 2
Fore
SplineSet
160 650 m 1x20
 164 650 l 2
 180 650 185 642 185 632 c 0
 185 580 78 505 77 504 c 0
 71 500 65 499 61 499 c 0
 49 499 44 510 44 523 c 0
 44 536 49 552 57 561 c 0
 69 575 107 616 117 632 c 0
 123 644 141 649 160 650 c 1x20
113 64 m 0xb0
 123 64 267 91 317 95 c 1
 323 95 l 2
 341 95 347 87 347 76 c 0
 347 52 317 14 300 14 c 2
 299 14 l 1x70
 294 13 223 17 127 -5 c 0
 112 -8 99 -10 88 -10 c 0
 46 -10 33 14 29 64 c 0
 23 130 21 172 21 218 c 0xb0
 21 272 24 331 32 439 c 0
 32 443 33 447 33 450 c 0
 35 464 59 474 78 474 c 0
 88 474 103 472 103 457 c 0xa8
 103 449 84 321 84 216 c 0
 84 200 84 184 85 170 c 0
 91 86 89 64 113 64 c 0xb0
EndSplineSet
Validated: 1
EndChar

StartChar: Lcaron
Encoding: 317 317 211
Width: 486
Flags: W
HStem: -105 21G<51 95.5> -61 81<228.402 451.83>
VStem: 27 62<0.906277 497.46> 34 70<-19 216.443 317.936 325.181 337.374 567.595>
LayerCount: 2
Fore
SplineSet
284 580 m 1xc0
 288 580 l 2
 304 580 309 572 309 562 c 0
 309 510 202 435 201 434 c 0
 195 430 189 429 185 429 c 0
 173 429 167 440 167 454 c 0
 167 467 172 482 180 491 c 0
 192 505 231 545 241 561 c 0
 247 573 265 579 284 580 c 1xc0
59 -105 m 1
 57 -105 l 2
 45 -105 34 -86 34 -60 c 2
 34 -56 l 2xd0
 34 -52 27 146 27 334 c 0
 27 406 28 477 31 535 c 0
 31 544 31 571 81 571 c 0
 96 571 103 565 102 551 c 0
 102 548 89 393 89 271 c 0xe0
 89 256 90 241 90 227 c 0
 92 154 101 35 104 -19 c 1xd0
 160 -10 329 13 444 20 c 1
 447 20 l 2
 463 20 470 12 470 1 c 0
 470 -23 440 -61 422 -61 c 2
 401 -61 l 2
 305 -61 132 -85 59 -105 c 1
EndSplineSet
Validated: 1
EndChar

StartChar: lcaron
Encoding: 318 318 212
Width: 364
Flags: W
HStem: -10 74<67 241.337> 14 81<174.076 328.967> 454 20G<68.5 83>
VStem: 21 63<67.0763 445.006> 32 71<220.938 469.111>
LayerCount: 2
Fore
SplineSet
269 490 m 1x20
 273 490 l 2
 289 490 294 482 294 472 c 0
 294 420 185 344 185 344 c 1
 179 340 173 339 169 339 c 0
 157 339 152 350 152 363 c 0
 152 376 157 392 165 401 c 0
 177 415 215 455 225 471 c 0
 231 483 250 489 269 490 c 1x20
113 64 m 0xb0
 123 64 267 91 317 95 c 1
 323 95 l 2
 341 95 347 87 347 76 c 0
 347 52 317 14 300 14 c 2
 299 14 l 1x70
 294 13 223 17 127 -5 c 0
 112 -8 99 -10 88 -10 c 0
 46 -10 33 14 29 64 c 0
 23 130 21 172 21 218 c 0xb0
 21 272 24 331 32 439 c 0
 32 443 33 447 33 450 c 0
 35 464 59 474 78 474 c 0
 88 474 103 472 103 457 c 0xa8
 103 449 84 321 84 216 c 0
 84 200 84 184 85 170 c 0
 91 86 89 64 113 64 c 0xb0
EndSplineSet
Validated: 1
EndChar

StartChar: Ldot
Encoding: 319 319 213
Width: 480
Flags: W
HStem: -105 21G<43 87.5> -61 81<220.402 443.83> 218 82<172.726 222.216>
VStem: 19 62<0.906277 497.46> 26 70<-19 216.443 317.936 325.181 337.374 567.595> 169 71<235.153 295.624>
LayerCount: 2
Fore
SplineSet
51 -105 m 1xec
 49 -105 l 2
 37 -105 26 -86 26 -60 c 2
 26 -56 l 2xec
 26 -52 19 146 19 334 c 0
 19 406 20 477 23 535 c 0
 23 544 23 571 73 571 c 0
 88 571 95 565 94 551 c 0
 94 548 81 393 81 271 c 0xf4
 81 256 82 241 82 227 c 0
 84 154 93 35 96 -19 c 1
 152 -10 321 13 436 20 c 1
 439 20 l 2
 455 20 462 12 462 1 c 0
 462 -23 432 -61 414 -61 c 2
 393 -61 l 2
 297 -61 124 -85 51 -105 c 1xec
192 218 m 0
 181 218 169 236 169 265 c 0
 169 269 170 273 170 276 c 0
 172 291 192 299 215 300 c 1
 218 300 l 2
 234 300 240 292 240 282 c 0
 240 258 211 218 192 218 c 0
EndSplineSet
Validated: 1
EndChar

StartChar: ldot
Encoding: 320 320 214
Width: 362
Flags: W
HStem: -10 74<65 239.337> 14 81<172.076 326.967> 220 82<154.726 204.216> 454 20G<66.5 81>
VStem: 19 63<67.0763 445.006> 30 71<220.938 469.111> 151 71<237.153 297.624>
LayerCount: 2
Fore
SplineSet
111 64 m 0xba
 121 64 265 91 315 95 c 1
 321 95 l 2
 339 95 345 87 345 76 c 0
 345 52 315 14 298 14 c 2
 297 14 l 1x7a
 292 13 221 17 125 -5 c 0
 110 -8 97 -10 86 -10 c 0
 44 -10 31 14 27 64 c 0
 21 130 19 172 19 218 c 0xba
 19 272 22 331 30 439 c 0
 30 443 31 447 31 450 c 0
 33 464 57 474 76 474 c 0
 86 474 101 472 101 457 c 0xb6
 101 449 82 321 82 216 c 0
 82 200 82 184 83 170 c 0
 89 86 87 64 111 64 c 0xba
174 220 m 0
 163 220 151 238 151 267 c 0
 151 271 152 275 152 278 c 0
 154 293 174 301 197 302 c 1
 200 302 l 2
 216 302 222 294 222 284 c 0
 222 260 193 220 174 220 c 0
EndSplineSet
Validated: 1
EndChar

StartChar: Lslash
Encoding: 321 321 215
Width: 536
Flags: W
HStem: -105 21G<98.5 143.5> -61 81<276.402 499.83>
VStem: 76 62<-16.8594 139 264 490.488> 79 71<-19 136.117 319.562 566.641>
LayerCount: 2
Fore
SplineSet
36 114 m 0xe0
 26 114 13 134 13 159 c 0
 13 171 16 182 24 186 c 0
 36 193 55 205 76 220 c 1
 76 316 l 2xe0
 76 384 76 473 79 535 c 0
 79 544 79 571 129 571 c 0
 144 571 151 565 150 551 c 0xd0
 150 548 138 415 138 264 c 1
 195 305 196 306 221 307 c 1
 224 307 l 2
 241 307 247 300 247 289 c 0
 247 269 226 239 213 231 c 0
 193 218 168 203 140 184 c 1
 143 114 150 26 152 -19 c 1
 208 -10 377 13 492 20 c 1
 495 20 l 2
 511 20 518 12 518 1 c 0
 518 -23 488 -61 470 -61 c 2
 449 -61 l 2
 353 -61 180 -85 107 -105 c 1
 105 -105 l 2
 92 -105 82 -84 82 -56 c 0
 82 -26 79 58 77 139 c 1
 53 121 43 114 36 114 c 0xe0
EndSplineSet
Validated: 1
EndChar

StartChar: lslash
Encoding: 322 322 216
Width: 412
Flags: W
HStem: -10 74<108 289.337> 14 81<222.076 376.967> 454 20G<116.5 130>
VStem: 15 117<138.129 194.432> 69 63<263 445.469>
LayerCount: 2
Fore
SplineSet
38 118 m 0xb0
 24 118 15 149 15 164 c 0xb0
 15 175 19 185 29 191 c 0
 41 198 54 207 69 218 c 1
 69 220 75 406 81 450 c 0
 83 464 107 474 126 474 c 0
 134 474 151 472 151 456 c 0
 151 448 136 357 132 263 c 1xa8
 161 284 166 288 190 289 c 1
 193 289 l 2
 209 289 216 282 216 271 c 0
 216 251 195 221 180 212 c 0
 170 205 152 194 132 180 c 1
 132 177 133 173 133 170 c 0
 139 86 137 64 161 64 c 0xb0
 171 64 315 91 365 95 c 1
 371 95 l 2
 389 95 395 87 395 76 c 0
 395 52 365 14 348 14 c 2
 347 14 l 1x70
 342 13 271 17 175 -5 c 0
 159 -9 146 -10 135 -10 c 0
 81 -10 78 34 71 137 c 1
 53 124 44 118 38 118 c 0xb0
EndSplineSet
Validated: 1
EndChar

StartChar: Nacute
Encoding: 323 323 217
Width: 490
Flags: W
HStem: -105 21G<46.5 68.5>
VStem: 23 63<17.4846 423> 33 70<-68 166.114> 396 72<331.117 595.798> 410 64<106.409 518.17>
LayerCount: 2
Fore
SplineSet
344 721 m 1x80
 348 721 l 2
 364 721 369 714 369 704 c 0
 369 653 264 578 261 576 c 0
 254 572 249 571 244 571 c 0
 232 571 227 582 227 596 c 0
 227 609 232 623 240 632 c 0
 252 646 291 687 301 703 c 0
 303 707 312 719 344 721 c 1x80
396 566 m 0x90
 396 598 433 600 442 600 c 0
 455 600 467 596 468 585 c 0x90
 470 562 474 428 474 328 c 0x88
 474 305 473 284 473 266 c 0
 468 -4 464 -31 432 -54 c 0
 427 -58 420 -63 413 -63 c 0
 407 -63 401 -59 396 -48 c 0
 393 -44 309 116 89 423 c 1
 87 366 86 302 86 254 c 2
 86 212 l 1xd0
 89 130 103 -1 103 -37 c 0
 103 -58 80 -105 57 -105 c 0
 36 -105 33 -68 33 -68 c 1xa0
 32 -31 23 174 23 246 c 0
 23 249 23 537 27 545 c 0
 29 560 53 569 72 569 c 0
 83 569 92 566 95 561 c 0
 125 520 398 108 401 103 c 1
 407 176 410 232 410 288 c 0xc8
 410 397 396 563 396 566 c 0x90
EndSplineSet
Validated: 1
EndChar

StartChar: nacute
Encoding: 324 324 218
Width: 404
Flags: W
VStem: 20 63<23.2178 339> 26 71<-9.13086 246.477> 307 77<274.902 492.043> 321 63<164.383 487.704>
LayerCount: 2
Fore
SplineSet
297 630 m 1x00
 301 630 l 2
 317 630 322 622 322 612 c 0
 322 560 215 485 213 484 c 0
 207 480 201 479 197 479 c 0
 185 479 180 490 180 503 c 0
 180 516 185 532 193 541 c 0
 205 555 243 595 253 611 c 0
 259 623 278 629 297 630 c 1x00
97 45 m 2x40
 97 40 l 2
 97 18 72 -25 50 -25 c 0
 40 -25 26 -12 26 18 c 2
 26 24 l 1x40
 23 117 20 206 20 289 c 0
 20 341 21 390 24 437 c 0
 24 450 24 472 70 474 c 0
 82 475 89 471 93 466 c 0
 180 349 181 349 316 163 c 1
 320 201 321 236 321 270 c 0x90
 321 375 307 453 307 455 c 2
 307 461 l 2
 307 475 312 496 357 496 c 0
 362 496 376 496 378 482 c 0
 382 447 384 383 384 314 c 0
 384 215 380 106 372 68 c 0
 367 44 346 11 327 11 c 0
 322 11 317 14 313 19 c 0
 312 19 311 19 311 20 c 0
 295 52 228 144 188 204 c 0
 164 239 120 295 85 339 c 1
 83 306 83 277 83 252 c 0xa0
 83 133 97 89 97 45 c 2x40
EndSplineSet
Validated: 1
EndChar

StartChar: Ncaron
Encoding: 327 327 219
Width: 496
Flags: W
HStem: -105 21G<44.5 66.5> 644 75<96.1867 170.421> 671 71<332.407 387.55>
VStem: 21 63<17.4846 423> 31 70<-68 166.114> 394 72<331.117 595.798> 408 64<106.409 518.17>
LayerCount: 2
Fore
SplineSet
241 576 m 0xa0
 231 576 186 633 105 644 c 0
 95 644 89 656 89 670 c 0
 89 692 103 719 133 719 c 2
 136 719 l 2xc0
 146 719 194 713 254 676 c 1
 288 706 345 742 375 742 c 0
 387 742 395 736 395 721 c 0
 395 716 394 685 364 671 c 0
 310 645 266 576 241 576 c 0xa0
394 566 m 0x84
 394 598 431 600 440 600 c 0
 453 600 465 596 466 585 c 0x84
 468 562 472 428 472 328 c 0x82
 472 305 471 284 471 266 c 0
 466 -4 462 -31 430 -54 c 0
 425 -58 418 -63 411 -63 c 0
 405 -63 399 -59 394 -48 c 0
 391 -44 307 116 87 423 c 1
 85 366 84 302 84 254 c 2
 84 212 l 1x94
 87 130 101 -1 101 -37 c 0
 101 -58 78 -105 55 -105 c 0
 34 -105 31 -68 31 -68 c 1x88
 30 -31 21 174 21 246 c 0
 21 249 21 537 25 545 c 0
 27 560 51 569 70 569 c 0
 81 569 90 566 93 561 c 0
 123 520 396 108 399 103 c 1
 405 176 408 232 408 288 c 0x92
 408 397 394 563 394 566 c 0x84
EndSplineSet
Validated: 1
EndChar

StartChar: ncaron
Encoding: 328 328 220
Width: 410
Flags: W
HStem: 474 21G<195 212.5> 542 75<54.7047 129.421> 569 71<290.514 345.748>
VStem: 22 63<23.2178 339> 28 71<-9.13086 246.477> 309 77<274.902 492.043> 323 63<164.383 487.704>
LayerCount: 2
Fore
SplineSet
200 474 m 0xa0
 190 474 145 531 64 542 c 0xc0
 54 542 48 555 48 569 c 0xa0
 48 591 61 617 91 617 c 2
 94 617 l 2xc0
 104 617 153 611 213 574 c 1
 247 604 304 640 334 640 c 0
 346 640 354 634 354 619 c 0
 354 615 353 584 322 569 c 0
 268 543 225 474 200 474 c 0xa0
99 45 m 2x88
 99 40 l 2
 99 18 74 -25 52 -25 c 0
 42 -25 28 -12 28 18 c 2
 28 24 l 1x88
 25 117 22 206 22 289 c 0
 22 341 23 390 26 437 c 0
 26 450 26 472 72 474 c 0
 84 475 91 471 95 466 c 0
 182 349 183 349 318 163 c 1
 322 201 323 236 323 270 c 0x92
 323 375 309 453 309 455 c 2
 309 461 l 2
 309 475 314 496 359 496 c 0
 364 496 378 496 380 482 c 0
 384 447 386 383 386 314 c 0
 386 215 382 106 374 68 c 0
 369 44 348 11 329 11 c 0
 324 11 319 14 315 19 c 0
 314 19 313 19 313 20 c 0
 297 52 230 144 190 204 c 0
 166 239 122 295 87 339 c 1
 85 306 85 277 85 252 c 0x94
 85 133 99 89 99 45 c 2x88
EndSplineSet
Validated: 1
EndChar

StartChar: Eng
Encoding: 330 330 221
Width: 450
Flags: W
HStem: 512 74<178.31 310.083>
VStem: 26 62<43.6763 424.935> 32 70<-8.87183 278.328 540.929 573.81> 369 61<19.8973 442.14> 369 52<20.5043 236.65 242.408 438.438>
LayerCount: 2
Fore
SplineSet
56 -24 m 0xa0
 42 -24 32 -6 32 19 c 2
 32 25 l 1xa0
 28 138 26 231 26 315 c 0xc0
 26 394 28 466 32 540 c 1
 32 542 l 2
 32 555 33 576 78 578 c 1
 81 578 l 2
 95 578 102 573 102 561 c 0
 102 553 99 533 97 501 c 1
 138 547 195 586 269 586 c 0
 363 586 416 520 421 426 c 0xa8
 424 366 430 312 430 239 c 0
 430 189 427 131 419 57 c 0
 410 -27 355 -72 330 -72 c 0
 315 -72 306 -47 306 -25 c 0
 306 5 331 7 331 7 c 1
 351 12 360 42 363 77 c 0
 367 127 369 175 369 220 c 0
 369 295 364 360 357 408 c 0
 348 471 300 512 243 512 c 0
 191 512 132 477 91 392 c 0
 90 391 88 317 88 266 c 2
 88 244 l 1xd0
 90 161 102 77 102 42 c 0
 102 20 78 -24 56 -24 c 0xa0
EndSplineSet
Validated: 1
EndChar

